<?xml version="1.0" encoding="UTF-8"?>
<svg xmlns="http://www.w3.org/2000/svg" version="1.1" viewBox="0 0 42.14 46.23">
  <!-- Generator: Adobe Illustrator 30.3.0, SVG Export Plug-In . SVG Version: 2.1.3 Build 182)  -->
  <defs>
    <style>
      .st0, .st1 {
        fill: #c49a6c;
      }

      .st2 {
        stroke-dasharray: .62 .15 1.03;
        stroke-width: .39px;
      }

      .st2, .st3, .st4 {
        stroke-linecap: round;
      }

      .st2, .st4 {
        fill: none;
        stroke: #fff;
        stroke-miterlimit: 10;
      }

      .st5 {
        fill: #808285;
      }

      .st6 {
        fill: #48b1e4;
      }

      .st7 {
        fill: #d8903c;
      }

      .st8 {
        fill: #e85b8d;
      }

      .st9, .st1 {
        opacity: .4;
      }

      .st9, .st1, .st10 {
        mix-blend-mode: multiply;
      }

      .st11 {
        isolation: isolate;
      }

      .st3 {
        stroke: #4e2d17;
        stroke-linejoin: round;
        stroke-width: .24px;
      }

      .st3, .st12 {
        fill: #a7a9ac;
      }

      .st13 {
        fill: #fcef9a;
      }

      .st4 {
        stroke-dasharray: .73 .18 1.21;
        stroke-width: .83px;
      }

      .st14 {
        fill: #68c6b6;
      }

      .st15 {
        fill: #58595b;
      }

      .st16 {
        fill: #4e2d17;
      }

      .st17 {
        fill: #fbb040;
      }

      .st10 {
        opacity: .3;
      }

      .st18 {
        fill: #28363a;
      }
    </style>
  </defs>
  <g class="st11">
    <g id="Layer_1">
      <g>
        <g>
          <path class="st7" d="M14.22,35.49c-5.9,0-10.5-2.15-12.62-5.9C-2.57,22.19,3.78,10.68,15.75,3.91c2.06-1.16,4.48-1.8,6.84-1.8,3.45,0,6.05,1.33,6.61,3.38.58,2.09.03,4.34-.45,6.33-.48,1.98-.89,3.69-.1,4.66.54.67,1.67.77,2.97.89,1.93.18,4.33.41,5.88,2.63.45.64.57,1.53.33,2.56-.62,2.75-3.61,6.24-6.96,8.13-5.46,3.08-11.37,4.78-16.66,4.78h0ZM29.69,21.61c-.78,0-1.63.25-2.4.7-.86.51-1.53,1.21-1.89,1.97-.34.72-.35,1.41-.04,1.94.34.58,1.06.92,1.96.92.78,0,1.63-.25,2.4-.7,1.73-1.02,2.6-2.78,1.93-3.91-.34-.58-1.06-.92-1.96-.92Z"/>
          <path class="st16" d="M22.59,2.43c3.15,0,5.76,1.18,6.3,3.15,1.13,4.09-2.24,8.95-.49,11.11,1.5,1.85,6.32-.1,8.84,3.5,1.61,2.29-1.92,7.62-6.52,10.23-5.61,3.17-11.47,4.74-16.51,4.74-5.59,0-10.19-1.93-12.34-5.74C-2.21,22.18,4.07,10.88,15.91,4.19c2.15-1.21,4.54-1.76,6.68-1.76M27.33,27.47c.81,0,1.71-.25,2.56-.75,1.89-1.11,2.8-3.06,2.04-4.35-.42-.71-1.25-1.07-2.23-1.07-.81,0-1.71.25-2.56.75-1.89,1.11-2.8,3.06-2.04,4.35.42.71,1.25,1.07,2.24,1.07M22.59,1.79c-2.41,0-4.89.65-7,1.84C3.46,10.49-2.94,22.2,1.32,29.74c2.18,3.86,6.88,6.07,12.9,6.07,5.35,0,11.32-1.71,16.82-4.82,3.47-1.96,6.47-5.47,7.12-8.34.25-1.12.12-2.09-.38-2.81-1.64-2.35-4.12-2.58-6.12-2.76-1.23-.12-2.3-.21-2.75-.77-.69-.85-.3-2.49.16-4.39.49-2.03,1.04-4.33.45-6.49-.61-2.2-3.32-3.62-6.92-3.62h0ZM27.33,26.82c-.79,0-1.4-.28-1.68-.76-.26-.44-.24-1.02.05-1.64.33-.71.96-1.36,1.76-1.83.72-.42,1.52-.66,2.24-.66.79,0,1.4.28,1.68.76.57.97-.26,2.56-1.81,3.47-.72.42-1.52.66-2.24.66h0Z"/>
        </g>
        <g class="st9">
          <path class="st0" d="M26.43,17.56c1.65,2.47,4.58,1.78,7.67.53-2.27-.6-4.7-.17-5.69-1.39-.81-1-.52-2.59-.09-4.41-1.67,1.78-2.95,3.59-1.89,5.27Z"/>
        </g>
        <path class="st1" d="M37.25,20.2c-.6-.85-1.32-1.39-2.1-1.74-.73,4.34-5.36,12.48-27.92,15.4-.04,0-.08.01-.12.02,5.94,2.49,15.06,1.39,23.62-3.45,4.6-2.6,8.13-7.94,6.52-10.23Z"/>
        <g>
          <g>
            <path class="st6" d="M21.73,9.01c-1.47,0-2.48-.51-2.65-1.34-.23-1.09,1.19-2.28,3.23-2.7.47-.1.93-.15,1.38-.15,1.47,0,2.48.51,2.65,1.34.23,1.09-1.19,2.28-3.23,2.7-.47.1-.93.15-1.38.15Z"/>
            <path class="st16" d="M23.68,5.15c1.24,0,2.2.41,2.34,1.08.19.9-1.15,1.94-2.98,2.32-.46.09-.9.14-1.32.14-1.24,0-2.2-.41-2.34-1.08-.19-.9,1.15-1.94,2.98-2.32.46-.09.9-.14,1.32-.14M23.68,4.51h0c-.47,0-.96.05-1.45.15-2.25.47-3.74,1.79-3.48,3.08.2.98,1.34,1.59,2.97,1.59.47,0,.96-.05,1.45-.15,2.25-.47,3.74-1.79,3.48-3.08-.2-.98-1.34-1.59-2.97-1.59h0Z"/>
          </g>
          <g class="st9">
            <path class="st6" d="M19.93,8.29c.66.4,1.84.53,3.11.26,1.65-.34,2.89-1.22,2.99-2.05-1.74,1.34-3.91,1.82-6.1,1.79Z"/>
          </g>
        </g>
        <g>
          <g>
            <path class="st8" d="M12.47,13.37c-.77,0-1.33-.26-1.59-.73-.27-.5-.15-1.16.33-1.85.44-.62,1.15-1.21,1.98-1.67.9-.49,1.83-.75,2.62-.75s1.33.26,1.59.74c.53.98-.49,2.52-2.32,3.51-.9.49-1.83.75-2.62.75Z"/>
            <path class="st16" d="M15.82,8.69c.62,0,1.1.19,1.31.57.44.81-.54,2.19-2.19,3.08-.88.47-1.76.71-2.47.71-.62,0-1.1-.19-1.31-.57-.44-.81.54-2.19,2.19-3.08.88-.47,1.76-.71,2.47-.71M15.82,8.05c-.84,0-1.83.28-2.77.79-.88.48-1.62,1.1-2.09,1.76-.56.79-.69,1.57-.35,2.19.32.58.98.9,1.87.9.84,0,1.83-.28,2.77-.79,2.02-1.09,3.07-2.79,2.45-3.95-.31-.58-.98-.9-1.87-.9h0Z"/>
          </g>
          <g class="st9">
            <path class="st8" d="M11.88,12.98c.75.19,1.92-.03,3.06-.64,1.48-.8,2.42-2,2.27-2.82-1.28,1.78-3.23,2.86-5.33,3.46Z"/>
          </g>
        </g>
        <g>
          <g>
            <path class="st13" d="M6.42,20.65c-.32,0-.6-.09-.82-.27-.87-.7-.53-2.52.77-4.14.94-1.17,2.13-1.92,3.05-1.92.32,0,.6.09.83.27.27.21.43.54.47.94.1.89-.38,2.11-1.25,3.2-.94,1.17-2.13,1.92-3.05,1.92Z"/>
            <path class="st16" d="M9.42,14.64c.24,0,.46.06.62.2.72.57.35,2.22-.82,3.69-.9,1.12-2,1.8-2.8,1.8-.24,0-.46-.06-.62-.2-.72-.58-.35-2.23.82-3.69.9-1.12,2-1.8,2.8-1.8M9.42,14h0c-1.02,0-2.29.78-3.3,2.04-1.44,1.79-1.75,3.76-.72,4.59.28.22.63.34,1.03.34,1.02,0,2.29-.78,3.3-2.04.92-1.15,1.42-2.46,1.32-3.43-.05-.49-.26-.89-.59-1.16-.28-.22-.63-.34-1.03-.34h0Z"/>
          </g>
          <g class="st9">
            <path class="st13" d="M6.65,20.31c.77-.11,1.75-.77,2.57-1.78,1.06-1.32,1.46-2.78,1-3.48-.49,2.14-1.86,3.89-3.57,5.26Z"/>
          </g>
        </g>
        <g>
          <g>
            <path class="st14" d="M4.89,29.64c-.08,0-.17,0-.25-.03-1.09-.24-1.59-2.02-1.15-4.05.41-1.87,1.45-3.23,2.49-3.23.08,0,.17,0,.25.03,1.09.24,1.59,2.02,1.15,4.05-.41,1.87-1.45,3.23-2.48,3.23Z"/>
            <path class="st16" d="M5.98,22.66c.06,0,.12,0,.18.02.9.2,1.3,1.84.9,3.67-.37,1.71-1.31,2.98-2.17,2.98-.06,0-.12,0-.18-.02-.9-.2-1.3-1.84-.91-3.67.37-1.71,1.32-2.97,2.17-2.97M5.98,22.01c-1.2,0-2.35,1.43-2.8,3.48-.49,2.25.11,4.15,1.39,4.43.1.02.21.03.32.03,1.2,0,2.35-1.43,2.8-3.48.49-2.24-.11-4.15-1.39-4.43-.1-.02-.21-.03-.32-.03h0Z"/>
          </g>
          <g class="st9">
            <path class="st6" d="M5.55,29.08c.64-.44,1.23-1.47,1.51-2.74.36-1.65.07-3.14-.65-3.56.52,2.13.06,4.31-.85,6.3Z"/>
          </g>
        </g>
        <g>
          <g>
            <g>
              <path class="st18" d="M38.85,10.61s-.07,0-.1-.02l-2.02-.72c-.06-.02-.11-.06-.14-.11-.56-.76-.71-1.78-.41-2.8.29-1,.81-1.65,1.35-2.33l.29-.37c.69-.89.99-1.73.87-2.38-.08-.42-.35-.76-.79-1.02-.14-.08-.19-.25-.12-.39.05-.11.16-.17.27-.17.03,0,.07,0,.1.02.12.04,2.95,1.12,3.57,3.69.46,1.91-.43,4.1-2.65,6.49-.06.06-.14.1-.22.1Z"/>
              <path class="st16" d="M38.05.6s7.28,2.69.81,9.7l-2.02-.72c-.47-.64-.65-1.54-.36-2.54.33-1.11.94-1.76,1.59-2.6,1.23-1.6,1.33-3.07-.01-3.84M38.05,0c-.23,0-.44.13-.55.35-.13.28-.03.62.25.78.37.21.58.48.65.81.11.56-.18,1.32-.81,2.13-.1.12-.19.25-.29.36-.56.71-1.1,1.38-1.41,2.44-.33,1.11-.16,2.22.45,3.06.07.1.17.17.28.21l2.02.72c.07.02.13.04.2.04.17,0,.33-.07.44-.19,2.29-2.48,3.2-4.75,2.72-6.77-.66-2.73-3.63-3.86-3.76-3.91-.07-.03-.14-.04-.21-.04h0Z"/>
            </g>
            <g class="st10">
              <path class="st15" d="M38.85,10.3l-.46-.17c4.02-4.54,2.2-7.21.55-8.49-.13-.42-.42-.77-.89-1.04,0,0,7.28,2.69.81,9.7Z"/>
            </g>
            <g>
              <path class="st13" d="M25,45.96s-.1-.01-.13-.02c-1.71-.62,7.07-26.59,7.17-26.85,1.03-2.83,2.33-5.34,3.48-6.7.05-.06.13-.1.21-.1.03,0,.06,0,.09.02l2.2.8c.11.04.18.14.18.25.01,1.78-.6,4.54-1.62,7.37-.09.25-9.83,25.23-11.58,25.23Z"/>
              <path class="st16" d="M35.73,12.56l2.2.8c.01,1.68-.55,4.37-1.61,7.28-1.65,4.54-10.08,25.05-11.32,25.05-.01,0-.02,0-.03,0-1.11-.4,5.67-21.92,7.33-26.5,1.05-2.91,2.34-5.33,3.43-6.62M35.73,12.01c-.16,0-.31.07-.42.19-1.17,1.38-2.49,3.92-3.53,6.78-.88,2.42-3.03,9.11-4.72,14.85-3.5,11.91-2.91,12.12-2.29,12.35.06.02.16.04.22.04.52,0,1.17,0,6.01-11.15,2.39-5.52,4.95-11.83,5.83-14.26,1.04-2.86,1.65-5.66,1.64-7.47,0-.23-.15-.43-.36-.51l-2.2-.8c-.06-.02-.12-.03-.19-.03h0Z"/>
            </g>
            <g class="st9">
              <path class="st17" d="M24.97,45.68s-.03-.01-.05-.02c1.54-1.87,9-20.75,10.29-24.31,1.05-2.91,1.62-5.6,1.61-7.28l-1.75-.63c.22-.33.44-.62.66-.88l2.2.8c.01,1.68-.55,4.37-1.61,7.28-1.66,4.59-10.25,25.44-11.36,25.04Z"/>
            </g>
            <g>
              <g>
                <path class="st12" d="M37.92,15.22s-.16-.02-.19-.03l-3.03-1.1c-.14-.05-.26-.16-.33-.31-.11-.24-.11-.58,0-.91.08-.22.2-.41.35-.54-.02-.2,0-.42.08-.64.08-.22.2-.41.35-.54-.02-.2,0-.42.08-.64.17-.46.51-.76.85-.76.03,0,.15.02.18.03l3.03,1.1c.38.14.52.67.32,1.22-.08.22-.2.41-.35.54.02.2,0,.42-.08.64-.08.22-.2.41-.35.54.02.2,0,.42-.08.64-.17.46-.51.77-.84.77Z"/>
                <path class="st16" d="M36.09,10.01s.06,0,.09.02l3.03,1.1c.23.08.3.47.16.87-.09.25-.24.44-.4.53.06.17.05.41-.03.66-.09.25-.24.44-.4.53.06.17.06.41-.03.66-.13.35-.37.58-.59.58-.03,0-.06,0-.09-.02l-3.03-1.1c-.23-.08-.3-.47-.16-.87.09-.25.24-.44.4-.53-.06-.17-.06-.41.03-.66.09-.25.24-.44.4-.53-.06-.17-.06-.41.03-.66.13-.35.37-.58.59-.58M36.09,9.46h0c-.46,0-.89.37-1.1.94-.08.21-.11.43-.11.63-.13.15-.25.34-.32.55-.08.21-.11.43-.11.63-.14.15-.25.34-.32.55-.15.4-.14.8,0,1.12.1.22.28.38.49.45l3.03,1.1c.09.03.18.05.28.05.46,0,.89-.37,1.1-.95.08-.21.11-.43.11-.63.14-.15.25-.34.32-.55.08-.21.11-.43.11-.63.13-.15.25-.34.32-.55.25-.7.05-1.38-.48-1.57l-3.03-1.1c-.09-.03-.18-.05-.28-.05h0Z"/>
              </g>
              <g class="st9">
                <path class="st5" d="M38.94,13.18c-.09.25-.24.44-.4.53.06.17.06.41-.03.66-.14.4-.45.65-.68.57l-1.08-.39c.01-.24.07-.49.25-.72.02-.05.12-.11.18-.13.06-.08.17-.24.13-.36-.2-.27-.02-.91.26-1.17-.19-.07-.23-.34-.18-.62.07-.38.35-.58.5-.89l1.31.47c.23.08.3.47.16.87-.09.25-.24.44-.4.53.06.17.05.41-.03.66Z"/>
              </g>
              <line class="st3" x1="34.84" y1="12.41" x2="36.19" y2="12.9"/>
              <line class="st3" x1="35.27" y1="11.22" x2="35.95" y2="11.46"/>
              <line class="st3" x1="37.99" y1="13.48" x2="38.67" y2="13.73"/>
              <line class="st3" x1="37.79" y1="12.13" x2="39.14" y2="12.62"/>
            </g>
          </g>
          <path class="st2" d="M37.51,9.3c-.48-1.26-.11-2.21.55-3.39"/>
          <line class="st2" x1="25.66" y1="43.39" x2="28.11" y2="35.67"/>
        </g>
        <path class="st4" d="M20.49,3.58s-4.23.24-10.48,5.94"/>
      </g>
    </g>
  </g>
</svg>