<?xml version="1.0" encoding="UTF-8"?>
<svg xmlns="http://www.w3.org/2000/svg" version="1.1" viewBox="0 0 57.68 36.44">
  <!-- Generator: Adobe Illustrator 30.3.0, SVG Export Plug-In . SVG Version: 2.1.3 Build 182)  -->
  <defs>
    <style>
      .st0 {
        fill: #53c6e7;
      }

      .st1 {
        fill: #fff;
      }

      .st2 {
        fill: none;
        stroke: #fff;
        stroke-dasharray: .51 .13 .85;
        stroke-linecap: round;
        stroke-miterlimit: 10;
        stroke-width: .31px;
      }

      .st3 {
        opacity: .4;
      }

      .st3, .st4, .st5 {
        mix-blend-mode: multiply;
      }

      .st6 {
        isolation: isolate;
      }

      .st7 {
        fill: #939598;
      }

      .st8 {
        fill: #e6e7e8;
      }

      .st9 {
        fill: #bb7c2b;
      }

      .st10 {
        fill: #4e2d17;
      }

      .st5 {
        opacity: .3;
      }

      .st11 {
        fill: #28363a;
      }

      .st12 {
        fill: #414042;
      }
    </style>
  </defs>
  <g class="st6">
    <g id="Layer_1">
      <g>
        <g>
          <g>
            <path class="st11" d="M11.67,30.45c-.62,0-1.24-.05-1.86-.15C3.61,29.28-.6,23.41.42,17.21c.91-5.53,5.63-9.54,11.23-9.54.62,0,1.24.05,1.86.15,3,.49,5.62,2.13,7.4,4.6,1.77,2.47,2.48,5.49,1.99,8.48-.91,5.53-5.63,9.54-11.23,9.54ZM11.66,11.28c-3.83,0-7.06,2.74-7.68,6.52-.34,2.05.14,4.11,1.36,5.8,1.21,1.69,3.01,2.81,5.06,3.15.42.07.85.1,1.27.1,3.83,0,7.06-2.74,7.68-6.52.34-2.05-.14-4.11-1.36-5.8-1.21-1.69-3.01-2.81-5.06-3.15-.42-.07-.85-.1-1.27-.1Z"/>
            <path class="st10" d="M11.65,7.95c.6,0,1.2.05,1.81.15,6.05,1,10.16,6.73,9.16,12.77-.9,5.44-5.62,9.31-10.96,9.31-.6,0-1.21-.05-1.81-.15C3.8,29.04-.3,23.31.69,17.26c.9-5.44,5.62-9.31,10.96-9.31M11.67,27.13c3.87,0,7.3-2.81,7.95-6.75.72-4.38-2.26-8.54-6.64-9.26-.44-.07-.88-.11-1.31-.11-3.87,0-7.3,2.81-7.95,6.75-.72,4.38,2.26,8.54,6.64,9.26.44.07.88.11,1.32.11M11.65,7.41C5.92,7.41,1.09,11.51.16,17.17c-1.04,6.34,3.27,12.35,9.61,13.4.63.1,1.27.16,1.9.16,5.73,0,10.56-4.11,11.49-9.77.51-3.07-.22-6.15-2.03-8.69-1.82-2.53-4.51-4.21-7.57-4.71-.63-.1-1.27-.16-1.9-.16h0ZM11.67,26.58c-.41,0-.82-.03-1.23-.1-1.98-.32-3.71-1.4-4.88-3.04-1.17-1.63-1.64-3.62-1.31-5.6.6-3.65,3.72-6.3,7.41-6.3.41,0,.82.03,1.22.1,1.98.33,3.71,1.4,4.88,3.04,1.17,1.63,1.64,3.62,1.31,5.6-.6,3.65-3.72,6.3-7.41,6.3h0Z"/>
          </g>
          <g>
            <path class="st12" d="M11.66,21.31c-.12,0-.24,0-.37-.03-.59-.1-1.11-.42-1.46-.91-.35-.49-.49-1.08-.39-1.67.18-1.09,1.11-1.88,2.21-1.88.12,0,.24,0,.37.03,1.22.2,2.05,1.36,1.85,2.58-.18,1.09-1.11,1.88-2.21,1.88Z"/>
            <path class="st10" d="M11.66,17.09c.11,0,.21,0,.32.03,1.08.18,1.8,1.19,1.63,2.27-.16.97-1,1.65-1.94,1.65-.11,0-.21,0-.32-.03-1.08-.18-1.8-1.19-1.63-2.27.16-.97,1-1.65,1.95-1.65M11.66,16.55h0c-1.24,0-2.28.89-2.48,2.11-.11.67.05,1.33.44,1.88.39.55.97.91,1.64,1.02.14.02.27.03.41.03,1.24,0,2.28-.89,2.48-2.11.23-1.37-.71-2.67-2.07-2.9-.14-.02-.27-.03-.41-.03h0Z"/>
          </g>
          <g>
            <g>
              <path class="st11" d="M45.96,36.17c-.62,0-1.25-.05-1.87-.15-6.23-1.03-10.46-6.93-9.44-13.16.92-5.56,5.67-9.59,11.29-9.59.62,0,1.25.05,1.87.15,6.23,1.03,10.47,6.93,9.44,13.16-.92,5.56-5.67,9.59-11.29,9.59ZM45.95,16.99c-3.8,0-7,2.72-7.61,6.47-.69,4.2,2.16,8.18,6.36,8.88.42.07.84.1,1.26.1h0c3.79,0,7-2.72,7.61-6.47.34-2.03-.14-4.08-1.35-5.75-1.2-1.68-2.98-2.79-5.02-3.12-.42-.07-.84-.1-1.26-.1Z"/>
              <path class="st10" d="M45.94,13.53c.6,0,1.21.05,1.82.15,6.08,1,10.22,6.77,9.21,12.85-.9,5.47-5.66,9.36-11.03,9.36-.6,0-1.21-.05-1.82-.15-6.08-1-10.22-6.77-9.21-12.85.9-5.47,5.65-9.36,11.03-9.36M45.95,32.71c3.84,0,7.24-2.79,7.88-6.7.72-4.35-2.24-8.47-6.59-9.19-.44-.07-.87-.11-1.3-.11-3.84,0-7.24,2.78-7.88,6.7-.72,4.35,2.24,8.47,6.59,9.19.44.07.87.11,1.3.11M45.95,12.99v.54-.54h0c-5.76,0-10.62,4.13-11.56,9.82-1.05,6.38,3.28,12.42,9.66,13.47.63.1,1.28.16,1.91.16,5.76,0,10.63-4.13,11.56-9.82,1.05-6.38-3.28-12.42-9.66-13.47-.63-.1-1.28-.16-1.91-.16h0ZM45.95,32.17c-.4,0-.81-.03-1.22-.1-4.05-.67-6.81-4.51-6.14-8.56.6-3.62,3.69-6.24,7.35-6.24.4,0,.81.03,1.22.1,1.96.32,3.68,1.39,4.84,3.01,1.16,1.62,1.62,3.59,1.3,5.55-.6,3.62-3.68,6.24-7.35,6.24h0Z"/>
            </g>
            <path class="st2" d="M35.92,23.06c.92-5.6,6.21-9.39,11.81-8.47"/>
          </g>
          <g>
            <path class="st12" d="M45.95,26.96c-.12,0-.25,0-.37-.03-1.22-.2-2.05-1.36-1.85-2.58.18-1.09,1.11-1.88,2.22-1.88.12,0,.24,0,.36.03,1.22.2,2.05,1.36,1.85,2.58-.18,1.09-1.11,1.88-2.21,1.88Z"/>
            <path class="st10" d="M45.95,22.74c.11,0,.21,0,.32.03,1.08.18,1.8,1.19,1.63,2.27-.16.97-1,1.65-1.94,1.65-.11,0-.21,0-.32-.03-1.08-.18-1.8-1.19-1.63-2.27.16-.97,1-1.65,1.95-1.65M45.95,22.2h0c-1.24,0-2.28.89-2.48,2.11-.22,1.37.71,2.67,2.08,2.89.14.02.27.03.41.03,1.24,0,2.28-.89,2.48-2.11.11-.66-.05-1.33-.44-1.88-.39-.55-.97-.91-1.64-1.02-.14-.02-.27-.03-.41-.03h0Z"/>
          </g>
          <g>
            <path class="st0" d="M45.95,25.92c-.07,0-.13,0-.2-.02l-.1-.02-14.78-3.75c-.23-.06-.44-.18-.6-.36l-11.41-12.78-6.16,10.69c-.21.37-.61.6-1.04.6-.06,0-.13,0-.19-.02-.14-.02-.28-.07-.4-.14-.58-.33-.77-1.07-.44-1.64L19.98,2.23c.21-.37.61-.6,1.04-.6.21,0,.42.06.6.16.28.16.48.42.56.73.08.31.04.63-.12.91l-1.18,2.04,18.98,3.13c.41.07.75.34.91.72l6.28,14.92c.18.42.1.9-.2,1.25-.23.26-.56.42-.91.42h0ZM43.91,22.96l-5.09-12.09-17.64-2.91,10.65,11.93,12.08,3.07Z"/>
            <path class="st10" d="M21.02,1.9c.16,0,.32.04.46.12.45.26.6.82.34,1.27l-1.38,2.38,19.37,3.19c.31.05.58.26.71.56l6.29,14.93c.14.32.08.7-.15.97-.18.21-.44.32-.7.32-.05,0-.1,0-.15-.01-.03,0-.05,0-.08-.02l-14.78-3.75c-.18-.05-.34-.14-.46-.28l-11.66-13.06-6.35,11.01c-.17.3-.48.46-.81.46-.05,0-.1,0-.15-.01-.11-.02-.21-.05-.31-.11-.44-.26-.6-.83-.34-1.27l7-12.14s0,0,0,0l2.36-4.09c.17-.3.48-.46.81-.46M44.37,23.35l-5.36-12.73-18.55-3.05,11.22,12.56,12.69,3.22M21.02,1.36c-.53,0-1.01.28-1.28.74l-2.36,4.09-.07.13h0s-6.93,12.02-6.93,12.02c-.4.7-.16,1.6.54,2.01.16.09.33.15.5.18.08.01.16.02.24.02.53,0,1.02-.28,1.28-.74l5.97-10.36,11.16,12.5c.2.22.45.38.74.45l14.78,3.75c.06.01.1.02.13.03.07.01.15.02.23.02.43,0,.84-.19,1.12-.51.37-.43.46-1.01.24-1.53l-6.29-14.93c-.19-.47-.61-.8-1.12-.88l-18.6-3.06.98-1.7c.2-.34.25-.74.15-1.12-.1-.38-.35-.7-.69-.89-.22-.13-.48-.2-.73-.2h0ZM31.97,19.65l-10.08-11.29,16.73,2.76,4.82,11.45-11.47-2.91h0Z"/>
          </g>
          <g>
            <path class="st9" d="M42.15,9.51c-.33,0-.72-.04-1.19-.11-1.9-.31-6.81-1.75-6.58-3.11.15-.89,2.26-1.07,4.01-1.07,1.13,0,2.3.09,3.22.24,1.19.2,1.87.48,2.18.92.3.42.22.89.14,1.35l-.04.26c-.11.71-.24,1.53-1.74,1.53Z"/>
            <path class="st10" d="M38.38,5.48c1.11,0,2.26.08,3.18.24,2.48.41,2.23,1.15,2.08,2.09-.13.77-.15,1.43-1.49,1.43-.31,0-.68-.03-1.15-.11-2.48-.41-6.51-1.86-6.36-2.8.1-.59,1.84-.84,3.74-.84M38.38,4.94h0c-4.07,0-4.23.98-4.28,1.3-.3,1.83,5.69,3.24,6.81,3.42.48.08.89.12,1.24.12,1.73,0,1.9-1.06,2.01-1.76l.02-.13.02-.13c.08-.49.18-1.05-.19-1.56-.36-.51-1.09-.83-2.36-1.03-.93-.15-2.12-.24-3.26-.24h0Z"/>
          </g>
          <g class="st3">
            <path class="st9" d="M43.29,6.27c-.01.2-.05.41-.09.63-.16.94-.16,1.72-2.64,1.31-1.89-.31-4.69-1.23-5.84-2.06-.05.05-.08.11-.08.18-.16.94,3.87,2.39,6.36,2.8,2.48.41,2.48-.38,2.64-1.32.1-.61.24-1.13-.35-1.54Z"/>
          </g>
          <g>
            <path class="st1" d="M31.14,24.63c-.19,0-.38-.01-.56-.05-1.88-.31-3.16-2.09-2.85-3.98.28-1.68,1.71-2.9,3.41-2.9.19,0,.37.01.56.05,1.88.31,3.16,2.09,2.85,3.98-.28,1.68-1.71,2.9-3.41,2.9Z"/>
            <path class="st10" d="M31.14,17.98c.17,0,.35.01.52.04,1.74.29,2.91,1.93,2.63,3.66-.26,1.56-1.61,2.67-3.14,2.67-.17,0-.35-.01-.52-.04-1.74-.29-2.91-1.93-2.63-3.66.26-1.56,1.61-2.67,3.14-2.67M31.14,17.43h0c-1.83,0-3.38,1.32-3.68,3.13-.33,2.03,1.05,3.95,3.07,4.29.2.03.41.05.61.05,1.83,0,3.38-1.31,3.68-3.13.33-2.03-1.04-3.95-3.07-4.29-.2-.03-.41-.05-.61-.05h0Z"/>
          </g>
          <path class="st8" d="M33.27,18.8c.4.63.58,1.41.45,2.21-.29,1.74-1.93,2.91-3.66,2.62-.63-.1-1.18-.38-1.62-.78.47.75,1.24,1.3,2.18,1.45,1.74.29,3.38-.89,3.66-2.63.18-1.11-.23-2.18-1.01-2.88Z"/>
          <g>
            <path class="st7" d="M30.36,26.79s-.1,0-.15-.01l-3.15-.52c-.25-.04-.46-.17-.61-.38s-.2-.45-.16-.7c.07-.45.46-.78.92-.78.05,0,.1,0,.15.01l2.22.37.51-3.11c.08-.46.47-.79.93-.79.05,0,.1,0,.15.01.51.09.86.57.77,1.08l-.67,4.04c-.07.45-.46.79-.92.79Z"/>
            <path class="st10" d="M31.03,21.16s.07,0,.11,0c.36.06.61.4.55.76l-.66,4.04c-.05.33-.34.56-.66.56-.04,0-.07,0-.11,0l-3.15-.52c-.36-.06-.61-.4-.55-.76.05-.32.33-.56.65-.56.04,0,.07,0,.11,0l2.49.41.56-3.38c.05-.33.34-.56.66-.56M31.03,20.61c-.59,0-1.1.43-1.19,1.01l-.47,2.85-1.95-.32c-.07-.01-.13-.02-.2-.02-.59,0-1.09.43-1.19,1.01-.05.32.02.64.21.9.19.26.47.43.79.49l3.14.52c.07.01.13.02.2.02.59,0,1.1-.43,1.19-1.01l.66-4.03c.11-.66-.34-1.28-.99-1.39-.07-.01-.13-.02-.2-.02h0Z"/>
          </g>
          <g class="st4">
            <path class="st7" d="M31.41,21.28c.05.12.07.24.05.38l-.67,4.04c-.06.36-.4.61-.76.55l-3.14-.52c-.1-.02-.2-.06-.28-.12.09.2.27.35.5.39l3.15.52c.36.06.7-.19.76-.55l.66-4.04c.04-.26-.07-.51-.27-.65Z"/>
          </g>
          <g class="st5">
            <path class="st11" d="M21.24,13.45c.75,1.84,1.02,3.9.67,5.99-1,6.05-6.73,10.16-12.77,9.16-3.39-.56-6.16-2.6-7.78-5.35,1.41,3.46,4.54,6.13,8.49,6.78,6.05,1,11.78-3.11,12.77-9.16.44-2.66-.11-5.26-1.38-7.42Z"/>
          </g>
          <g class="st5">
            <path class="st11" d="M55.59,19.11c.75,1.84,1.02,3.9.67,5.99-1,6.05-6.73,10.16-12.77,9.16-3.39-.56-6.16-2.6-7.78-5.35,1.41,3.46,4.54,6.13,8.49,6.78,6.05,1,11.78-3.11,12.77-9.16.44-2.66-.11-5.26-1.38-7.42Z"/>
          </g>
          <g>
            <path class="st9" d="M16.69,4.26c-.07,0-.13,0-.2-.02-.18-.03-.35-.1-.5-.21-.54-.39-.66-1.14-.28-1.68.99-1.38,2.09-2.08,3.26-2.08h.16c1.8.1,2.81,1.81,2.92,2.01.16.28.2.6.11.91-.09.31-.29.57-.57.72-.18.1-.38.16-.59.16-.43,0-.83-.23-1.04-.6-.15-.27-.6-.78-.97-.79h0c-.36,0-.85.4-1.33,1.08-.23.32-.59.5-.98.5Z"/>
            <path class="st10" d="M18.98.54s.09,0,.14,0c1.65.09,2.6,1.68,2.7,1.87.25.45.1,1.01-.35,1.27-.14.08-.3.12-.46.12-.32,0-.63-.17-.81-.47-.13-.23-.65-.9-1.19-.93-.01,0-.02,0-.03,0-.44,0-.98.42-1.54,1.19-.18.25-.47.39-.76.39-.05,0-.1,0-.15-.01-.14-.02-.27-.08-.39-.16-.42-.3-.51-.88-.21-1.3.94-1.31,1.96-1.97,3.04-1.97M18.98,0c-1.27,0-2.44.74-3.48,2.2-.47.66-.32,1.58.34,2.06.19.13.41.22.62.26.07.01.16.02.24.02.47,0,.92-.23,1.2-.62.55-.76.94-.97,1.09-.97.22.01.6.4.75.66.26.46.75.74,1.28.74.25,0,.51-.07.73-.19.34-.19.59-.51.69-.89.11-.38.06-.78-.14-1.12-.12-.21-1.21-2.04-3.15-2.14-.06,0-.11,0-.17,0h0Z"/>
          </g>
          <g class="st3">
            <path class="st9" d="M21.83,2.43c-.04.28-.2.54-.46.69-.45.25-1.01.1-1.26-.35-.14-.23-.65-.9-1.19-.93-.44-.02-1,.4-1.57,1.2-.21.3-.57.43-.91.38-.14-.02-.27-.07-.39-.16-.12-.08-.21-.19-.28-.31-.04.33.09.67.38.88.12.08.25.14.39.16.34.06.69-.08.91-.38.57-.79,1.12-1.21,1.57-1.19.54.03,1.05.7,1.19.93.25.44.82.6,1.26.35.44-.25.6-.81.36-1.25Z"/>
          </g>
        </g>
        <path class="st2" d="M1.52,17.4c.92-5.6,6.21-9.39,11.81-8.47"/>
        <path class="st2" d="M35.89,6.25s3.57-.36,6.03.21"/>
        <line class="st2" x1="30.65" y1="21.88" x2="30.14" y2="25"/>
        <path class="st2" d="M17.62,1.33s1.42-.98,2.68.17"/>
      </g>
    </g>
  </g>
</svg>