<?xml version="1.0" encoding="UTF-8"?>
<svg xmlns="http://www.w3.org/2000/svg" version="1.1" viewBox="0 0 43.51 32.58">
  <!-- Generator: Adobe Illustrator 30.3.0, SVG Export Plug-In . SVG Version: 2.1.3 Build 182)  -->
  <defs>
    <style>
      .st0 {
        stroke: #fff;
        stroke-dasharray: .77 .19 1.28;
        stroke-linecap: round;
        stroke-linejoin: round;
        stroke-width: .87px;
      }

      .st0, .st1 {
        fill: none;
      }

      .st2, .st3 {
        fill: #53c6e7;
      }

      .st3 {
        mix-blend-mode: multiply;
        opacity: .5;
      }

      .st4 {
        isolation: isolate;
      }

      .st5 {
        stroke-width: .68px;
      }

      .st5, .st6, .st1 {
        stroke: #4e2d17;
        stroke-miterlimit: 10;
      }

      .st5, .st7 {
        fill: #bb7c2b;
      }

      .st6 {
        fill: #e6e7e8;
      }

      .st6, .st1 {
        stroke-width: .48px;
      }

      .st8 {
        fill: #4e2d17;
      }

      .st9 {
        fill: #fbb040;
      }

      .st10 {
        fill: #28363a;
      }
    </style>
  </defs>
  <g class="st4">
    <g id="Layer_1">
      <g>
        <g>
          <g>
            <polygon class="st2" points="13.63 2.11 24.67 .37 27.58 5.59 12.48 7.98 13.63 2.11"/>
            <path class="st8" d="M24.49.74l2.56,4.59-14.14,2.23,1.02-5.15,10.57-1.67M24.85,0l-.47.07-10.57,1.67-.47.07-.09.46-1.02,5.15-.19.95.96-.15,14.14-2.23.96-.15-.47-.85L25.08.41l-.23-.41h0Z"/>
          </g>
          <g>
            <polygon class="st10" points="16.22 3.84 22.74 2.81 24.55 6.07 15.5 7.5 16.22 3.84"/>
            <path class="st8" d="M22.56,3.18l1.46,2.63-8.1,1.28.58-2.95,6.05-.96M22.92,2.44l-.47.07-6.05.96-.47.07-.09.46-.58,2.95-.19.95.96-.15,8.1-1.28.96-.15-.47-.85-1.46-2.63-.23-.41h0Z"/>
          </g>
          <path class="st5" d="M4.41,6.55h4.4c.37,0,.68.3.68.68v2.65c0,.37-.3.68-.68.68h-4.41c-.37,0-.68-.3-.68-.68v-2.65c0-.38.3-.68.68-.68Z" transform="translate(-1.25 1.14) rotate(-8.97)"/>
          <g>
            <path class="st2" d="M5.02,32.25c-.73,0-1.35-.54-1.46-1.29L.36,10.74c-.13-.83.41-1.6,1.21-1.73L38.27,3.22c.08-.01.15-.02.22-.02.73,0,1.35.54,1.46,1.29l3.19,20.22c.06.41-.03.82-.27,1.15-.23.31-.56.52-.94.58l-36.69,5.79c-.08.01-.15.02-.22.02Z"/>
            <path class="st8" d="M38.49,3.54c.55,0,1.04.42,1.13,1l3.19,20.22c.1.64-.32,1.24-.93,1.34L5.19,31.89c-.06,0-.11.01-.17.01-.55,0-1.04-.42-1.13-1L.69,10.68c-.1-.64.32-1.24.93-1.34L38.32,3.55c.06,0,.12-.01.17-.01M38.49,2.86c-.09,0-.18,0-.28.02L1.52,8.67c-.99.16-1.66,1.11-1.5,2.12l3.19,20.22c.14.91.9,1.57,1.8,1.57.09,0,.18,0,.28-.02l36.69-5.79c.47-.07.88-.33,1.16-.71.29-.4.41-.9.33-1.4l-3.19-20.22c-.14-.91-.9-1.57-1.8-1.57h0Z"/>
          </g>
          <path class="st3" d="M38.43,3.54l3.19,20.2c.11.67-.33,1.29-.97,1.39L3.89,30.93c.11.63.69,1.06,1.29.96l36.69-5.79c.62-.1,1.03-.7.93-1.34l-3.19-20.22c-.09-.6-.62-1.03-1.19-1Z"/>
          <g>
            <path class="st7" d="M21.64,29.55c-6.16,0-11.33-4.43-12.3-10.52-.52-3.29.27-6.58,2.23-9.28,1.96-2.69,4.85-4.46,8.14-4.98.65-.1,1.31-.16,1.96-.16,6.16,0,11.33,4.43,12.3,10.52,1.07,6.79-3.58,13.18-10.37,14.26-.65.1-1.31.16-1.96.16Z"/>
            <path class="st8" d="M21.67,5.05c5.82,0,10.93,4.23,11.87,10.16,1.04,6.56-3.44,12.72-10,13.76-.64.1-1.27.15-1.89.15-5.82,0-10.93-4.23-11.87-10.16-1.04-6.56,3.44-12.72,10-13.76.64-.1,1.27-.15,1.89-.15M21.67,4.18h0c-.68,0-1.36.05-2.03.16-3.4.54-6.4,2.37-8.42,5.16-2.03,2.79-2.85,6.2-2.31,9.6,1,6.31,6.35,10.89,12.73,10.89.67,0,1.36-.05,2.03-.16,7.03-1.11,11.84-7.73,10.73-14.76-1-6.31-6.35-10.89-12.73-10.89h0Z"/>
          </g>
          <g>
            <path class="st10" d="M21.64,27.01c-4.91,0-9.03-3.52-9.79-8.38-.85-5.4,2.85-10.5,8.25-11.35.52-.08,1.04-.12,1.56-.12,4.91,0,9.02,3.52,9.79,8.38.85,5.4-2.85,10.5-8.25,11.35-.52.08-1.04.12-1.56.12Z"/>
            <path class="st8" d="M21.66,7.69c4.54,0,8.54,3.3,9.27,7.93.81,5.13-2.69,9.94-7.82,10.75-.5.08-.99.12-1.48.12-4.55,0-8.54-3.3-9.27-7.93-.81-5.13,2.69-9.94,7.82-10.75.5-.08.99-.12,1.48-.12M21.66,6.64h0c-.55,0-1.1.04-1.64.13-5.69.9-9.59,6.26-8.69,11.95.81,5.11,5.14,8.82,10.31,8.82.55,0,1.1-.04,1.64-.13,5.69-.9,9.59-6.26,8.69-11.95-.81-5.11-5.14-8.82-10.31-8.82h0Z"/>
          </g>
          <path class="st6" d="M32.3,5.81h3.26c.26,0,.48.21.48.48v.96c0,.26-.21.48-.48.48h-3.26c-.26,0-.48-.21-.48-.48v-.96c0-.26.21-.48.48-.48Z" transform="translate(-.64 5.36) rotate(-8.95)"/>
          <path class="st9" d="M37.14,6.35c.02.16-.08.3-.24.33-.16.02-.3-.08-.33-.24-.03-.16.08-.3.24-.33.16-.03.3.08.33.24Z"/>
          <line class="st1" x1="31.85" y1="7.09" x2="36.02" y2="6.44"/>
        </g>
        <polyline class="st0" points="8.51 9.72 2.31 10.7 3.11 15.76"/>
        <path class="st0" d="M20.8,10.09c-1.86.08-3.62,1.75-4.61,3.21-1.06,1.56-1.28,3.69-.99,5.51"/>
      </g>
    </g>
  </g>
</svg>