<?xml version="1.0" encoding="UTF-8"?>
<svg xmlns="http://www.w3.org/2000/svg" version="1.1" viewBox="0 0 44.87 47.84">
  <!-- Generator: Adobe Illustrator 30.3.0, SVG Export Plug-In . SVG Version: 2.1.3 Build 182)  -->
  <defs>
    <style>
      .st0 {
        fill: #f1f2f2;
      }

      .st1 {
        stroke: #4e2d17;
        stroke-miterlimit: 10;
        stroke-width: 1.36px;
      }

      .st1, .st2 {
        fill: #e6e7e8;
      }

      .st3 {
        isolation: isolate;
      }

      .st4 {
        fill: #d1d3d4;
      }

      .st5 {
        fill: #4e2d17;
      }

      .st6 {
        mix-blend-mode: multiply;
        opacity: .5;
      }
    </style>
  </defs>
  <g class="st3">
    <g id="Layer_1">
      <g>
        <g>
          <path class="st2" d="M23.05,47.16c-3.69,0-7.28-.78-10.97-2.38l-.39-.17-.02-.42c-.17-3.29-.31-6.64-.42-9.96-.02,0-.04,0-.06,0-4.89,0-8.92-4.57-9.7-6.38-1.02-2.38-1.23-5.93.33-8.13,1.49-2.09,5.55-5.12,8.99-5.12.29,0,.57.02.84.07.05-2.05.54-7.03,3.83-10.49,2.21-2.33,5.25-3.5,9.04-3.5.67,0,1.38.04,2.09.11,4.1.42,7.18,2.08,9.17,4.92,3.63,5.17,2.51,12.65,2.05,14.92,1.74.49,6.22,2.1,6.34,5.91.06,1.81-.71,3.63-2.16,5.13-1.49,1.54-3.44,2.46-5.23,2.46h0c-.49,0-.95-.07-1.39-.21-.06-.02-.13-.04-.21-.06-.11,3.43-.25,6.91-.43,10.33l-.02.43-.4.16c-3.93,1.6-7.63,2.37-11.3,2.37Z"/>
          <path class="st5" d="M24.53,1.36c.64,0,1.31.04,2.02.11,15.02,1.55,10.49,19.66,10.49,19.66,0,0,6.34,1.29,6.47,5.43.11,3.66-3.61,6.89-6.71,6.89-.41,0-.81-.06-1.18-.17-.26-.08-.63-.16-1.07-.22-.11,3.7-.26,7.41-.45,11.11-3.73,1.51-7.38,2.32-11.05,2.32s-7.06-.74-10.7-2.32c-.18-3.55-.33-7.09-.44-10.63-.24.02-.48.04-.72.04-4.68,0-8.44-4.5-9.07-5.97-.93-2.17-1.17-5.46.26-7.47,1.47-2.06,5.38-4.84,8.44-4.84.54,0,1.06.09,1.52.28,0,0-.73-14.21,12.19-14.21M24.53,0c-3.99,0-7.19,1.25-9.54,3.71-3.09,3.26-3.82,7.78-3.98,10.21-.07,0-.13,0-.2,0-3.66,0-7.97,3.2-9.54,5.41-1.79,2.51-1.46,6.32-.4,8.79.82,1.92,4.73,6.43,9.72,6.77.11,3.11.24,6.25.4,9.33l.04.84.77.33c3.78,1.64,7.46,2.44,11.24,2.44s7.55-.79,11.56-2.42l.8-.33.04-.86c.16-3.15.3-6.34.4-9.51.31.05.62.08.94.08,1.96,0,4.1-1,5.71-2.66,1.58-1.63,2.41-3.63,2.35-5.62-.12-3.85-4.11-5.66-6.24-6.36.5-2.87,1.22-9.85-2.27-14.84C34.24,2.31,30.99.56,26.69.12c-.74-.08-1.47-.12-2.16-.12h0Z"/>
        </g>
        <g>
          <path class="st0" d="M23.05,47.16c-3.69,0-7.28-.78-10.97-2.38l-.39-.17-.02-.42c-.17-3.29-.31-6.64-.42-9.96-.02,0-.04,0-.06,0-4.89,0-8.92-4.57-9.7-6.38-1.02-2.38-1.23-5.93.33-8.13,1.49-2.09,5.55-5.12,8.99-5.12.29,0,.57.02.84.07.05-2.05.54-7.03,3.83-10.49,2.21-2.33,5.25-3.5,9.04-3.5.67,0,1.38.04,2.09.11,4.1.42,7.18,2.08,9.17,4.92,3.63,5.17,2.51,12.65,2.05,14.92,1.74.49,6.22,2.1,6.34,5.91.06,1.81-.71,3.63-2.16,5.13-1.49,1.54-3.44,2.46-5.23,2.46h0c-.49,0-.95-.07-1.39-.21-.06-.02-.13-.04-.21-.06-.11,3.43-.25,6.91-.43,10.33l-.02.43-.4.16c-3.93,1.6-7.63,2.37-11.3,2.37Z"/>
          <path class="st5" d="M24.53,1.36c.64,0,1.31.04,2.02.11,15.02,1.55,10.49,19.66,10.49,19.66,0,0,6.34,1.29,6.47,5.43.11,3.66-3.61,6.89-6.71,6.89-.41,0-.81-.06-1.18-.17-.26-.08-.63-.16-1.07-.22-.11,3.7-.26,7.41-.45,11.11-3.73,1.51-7.38,2.32-11.05,2.32s-7.06-.74-10.7-2.32c-.18-3.55-.33-7.09-.44-10.63-.24.02-.48.04-.72.04-4.68,0-8.44-4.5-9.07-5.97-.93-2.17-1.17-5.46.26-7.47,1.47-2.06,5.38-4.84,8.44-4.84.54,0,1.06.09,1.52.28,0,0-.73-14.21,12.19-14.21M24.53,0c-3.99,0-7.19,1.25-9.54,3.71-3.09,3.26-3.82,7.78-3.98,10.21-.07,0-.13,0-.2,0-3.66,0-7.97,3.2-9.54,5.41-1.79,2.51-1.46,6.32-.4,8.79.82,1.92,4.73,6.43,9.72,6.77.11,3.11.24,6.25.4,9.33l.04.84.77.33c3.78,1.64,7.46,2.44,11.24,2.44s7.55-.79,11.56-2.42l.8-.33.04-.86c.16-3.15.3-6.34.4-9.51.31.05.62.08.94.08,1.96,0,4.1-1,5.71-2.66,1.58-1.63,2.41-3.63,2.35-5.62-.12-3.85-4.11-5.66-6.24-6.36.5-2.87,1.22-9.85-2.27-14.84C34.24,2.31,30.99.56,26.69.12c-.74-.08-1.47-.12-2.16-.12h0Z"/>
        </g>
        <path class="st4" d="M24.86,32.79c.85-4.05-4.63-2.35-6.57-1-1.95,1.47-4.18,2.11-6.34,2.97.05,1.41.05,1.6.11,3.01,2.96-2.33,5.93-3.81,9.69-4.75.97-.19,2.92.73,3.11-.23Z"/>
        <path class="st5" d="M12.32,14.51s.03.12.08.32c.05.21.15.51.27.87.26.71.68,1.64,1.27,2.48.3.41.62.81.98,1.13.18.15.35.33.53.45.18.12.35.26.52.35.34.19.64.33.87.39.22.08.35.12.35.12,0,0-.13-.02-.37-.05-.24-.02-.57-.09-.96-.21-.2-.05-.4-.16-.62-.25-.23-.08-.43-.23-.66-.35-.45-.27-.89-.62-1.3-1-.82-.77-1.49-1.69-1.93-2.41-.22-.36-.39-.67-.51-.9-.11-.23-.18-.37-.18-.37-.21-.44-.03-.96.41-1.17.44-.21.96-.03,1.17.41.03.05.05.11.06.16v.04Z"/>
        <path class="st5" d="M11.5,33.48s.22.01.59.04c.15-.01.31,0,.54-.03.24-.03.51-.06.81-.13.6-.12,1.3-.32,2.03-.61.71-.29,1.52-.69,2.28-1.06.78-.38,1.57-.78,2.34-1.1.77-.32,1.55-.52,2.23-.52.34,0,.65.03.91.1.27.05.48.15.66.22.35.16.54.27.54.27,0,0-.2-.08-.56-.2-.19-.04-.4-.11-.66-.13-.26-.04-.55-.03-.86.01-1.27.15-2.71,1.15-4.16,2.11-.74.49-1.45.96-2.21,1.38-.75.41-1.48.72-2.15.95-.33.12-.65.2-.93.27-.29.07-.59.1-.82.14-.38.02-.6.04-.6.04-.48.03-.9-.34-.93-.82-.03-.48.34-.9.82-.93.04,0,.07,0,.1,0h.02Z"/>
        <g>
          <path class="st2" d="M23.05,47.16c-3.69,0-7.28-.78-10.97-2.38l-.39-.17-.19-3.96.97.37c3.6,1.38,7.09,2.05,10.68,2.05s7.08-.65,10.84-2l.96-.34-.19,3.89-.4.16c-3.93,1.6-7.63,2.37-11.3,2.37Z"/>
          <path class="st5" d="M12.22,41.66c3.71,1.42,7.33,2.1,10.93,2.1s7.35-.71,11.07-2.04c-.04.81-.08,1.63-.12,2.44-3.73,1.51-7.38,2.32-11.05,2.32s-7.06-.74-10.7-2.32c-.04-.83-.08-1.67-.12-2.5M10.77,39.65l.1,2.08c.04.84.08,1.67.12,2.51l.04.84.77.33c3.78,1.64,7.46,2.44,11.24,2.44s7.55-.79,11.56-2.42l.8-.33.04-.86c.04-.82.08-1.63.12-2.45l.1-2.03-1.91.68c-3.68,1.32-7.15,1.96-10.61,1.96s-6.92-.66-10.44-2l-1.94-.74h0Z"/>
        </g>
        <g>
          <line class="st1" x1="14.34" y1="41.89" x2="14.34" y2="45.38"/>
          <line class="st1" x1="17.19" y1="42.76" x2="17.19" y2="46.25"/>
          <line class="st1" x1="20.04" y1="43.25" x2="20.04" y2="46.74"/>
          <line class="st1" x1="22.88" y1="43.44" x2="22.88" y2="46.93"/>
          <line class="st1" x1="25.73" y1="43.25" x2="25.73" y2="46.74"/>
          <line class="st1" x1="28.58" y1="42.86" x2="28.58" y2="46.35"/>
          <line class="st1" x1="31.43" y1="42.08" x2="31.43" y2="45.57"/>
        </g>
        <g class="st6">
          <path class="st4" d="M37.04,21.13s.74-2.96.63-6.59c-.27.37-.53.76-.76,1.16-.39.58-.78,1.16-1.16,1.55-2.13,2.52-6.98,4.85-5.63,7.95.97,1.94,4.27.2,6.6.97,0,0,0,.78.39.97-2.52,2.72-7.76,2.52-7.76,6.4,0,5.49-2.6,10.36-6.75,12.94,3.83.07,7.62-.74,11.5-2.32.19-3.71.34-7.41.45-11.11.44.07.8.14,1.07.22,3.23,1.02,8.02-2.57,7.89-6.71-.13-4.14-6.47-5.43-6.47-5.43Z"/>
        </g>
        <path class="st5" d="M38.23,21.46s-.07.04-.21.12c-.12.07-.3.17-.52.31-.44.27-1,.66-1.55,1.07-.27.21-.53.44-.78.64-.23.23-.45.44-.63.62-.32.4-.54.69-.54.69,0,0,.11-.33.31-.83.13-.24.27-.52.43-.82.18-.28.37-.6.57-.89.42-.59.86-1.17,1.22-1.58.17-.21.33-.38.44-.51.11-.12.17-.18.17-.18.33-.36.89-.39,1.25-.06s.39.89.06,1.25c-.06.07-.13.13-.21.17h-.01Z"/>
      </g>
    </g>
  </g>
</svg>