<?xml version="1.0" encoding="UTF-8"?>
<svg xmlns="http://www.w3.org/2000/svg" version="1.1" viewBox="0 0 54.67 51.17">
  <!-- Generator: Adobe Illustrator 30.3.0, SVG Export Plug-In . SVG Version: 2.1.3 Build 182)  -->
  <defs>
    <style>
      .st0 {
        fill: #f9a868;
        stroke: #6b4726;
        stroke-width: .35px;
      }

      .st0, .st1 {
        stroke-linecap: round;
        stroke-linejoin: round;
      }

      .st2 {
        fill: #ba7d4f;
      }

      .st3 {
        fill: #a97c50;
      }

      .st4 {
        isolation: isolate;
      }

      .st5 {
        fill: #d1d3d4;
      }

      .st6, .st7, .st8 {
        mix-blend-mode: multiply;
      }

      .st9 {
        fill: #bb7c2b;
      }

      .st10 {
        fill: #3f2400;
      }

      .st11 {
        fill: #4e2d17;
      }

      .st1 {
        fill: #805634;
        stroke: #4e2d17;
        stroke-width: .68px;
      }

      .st7 {
        opacity: .3;
      }

      .st8 {
        opacity: .5;
      }
    </style>
  </defs>
  <g class="st4">
    <g id="Layer_1">
      <g>
        <g>
          <g>
            <rect class="st5" x="49.62" y="7.91" width="1.34" height="2.87" transform="translate(6.68 36.08) rotate(-42.04)"/>
            <path class="st11" d="M49.8,8.15l1.62,1.79-.66.6-1.62-1.79.66-.59M49.83,7.52l-.33.3-.66.59-.34.3.3.34,1.62,1.79.3.33.33-.3.66-.6.33-.3-.3-.33-1.62-1.79-.3-.33h0Z"/>
          </g>
          <g>
            <rect class="st5" x="51.6" y="6.12" width="1.34" height="2.87" transform="translate(8.48 37.07) rotate(-42.21)"/>
            <path class="st11" d="M51.78,6.36l1.62,1.79-.66.59-1.62-1.79.66-.6M51.82,5.72l-.33.3-.66.6-.33.3.3.33,1.62,1.79.3.33.34-.3.66-.59.33-.3-.3-.33-1.62-1.79-.3-.33h0Z"/>
          </g>
          <g>
            <rect class="st5" x="47.68" y="9.69" width="1.28" height="2.87" transform="translate(5.03 35.3) rotate(-42.14)"/>
            <path class="st11" d="M47.82,9.94l1.62,1.79-.62.56-1.62-1.79.62-.56M47.85,9.31l-.33.3-.62.56-.33.3.3.34,1.62,1.79.3.33.33-.3.62-.56.33-.3-.3-.33-1.62-1.79-.3-.34h0Z"/>
          </g>
          <g class="st6">
            <polygon class="st5" points="52.93 8.59 51.31 6.79 51.13 6.96 52.75 8.75 52.93 8.59"/>
          </g>
          <g class="st6">
            <polygon class="st5" points="50.94 10.38 49.32 8.59 49.14 8.75 50.77 10.54 50.94 10.38"/>
          </g>
          <g class="st6">
            <polygon class="st5" points="48.96 12.17 47.34 10.38 47.16 10.54 48.78 12.33 48.96 12.17"/>
          </g>
          <g>
            <rect class="st5" x="43.08" y="4.59" width="1.28" height="2.87" transform="translate(7.22 30.85) rotate(-42.06)"/>
            <path class="st11" d="M43.22,4.85l1.62,1.79-.62.56-1.62-1.79.62-.56M43.25,4.22l-.34.3-.62.56-.33.3.3.33,1.62,1.79.3.33.33-.3.62-.56.33-.3-.3-.33-1.62-1.79-.3-.33h0Z"/>
          </g>
          <g class="st6">
            <polygon class="st5" points="44.4 7.04 42.78 5.25 42.6 5.41 44.23 7.21 44.4 7.04"/>
          </g>
          <g>
            <rect class="st5" x="45.01" y="2.82" width="1.34" height="2.87" transform="translate(8.99 31.8) rotate(-42.21)"/>
            <path class="st11" d="M45.2,3.06l1.62,1.79-.66.6-1.62-1.79.66-.6M45.23,2.42l-.33.3-.66.6-.33.3.3.33,1.62,1.79.3.33.33-.3.66-.6.33-.3-.3-.33-1.62-1.8-.3-.33h0Z"/>
          </g>
          <g>
            <rect class="st5" x="47" y="1.03" width="1.34" height="2.87" transform="translate(10.67 32.62) rotate(-42.15)"/>
            <path class="st11" d="M47.18,1.27l1.62,1.79-.66.6-1.62-1.79.66-.6M47.22.63l-.34.3-.66.6-.33.3.3.34,1.62,1.79.3.34.33-.3.66-.6.33-.3-.3-.34-1.62-1.79-.3-.33h0Z"/>
          </g>
          <g class="st6">
            <polygon class="st5" points="46.34 5.29 44.72 3.5 44.54 3.66 46.16 5.45 46.34 5.29"/>
          </g>
          <g class="st6">
            <polygon class="st5" points="48.33 3.5 46.7 1.7 46.52 1.87 48.15 3.66 48.33 3.5"/>
          </g>
          <g>
            <path class="st2" d="M23.23,32.61c-.12,0-.24-.06-.32-.15l-3.19-3.53c-.08-.09-.12-.21-.12-.33,0-.12.06-.23.16-.31L44.72,6.96c.08-.07.19-.11.29-.11.12,0,.25.05.34.15l1.97,2.18c.16.18.15.46-.02.63l-23.74,22.68c-.08.08-.2.12-.31.12h-.02Z"/>
            <path class="st11" d="M45.01,7.3l1.97,2.18-23.74,22.68-3.19-3.53L45.01,7.3M45.01,6.4c-.21,0-.42.07-.59.22l-24.96,21.33c-.18.16-.3.38-.31.63-.02.24.07.48.23.66l3.19,3.53c.16.18.39.29.64.3h.03c.23,0,.46-.09.62-.25l23.74-22.68c.35-.34.37-.89.05-1.26l-1.97-2.18c-.18-.2-.42-.3-.67-.3h0Z"/>
          </g>
          <g>
            <path class="st9" d="M12.46,50.75c-3.18,0-6.36-1.51-8.74-4.14-1.99-2.2-3.15-4.92-3.28-7.64-.12-2.76.83-5.2,2.68-6.87.8-.72,2.19-1.28,3.53-1.82,1.21-.48,2.45-.98,3.06-1.53.65-.58,1.16-1.18,1.71-1.8.57-.65,1.15-1.33,1.91-2.01,1.84-1.67,4-2.55,6.24-2.55,2.6,0,5.06,1.2,7.12,3.48,3.87,4.28,3.7,9.66-.42,13.38-.76.69-1.49,1.2-2.2,1.7-.68.48-1.32.93-1.97,1.52-.61.55-1.23,1.74-1.83,2.89-.67,1.28-1.37,2.61-2.17,3.33-1.51,1.36-3.46,2.08-5.64,2.08h0Z"/>
            <path class="st11" d="M19.56,22.8c2.33,0,4.73,1.04,6.8,3.34,3.98,4.4,3.24,9.5-.39,12.78-1.46,1.31-2.81,1.99-4.16,3.21-1.35,1.22-2.54,4.9-4,6.22-1.47,1.33-3.36,1.97-5.35,1.97-2.92,0-6.06-1.38-8.43-4C.05,41.92-.23,35.69,3.4,32.41c1.46-1.32,5.24-2.13,6.59-3.35,1.35-1.22,2.16-2.5,3.62-3.82,1.74-1.57,3.82-2.44,5.95-2.44M19.56,21.95c-2.31,0-4.63.94-6.52,2.66-.78.7-1.37,1.39-1.95,2.05-.54.62-1.04,1.2-1.67,1.77-.55.5-1.76.99-2.93,1.46-1.38.55-2.8,1.13-3.66,1.9C.88,33.54-.12,36.1.01,38.98c.13,2.82,1.33,5.63,3.39,7.91,2.46,2.72,5.76,4.28,9.06,4.28,2.29,0,4.33-.76,5.92-2.19.85-.77,1.57-2.13,2.26-3.45.58-1.12,1.19-2.27,1.74-2.77.63-.57,1.26-1.01,1.93-1.48.72-.5,1.46-1.03,2.24-1.73,4.31-3.9,4.49-9.51.45-13.98-2.14-2.37-4.71-3.62-7.43-3.62h0Z"/>
          </g>
          <g class="st8">
            <path class="st9" d="M29.02,32.01c-.4,1.76-1.4,3.39-2.87,4.73-1.46,1.31-2.81,1.99-4.16,3.21-1.35,1.22-2.54,4.9-4,6.22-3.63,3.28-9.8,2.38-13.78-2.03-2.03-2.24-3.09-4.96-3.17-7.52-.64,3.12.37,6.8,2.99,9.7,3.98,4.4,10.15,5.31,13.78,2.03,1.46-1.32,2.65-5,4-6.22,1.35-1.22,2.71-1.9,4.16-3.21,2.07-1.87,3.2-4.33,3.05-6.91Z"/>
          </g>
          <g>
            <path class="st10" d="M18.65,37.45c-1.23,0-2.4-.52-3.22-1.43-1.61-1.78-1.47-4.53.31-6.13.8-.72,1.83-1.12,2.91-1.12,1.23,0,2.4.52,3.22,1.43.78.86,1.17,1.97,1.12,3.13-.06,1.16-.56,2.22-1.42,3-.8.72-1.83,1.12-2.91,1.12Z"/>
            <path class="st11" d="M18.65,29.21c1.06,0,2.12.43,2.89,1.28,1.44,1.59,1.32,4.05-.28,5.49-.74.67-1.68,1-2.61,1-1.06,0-2.12-.43-2.89-1.28-1.44-1.6-1.32-4.06.28-5.5.74-.67,1.68-1,2.61-1M18.65,28.31h0c-1.19,0-2.33.44-3.21,1.24-1.96,1.77-2.11,4.81-.34,6.77.91,1,2.2,1.58,3.56,1.58,1.19,0,2.33-.44,3.21-1.24.95-.86,1.51-2.03,1.57-3.31.06-1.28-.37-2.51-1.23-3.46-.91-1-2.2-1.58-3.56-1.58h0Z"/>
          </g>
          <line class="st0" x1="44.94" y1="10.5" x2="12.35" y2="42"/>
          <line class="st0" x1="44.52" y1="10.04" x2="11.29" y2="40.83"/>
          <line class="st0" x1="43.78" y1="9.23" x2="9.16" y2="38.48"/>
          <line class="st0" x1="44.16" y1="9.64" x2="10.25" y2="39.68"/>
          <g>
            <path class="st9" d="M45.89,11.85c-.37,0-.72-.16-.97-.43l-2.05-2.27c-.23-.26-.35-.59-.33-.94.02-.35.17-.67.43-.9l5.6-5.07c.24-.21.55-.33.87-.33.37,0,.72.16.97.43l2.05,2.27c.23.26.35.59.33.94-.02.35-.17.67-.43.9l-5.6,5.07c-.24.22-.55.33-.87.33Z"/>
            <path class="st11" d="M49.44,2.36c.23,0,.46.09.63.28l2.05,2.27c.31.35.29.89-.06,1.2l-5.6,5.07c-.16.15-.37.22-.57.22-.23,0-.46-.09-.63-.28l-2.05-2.27c-.31-.35-.29-.89.06-1.2l5.6-5.07c.16-.15.37-.22.57-.22M49.44,1.46h0c-.44,0-.85.16-1.17.45l-5.6,5.07c-.35.31-.55.74-.57,1.21-.02.47.14.92.45,1.26l2.05,2.27c.33.37.81.58,1.3.58.44,0,.85-.16,1.17-.45l5.6-5.07c.35-.31.55-.74.57-1.21.02-.47-.14-.92-.45-1.26l-2.05-2.27c-.33-.37-.81-.58-1.3-.58h0Z"/>
          </g>
          <g>
            <path class="st9" d="M45.89,11.85c-.37,0-.72-.16-.97-.43l-2.05-2.27c-.23-.26-.35-.59-.33-.94.02-.35.17-.67.43-.9l5.6-5.07c.24-.21.55-.33.87-.33.37,0,.72.16.97.43l2.05,2.27c.23.26.35.59.33.94-.02.35-.17.67-.43.9l-5.6,5.07c-.24.22-.55.33-.87.33Z"/>
            <path class="st11" d="M49.44,2.36c.23,0,.46.09.63.28l2.05,2.27c.31.35.29.89-.06,1.2l-5.6,5.07c-.16.15-.37.22-.57.22-.23,0-.46-.09-.63-.28l-2.05-2.27c-.31-.35-.29-.89.06-1.2l5.6-5.07c.16-.15.37-.22.57-.22M49.44,1.46h0c-.44,0-.85.16-1.17.45l-5.6,5.07c-.35.31-.55.74-.57,1.21-.02.47.14.92.45,1.26l2.05,2.27c.33.37.81.58,1.3.58.44,0,.85-.16,1.17-.45l5.6-5.07c.35-.31.55-.74.57-1.21.02-.47-.14-.92-.45-1.26l-2.05-2.27c-.33-.37-.81-.58-1.3-.58h0Z"/>
          </g>
          <g class="st7">
            <path class="st9" d="M52.28,5.16s-.06.06-.09.09l-5.6,5.07c-.35.31-.89.29-1.2-.06l-2.05-2.27c-.07-.08-.12-.16-.15-.25-.26.32-.26.79.03,1.11l2.05,2.27c.31.35.85.37,1.2.06l5.6-5.07c.27-.24.35-.63.21-.95Z"/>
          </g>
          <g>
            <path class="st3" d="M44.73,8.74c-.07,0-.23-.07-.28-.13l-.13-.15s-.1-.21-.1-.28c0-.1.05-.19.12-.25l3.4-3.08s.19-.1.25-.1c.11,0,.21.04.28.12l.14.15s.1.2.1.27c0,.07-.07.21-.12.26l-3.41,3.08s-.19.1-.25.1Z"/>
            <path class="st11" d="M48,5.01s.07.01.09.04l.14.15s.04.12,0,.17l-3.41,3.08s-.05.03-.08.03c-.03,0-.07-.01-.09-.04l-.14-.15c-.04-.05-.04-.13,0-.17l3.41-3.08s.05-.03.08-.03M48,4.51c-.16,0-.31.06-.42.16l-3.4,3.08c-.12.11-.19.26-.2.42-.01.17.05.33.16.46l.14.16c.11.13.28.21.46.21.16,0,.31-.06.42-.17l3.4-3.08c.13-.12.2-.27.21-.43,0-.17-.05-.33-.16-.45l-.13-.15c-.12-.13-.29-.21-.46-.21h0Z"/>
          </g>
          <g>
            <path class="st3" d="M45.97,10.18c-.07,0-.23-.07-.28-.12l-.14-.15c-.14-.15-.13-.39.02-.53l3.41-3.08s.19-.1.25-.1c.11,0,.21.05.28.13l.13.15s.1.2.1.27c0,.1-.05.19-.12.26l-3.4,3.08s-.19.1-.25.1Z"/>
            <path class="st11" d="M49.23,6.45s.07.01.09.04l.14.15s.04.13,0,.17l-3.41,3.08s-.05.03-.08.03c-.03,0-.07-.01-.09-.04l-.14-.15s-.04-.12,0-.17l3.41-3.08s.05-.03.08-.03M49.23,5.94h0c-.16,0-.31.06-.42.16l-3.4,3.08c-.26.23-.27.63-.05.88l.14.16c.12.13.29.21.46.21.16,0,.31-.06.42-.17l3.4-3.08c.12-.1.2-.26.2-.43,0-.17-.05-.33-.16-.46l-.14-.15c-.11-.13-.28-.21-.46-.21h0Z"/>
          </g>
          <g>
            <path class="st5" d="M50.78,11.59c-.14,0-.27-.06-.36-.16l-.3-.33c-.09-.1-.13-.22-.12-.35,0-.13.06-.25.16-.34l1.2-1.08c.09-.08.21-.12.33-.12.14,0,.27.06.36.16l.3.33c.18.2.16.5-.03.68l-1.2,1.08c-.09.08-.21.13-.33.13Z"/>
            <path class="st11" d="M51.68,9.43c.07,0,.14.03.19.09l.3.33c.1.11.09.27-.02.37l-1.2,1.08s-.11.07-.17.07c-.07,0-.14-.03-.19-.08l-.3-.33c-.1-.11-.09-.27.02-.37l1.2-1.08s.11-.07.17-.07M51.68,8.98c-.18,0-.35.06-.48.18l-1.2,1.09c-.14.13-.22.3-.23.49,0,.19.05.37.18.51l.3.33c.13.15.33.23.53.23.18,0,.35-.07.48-.18l1.2-1.08c.29-.27.31-.72.05-1l-.3-.33c-.13-.15-.33-.23-.53-.23h0Z"/>
          </g>
          <g>
            <path class="st5" d="M52.76,9.8c-.14,0-.27-.06-.36-.16l-.3-.33c-.18-.2-.16-.51.03-.69l1.2-1.08c.09-.08.21-.13.33-.13.14,0,.27.06.36.16l.3.33c.18.2.16.51-.03.69l-1.2,1.08c-.09.08-.21.13-.33.13Z"/>
            <path class="st11" d="M53.66,7.64c.07,0,.14.03.19.08l.3.33c.1.11.09.27-.02.37l-1.2,1.08s-.11.07-.17.07c-.07,0-.14-.03-.19-.08l-.3-.33c-.1-.11-.09-.27.02-.37l1.2-1.08s.11-.07.17-.07M53.66,7.18c-.18,0-.35.07-.48.18l-1.2,1.08c-.29.26-.31.71-.05,1l.3.33c.14.15.33.23.53.23.18,0,.35-.07.48-.18l1.2-1.08c.29-.26.31-.71.05-1l-.3-.34c-.13-.15-.33-.23-.53-.23h0Z"/>
          </g>
          <g>
            <path class="st5" d="M48.8,13.38c-.14,0-.27-.06-.36-.16l-.3-.33c-.09-.1-.13-.22-.12-.35,0-.13.06-.25.16-.34l1.2-1.08c.09-.08.2-.12.32-.12.14,0,.27.06.36.16l.3.33c.09.09.13.22.12.35,0,.13-.06.25-.16.34l-1.2,1.08c-.09.08-.21.12-.33.12Z"/>
            <path class="st11" d="M49.7,11.22c.07,0,.14.03.19.09l.3.33c.1.11.09.27-.02.37l-1.2,1.08s-.11.07-.17.07c-.07,0-.14-.03-.19-.09l-.3-.33c-.1-.11-.09-.27.02-.37l1.2-1.08s.11-.07.17-.07M49.7,10.77c-.18,0-.35.07-.48.18l-1.2,1.08c-.14.13-.22.3-.23.49,0,.19.06.37.18.51l.3.33c.13.15.33.23.53.23.18,0,.35-.06.48-.18l1.2-1.09c.14-.13.22-.3.23-.49,0-.19-.06-.37-.19-.51l-.3-.33c-.14-.15-.33-.23-.53-.23h0Z"/>
          </g>
          <g>
            <path class="st5" d="M42.31,6.19c-.14,0-.27-.06-.36-.16l-.3-.33c-.09-.1-.13-.22-.12-.35,0-.13.06-.25.16-.34l1.2-1.08c.09-.08.2-.12.32-.12.14,0,.27.06.36.16l.3.33c.09.1.13.22.12.35,0,.13-.06.25-.16.34l-1.2,1.08c-.09.08-.2.13-.33.13Z"/>
            <path class="st11" d="M43.2,4.03c.07,0,.14.03.19.09l.3.33c.1.11.09.27-.02.37l-1.2,1.08s-.11.07-.17.07c-.07,0-.14-.03-.19-.08l-.3-.33c-.1-.11-.09-.27.02-.37l1.2-1.08s.11-.07.17-.07M43.2,3.58c-.18,0-.35.07-.48.18l-1.2,1.08c-.14.13-.22.3-.23.49,0,.19.06.37.18.51l.3.33c.14.15.33.23.53.23.18,0,.35-.07.48-.19l1.19-1.08c.14-.13.22-.3.23-.49,0-.19-.06-.37-.18-.51l-.3-.33c-.14-.15-.33-.23-.53-.23h0Z"/>
          </g>
          <g>
            <path class="st5" d="M46.27,2.61c-.14,0-.27-.06-.36-.16l-.3-.33c-.18-.2-.16-.51.03-.69l1.2-1.08c.09-.08.2-.13.33-.13.14,0,.27.06.36.16l.3.33c.09.1.13.22.12.35,0,.13-.06.25-.16.34l-1.2,1.08c-.09.08-.21.13-.33.13Z"/>
            <path class="st11" d="M47.17.45c.07,0,.14.03.19.08l.3.33c.1.11.09.27-.02.37l-1.2,1.08s-.11.07-.18.07c-.07,0-.14-.03-.19-.08l-.3-.33c-.1-.11-.09-.27.02-.37l1.2-1.08s.11-.07.17-.07M47.17,0c-.18,0-.35.07-.48.18l-1.2,1.08c-.29.26-.31.71-.05,1l.3.33c.13.15.33.23.53.23.18,0,.35-.07.48-.18l1.2-1.09c.14-.13.22-.3.23-.49,0-.19-.05-.37-.18-.51l-.3-.33c-.13-.15-.33-.23-.53-.23h0Z"/>
          </g>
          <g>
            <path class="st5" d="M44.29,4.4c-.14,0-.27-.06-.36-.16l-.3-.33c-.18-.2-.16-.51.03-.69l1.2-1.08c.09-.08.21-.12.33-.12.14,0,.27.06.36.16l.3.33c.18.19.16.5-.03.68l-1.2,1.08c-.09.08-.21.13-.33.13Z"/>
            <path class="st11" d="M45.19,2.24c.07,0,.14.03.19.09l.3.33c.1.11.09.27-.02.37l-1.2,1.08s-.11.07-.17.07c-.07,0-.14-.03-.19-.08l-.3-.33c-.1-.11-.09-.27.02-.37l1.2-1.08s.11-.07.17-.07M45.19,1.79c-.18,0-.34.06-.48.18l-1.2,1.08c-.29.26-.31.71-.05,1l.3.34c.14.15.33.23.53.23.18,0,.35-.07.48-.18l1.2-1.08c.29-.27.31-.72.05-1.01l-.3-.33c-.13-.15-.33-.23-.53-.23h0Z"/>
          </g>
          <g>
            <path class="st5" d="M12.04,44.14s-.1-.02-.14-.06l-4.86-5.37c-.07-.07-.06-.19.01-.26l.98-.88s.08-.05.12-.05h0s.09.02.13.06l4.86,5.37c.07.07.06.19-.01.26l-.98.88s-.08.05-.12.05Z"/>
            <path class="st11" d="M8.16,37.71l4.86,5.37-.98.88-4.86-5.37.98-.88M8.16,37.34c-.09,0-.18.03-.24.09l-.98.88c-.15.13-.16.36-.03.51l4.86,5.37c.07.08.17.12.27.12.09,0,.17-.03.24-.09l.98-.88c.15-.13.16-.36.03-.51l-4.86-5.37c-.06-.07-.16-.11-.25-.12,0,0-.01,0-.02,0h0Z"/>
          </g>
        </g>
        <line class="st1" x1="31.29" y1="19.03" x2="33.95" y2="21.93"/>
        <line class="st1" x1="34.64" y1="16" x2="37.3" y2="18.9"/>
        <line class="st1" x1="38.28" y1="12.71" x2="40.94" y2="15.61"/>
      </g>
    </g>
  </g>
</svg>