<?xml version="1.0" encoding="UTF-8"?>
<svg id="Layer_1" xmlns="http://www.w3.org/2000/svg" version="1.1" viewBox="0 0 54.44 37.83">
  <!-- Generator: Adobe Illustrator 30.3.0, SVG Export Plug-In . SVG Version: 2.1.3 Build 182)  -->
  <defs>
    <style>
      .st0 {
        fill: #bc3226;
      }

      .st1 {
        fill: #fbdb00;
      }

      .st2 {
        fill: #f7b718;
      }

      .st3 {
        fill: #f49620;
      }

      .st4 {
        fill: #f27428;
      }

      .st5 {
        fill: #ee5335;
      }

      .st6 {
        fill: #48a4c9;
      }

      .st7 {
        fill: #a3d6ce;
      }
    </style>
  </defs>
  <g>
    <path class="st2" d="M38.82,16.93h-.01c-.37,0-.66-.3-.66-.68v-1.06c0-.37.3-.68.66-.68h.01c.37,0,.66.3.66.68v1.06c0,.37-.3.68-.66.68Z"/>
    <path class="st2" d="M33.18,16.43h-.01c-.37,0-.67-.3-.67-.68l-.17-1.59c0-.37.3-.68.67-.68h.01c.37,0,.66.3.66.68l.17,1.59c0,.37-.3.68-.67.68Z"/>
    <path class="st2" d="M28.64,14.9h-.01c-.35-.11-.55-.49-.45-.84l.48-2.19c.1-.36.47-.56.83-.46h.01c.35.11.55.49.45.85l-.48,2.19c-.1.36-.47.56-.83.46Z"/>
    <path class="st2" d="M24.99,12.39h0c-.29-.24-.34-.66-.12-.96l1.57-2.32c.22-.3.64-.35.93-.12h.01c.29.24.34.66.12.96l-1.57,2.32c-.22.3-.64.35-.93.12Z"/>
    <path class="st2" d="M23.63,7.7h0c-.17-.34-.04-.75.29-.92l1.48-.74c.33-.17.73-.04.9.29h0c.17.35.04.75-.29.92l-1.48.74c-.33.17-.73.04-.89-.29Z"/>
    <g>
      <path class="st3" d="M51.01,19.62c2.93,3.29,3.79,7.98,2.46,12.21l-.33,1.04-23.09.84-11.35-1.75.21-1.36s-.55-9.47-5.99-15.67c-2.33-2.67-10.97-3.27-10.97-3.27v-6.21l11.11.07c2.97.02,5.35-2.44,5.29-5.45V.01h0s1.06-.01,1.06-.01h3.14c.09,0,.17,0,.25.01v9.73c0,.86.32,1.68.9,2.3,1.56,1.64,4.78,4.74,7.24,4.97,2.21.21,6.62.59,9.37.83,1.45.12,1.79-.72,2.47-2.03l.98.05s.04,0,.07,0c2.79.28,5.3,1.66,7.17,3.76Z"/>
      <path class="st3" d="M43.78,15.87l-.98-.05c.33,0,.65.01.98.05Z"/>
      <path class="st4" d="M42.8,15.81c-.68,1.31-1.03,2.15-2.47,2.03-2.75-.24-7.16-.62-9.37-.83-2.45-.23-5.68-3.34-7.24-4.97-.58-.62-.9-1.44-.9-2.3V.01c1.18.14,2.11,1.27,2.11,2.64v.12c0,5.46,4.12,10.43,8.83,11.69,3.76,1.01,9.05,1.35,9.05,1.35Z"/>
      <path class="st4" d="M18.91,30.6L1.95,11.66s8.64.6,10.97,3.27c5.43,6.2,5.99,15.67,5.99,15.67Z"/>
      <polygon class="st4" points="1.95 11.66 18.91 30.6 18.71 31.96 .52 29.16 1.95 11.66"/>
      <path class="st4" d="M18.36.07c.06,3.01-2.33,5.48-5.29,5.45l-11.11-.07L18.36.01v.06Z"/>
      <path class="st4" d="M18.36,0h0S1.95,5.45,1.95,5.45v-2.64C1.95,1.26,3.19,0,4.72,0h13.64Z"/>
    </g>
    <g>
      <path class="st6" d="M28.64,17.76l-2.04-.84.67-1.69,2.04.84-.68,1.69ZM27.19,16.66l1.21.5.34-.85-1.21-.5-.34.85Z"/>
      <path class="st7" d="M29.3,16.49c-.09,0-.17-.02-.25-.05l-1.83-.76c-.34-.14-.51-.54-.37-.89.26-.65.86-1.06,1.54-1.06.21,0,.42.04.62.12.44.18.75.5.93.91.17.41.17.87,0,1.28-.11.28-.36.45-.63.45ZM28.38,14.18c-.49,0-.93.3-1.11.76-.05.14,0,.27.12.32l1.83.76c.12.05.25-.01.29-.13.13-.32.13-.65,0-.95-.12-.3-.36-.53-.65-.66-.17-.07-.32-.1-.48-.1Z"/>
    </g>
    <g>
      <path class="st6" d="M24.41,14.93l-1.7-1.42,1.14-1.41,1.7,1.42-1.14,1.41ZM23.34,13.45l1,.84.57-.71-1-.84-.57.71Z"/>
      <path class="st7" d="M25.41,13.92c-.08-.03-.16-.07-.23-.13l-1.53-1.28c-.29-.24-.33-.67-.09-.97.44-.54,1.13-.76,1.78-.55.2.06.39.17.56.31.36.3.57.71.62,1.15.04.45-.09.88-.37,1.23-.19.23-.47.32-.73.23ZM25.2,11.44c-.47-.15-.97,0-1.29.39-.09.11-.08.26.02.34l1.53,1.28c.1.08.24.06.32-.03.22-.27.31-.58.28-.91-.03-.33-.19-.62-.43-.83-.14-.12-.28-.19-.43-.24Z"/>
    </g>
    <g>
      <path class="st6" d="M21.55,4.37l.02-2.24,1.8.02-.02,2.24-1.8-.02ZM22.02,2.59v1.32s.89,0,.89,0v-1.32s-.89,0-.89,0Z"/>
      <path class="st7" d="M22.95,4.53c-.03-.08-.05-.17-.05-.26l.02-2.01c0-.38.31-.68.68-.68.69,0,1.29.42,1.54,1.06.08.2.12.42.11.63,0,.48-.18.9-.5,1.21-.31.31-.73.48-1.17.48-.3,0-.54-.17-.64-.44ZM24.72,2.81c-.18-.46-.61-.77-1.11-.77-.14,0-.25.1-.25.23l-.02,2.01c0,.13.1.23.22.23.34,0,.64-.12.87-.35.23-.23.36-.53.36-.86,0-.19-.03-.34-.08-.49Z"/>
    </g>
    <g>
      <path class="st6" d="M21.26,9.26l.02-2.24,1.8.02-.02,2.24-1.8-.02ZM21.72,7.48v1.32s.89,0,.89,0v-1.32s-.89-.01-.89-.01Z"/>
      <path class="st7" d="M22.65,9.42c-.03-.08-.05-.17-.05-.26l.02-2.01c0-.38.31-.68.68-.68.69,0,1.29.42,1.54,1.06.08.2.12.41.11.63,0,.48-.18.9-.5,1.21-.31.31-.73.48-1.17.48-.29,0-.54-.17-.64-.44ZM24.43,7.7c-.18-.47-.61-.77-1.11-.77-.14,0-.25.1-.25.23l-.02,2.01c0,.13.1.23.22.23.34,0,.64-.12.87-.35.23-.23.36-.53.36-.86,0-.19-.03-.34-.08-.49Z"/>
    </g>
    <g>
      <path class="st6" d="M34.17,19.42l-2.19-.24.19-1.82,2.18.24-.19,1.82ZM32.48,18.77l1.29.14.1-.91-1.29-.14-.1.91Z"/>
      <path class="st7" d="M34.47,18.02c-.08.02-.17.03-.26.02l-1.97-.21c-.37-.04-.64-.38-.6-.76.07-.7.54-1.27,1.19-1.45.21-.06.42-.08.63-.06.47.05.86.27,1.14.62.28.35.4.79.36,1.23-.03.3-.22.53-.49.61ZM32.95,16.05c-.47.14-.81.55-.86,1.05-.01.15.08.26.2.27l1.97.21c.12.01.24-.08.25-.2.04-.34-.06-.66-.26-.92-.2-.25-.49-.41-.81-.45-.18-.02-.34,0-.49.04Z"/>
    </g>
    <g>
      <path class="st6" d="M39.94,19.66l-2.19-.17.14-1.82,2.19.17-.14,1.82ZM38.23,19.07l1.3.1.07-.91-1.3-.1-.07.91Z"/>
      <path class="st7" d="M40.19,18.26c-.08.03-.17.04-.26.03l-1.97-.16c-.37-.03-.65-.36-.62-.74.05-.7.5-1.28,1.15-1.49.2-.07.41-.09.63-.07.47.04.87.24,1.15.58.29.34.43.77.39,1.22-.02.3-.21.53-.47.62ZM38.62,16.34c-.47.15-.79.57-.83,1.07-.01.15.08.26.21.27l1.97.16c.12,0,.23-.09.24-.21.03-.34-.07-.66-.28-.91-.21-.25-.5-.4-.82-.42-.18-.01-.34,0-.49.05Z"/>
    </g>
    <path class="st1" d="M39.31,16.93h-.01c-.33-.16-.48-.56-.33-.9l.44-.97c.15-.34.55-.49.88-.33h.01c.33.16.48.56.33.9l-.44.97c-.15.34-.55.49-.88.33Z"/>
    <path class="st1" d="M33.49,16.5h-.01c-.31-.21-.39-.63-.19-.95l.72-1.43c.2-.31.62-.4.92-.19h.01c.31.21.39.63.19.95l-.72,1.43c-.2.31-.62.4-.92.19Z"/>
    <path class="st1" d="M28.24,14.76h0c-.18-.34-.06-.75.26-.93l1.85-1.21c.32-.18.73-.06.9.27h0c.18.34.06.75-.26.93l-1.85,1.21c-.32.18-.73.06-.9-.27Z"/>
    <path class="st1" d="M24.84,12.34h0c-.17-.34-.05-.75.27-.93l2.36-1.47c.32-.18.73-.05.9.28h0c.17.34.05.75-.27.93l-2.36,1.47c-.32.18-.73.05-.9-.28Z"/>
    <path class="st1" d="M23.77,8.31h0c-.04-.39.23-.72.59-.76l1.64-.14c.37-.04.69.23.73.6h0c.04.39-.23.72-.59.76l-1.64.14c-.37.04-.69-.23-.73-.6Z"/>
    <path class="st1" d="M23.9,2.95h0c.24-.29.66-.32.94-.07l.64.51c.28.25.31.67.06.96h0c-.24.29-.66.32-.94.07l-.65-.51c-.28-.25-.3-.67-.06-.95Z"/>
  </g>
  <path class="st0" d="M21.74,30.94s-.08-.02-.11-.03c-3.73-.91-7.66-1.45-11.62-1.61-2.8-.11-5.6-.25-8.39-.42-.89-.05-1.61.42-1.61,1.06v6.39c0,.35.39.66.88.69.26.02.51.03.77.05.48.03.88-.23.88-.58v-.25c0-.35.39-.61.88-.58,0,0,.01,0,.02,0,.49.03.88.33.88.68v.25c0,.35.39.65.88.68,0,0,.01,0,.02,0,.49.02.88-.24.88-.59v-.25c0-.35.39-.61.88-.59.13,0,.26.01.39.02.49.02.88.32.88.67v.25c0,.35.39.65.88.67,0,0,.01,0,.02,0,.49.02.88-.25.88-.59v-.25c0-.35.39-.61.88-.6.13,0,.26,0,.39.01.48.02.88.31.88.66v.25c0,.35.39.64.88.66,0,0,.01,0,.02,0,.49.02.88-.25.88-.6v-.25c0-.35.39-.62.88-.6,0,0,.01,0,.02,0,.49.01.88.31.88.65v.25c0,.35.39.64.88.65.25,0,.51.01.77.02.49.01.88-.26.88-.61v-1.42c0-.4.51-.68,1.05-.6,2.65.43,5.29.83,7.94,1.21v.02h.14v.88c0,.35.39.63.88.63.26,0,.51,0,.77,0,.49,0,.88-.29.88-.64v-.25c0-.35.39-.63.88-.64.06,0,.12,0,.18,0,.49,0,.88.27.88.62v.25c0,.35.39.63.88.62,0,0,.01,0,.02,0,.49,0,.88-.29.88-.64v-.25c0-.35.39-.64.88-.64.18,0,.37,0,.55,0,.49,0,.88.27.88.61v.25c0,.35.39.62.88.61,0,0,.01,0,.02,0,.49-.01.88-.3.88-.65v-.25c0-.35.39-.64.88-.65.18,0,.37,0,.55-.02.49-.01.88.26.88.6v.25c0,.35.39.62.88.6,0,0,.01,0,.02,0,.49-.02.88-.31.88-.66v-.25c0-.35.39-.64.88-.66.18,0,.37-.01.55-.02.49-.02.88.25.88.6v.25c0,.35.39.61.88.59,0,0,.01,0,.02,0,.49-.02.88-.32.88-.67v-.25c0-.35.39-.65.88-.67.18,0,.37-.02.55-.03.49-.02.88.24.88.59v.25c0,.35.39.61.88.59,0,0,.01,0,.02,0,.49-.02.88-.33.88-.68v-.25c0-.35.39-.65.88-.68.06,0,.12,0,.18,0,.48-.03.88.23.88.58v.25c0,.35.39.61.88.58.26-.02.51-.03.77-.05.49-.03.88-.34.88-.69v-4.02c0-.5-.57-.87-1.27-.83-6.6.4-13.21.65-19.81.75-3.96.06-7.89-.38-11.62-1.29Z"/>
  <polygon class="st5" points="26.47 34.93 26.42 34.92 14.58 32.68 .9 31.9 .96 30.91 14.7 31.68 26.56 33.93 52.8 33.5 52.81 34.5 26.47 34.93"/>
</svg>