<?xml version="1.0" encoding="UTF-8"?>
<svg id="Layer_1" xmlns="http://www.w3.org/2000/svg" version="1.1" viewBox="0 0 93.65 45.64">
  <!-- Generator: Adobe Illustrator 30.3.0, SVG Export Plug-In . SVG Version: 2.1.3 Build 182)  -->
  <defs>
    <style>
      .st0 {
        fill: #90a243;
      }

      .st1 {
        fill: #076696;
      }

      .st2 {
        fill: #4f7335;
      }

      .st3 {
        fill: #0787b5;
      }

      .st4 {
        fill: #b6dcf1;
      }

      .st5 {
        fill: #48a4c9;
      }
    </style>
  </defs>
  <polygon class="st3" points="62.02 20.42 68.67 13.61 72.76 15.73 77.6 13.61 93.57 40.97 62.02 21.03 62.02 20.42"/>
  <polygon class="st1" points="41.75 9.76 49.46 0 57.03 7.71 59.75 7.71 67.92 18.83 78.96 19.82 93.57 40.97 43.47 38.12 40.08 27.83 41.75 9.76"/>
  <polygon class="st3" points="43.71 21.48 45.83 17.85 43.56 9.38 49.46 0 43.87 3.03 35.55 11.04 33.28 29.19 18.45 42.96 32.98 44.32 46.29 36.45 45.68 28.44 43.71 21.48"/>
  <polygon class="st0" points="49.28 44.89 17.33 45.64 15.25 39.54 42.93 29.3 57.41 29.3 49.28 44.89"/>
  <polygon class="st5" points="33.96 11.34 27.53 11.34 20.87 18.83 9.98 21.48 0 40.09 23.29 30.71 33.96 11.34"/>
  <path class="st4" d="M40.08,11.34l3.78-8.32-8.62,6.05s-3.33,2.12-5.29,5.45c-1.97,3.33-4.08,5.6-10.89,6.66-6.81,1.06-9.79,13.41-9.79,13.41l24.01-2.67,5.29-9.98-1.82-3.1,4.54-3.4-1.21-4.08Z"/>
  <path class="st2" d="M19.66,30.66c9.34-1.34,23.27-1.37,23.27-1.37,0,0,4.65,4.37-4.12,6.43-8.77,2.06-12.25,2.53-16.19,4.21-3.93,1.68-5.29,5.71-5.29,5.71l-3.72-.2c-10.74-.57-11.65-3.28-13.61-5.35,0,0,4.95-7.32,19.66-9.43Z"/>
  <path class="st2" d="M38.81,45.08s-3.33-4.91,5.14-6.83c3.91-.88,12.78-3.27,9.64-6.41-2.2-2.2-4.76-2.55-4.76-2.55,0,0,18.81-1.37,27.45,1.4,9,2.88,18.33,10.49,17.29,10.27h0c-3.39,4.67-54.76,4.11-54.76,4.11Z"/>
</svg>