<?xml version="1.0" encoding="UTF-8"?>
<svg xmlns="http://www.w3.org/2000/svg" version="1.1" viewBox="0 0 62.92 45.1">
  <!-- Generator: Adobe Illustrator 30.3.0, SVG Export Plug-In . SVG Version: 2.1.3 Build 182)  -->
  <defs>
    <style>
      .st0 {
        mix-blend-mode: multiply;
        opacity: .3;
      }

      .st0, .st1 {
        fill: #bb7c2b;
      }

      .st2 {
        isolation: isolate;
      }

      .st3 {
        fill: #fcef9a;
      }

      .st4 {
        fill: #4e2d17;
      }

      .st5 {
        fill: none;
        stroke: #fff;
        stroke-dasharray: 1.06 .26 1.77;
        stroke-linecap: round;
        stroke-miterlimit: 10;
        stroke-width: 1.2px;
      }
    </style>
  </defs>
  <g class="st2">
    <g id="Layer_1">
      <g>
        <path class="st3" d="M.78,40.69c-.15,0-.28-.08-.35-.22-.06-.13-.05-.29.04-.41L31.15.54c.07-.09.19-.15.31-.15s.23.06.31.15l30.68,39.52c.09.12.11.28.04.41-.07.13-.2.22-.35.22H.78Z"/>
        <path class="st4" d="M31.46.78l30.68,39.52H.78L31.46.78M31.46,0c-.24,0-.47.11-.61.3L.16,39.82c-.18.23-.21.55-.08.82.13.27.4.44.7.44h61.36c.3,0,.57-.17.7-.44.13-.27.1-.58-.08-.82L32.07.3c-.15-.19-.37-.3-.61-.3h0Z"/>
        <path class="st1" d="M15.38,44.71s-.09,0-.13-.02l-9.94-3.65c-.11-.04-.2-.13-.23-.24-.04-.11-.02-.24.04-.33L31.13.57c.07-.11.19-.18.33-.18s.25.07.33.18l26.02,39.89c.07.1.08.22.04.33-.04.11-.12.2-.23.24l-9.94,3.65s-.09.02-.13.02H15.38Z"/>
        <path class="st4" d="M31.46.78l26.02,39.89-9.94,3.65H15.38l-9.94-3.65L31.46.78M31.46,0c-.26,0-.51.13-.65.35L4.79,40.24c-.13.2-.16.45-.09.67.07.22.25.4.47.49l9.94,3.65c.09.03.18.05.27.05h32.16c.09,0,.18-.02.27-.05l9.94-3.65c.22-.08.4-.26.47-.49.07-.22.04-.47-.09-.67L32.11.35c-.14-.22-.39-.35-.65-.35h0Z"/>
        <path class="st1" d="M15.38,44.71s-.09,0-.13-.02l-9.94-3.65c-.11-.04-.2-.13-.23-.24-.04-.11-.02-.24.04-.33L31.13.57c.07-.11.19-.18.33-.18s.25.07.33.18l26.02,39.89c.07.1.08.22.04.33-.04.11-.12.2-.23.24l-9.94,3.65s-.09.02-.13.02H15.38Z"/>
        <path class="st4" d="M31.46.78l26.02,39.89-9.94,3.65H15.38l-9.94-3.65L31.46.78M31.46,0c-.26,0-.51.13-.65.35L4.79,40.24c-.13.2-.16.45-.09.67.07.22.25.4.47.49l9.94,3.65c.09.03.18.05.27.05h32.16c.09,0,.18-.02.27-.05l9.94-3.65c.22-.08.4-.26.47-.49.07-.22.04-.47-.09-.67L32.11.35c-.14-.22-.39-.35-.65-.35h0Z"/>
        <line class="st5" x1="31.46" y1="3.42" x2="15.67" y2="28.48"/>
        <polygon class="st0" points="55.82 38.13 47.95 41.02 42.9 25.62 38.48 22.75 44.21 41.67 14.01 41.67 6.57 38.94 5.44 40.67 15.38 44.32 47.54 44.32 57.48 40.67 55.82 38.13"/>
        <g>
          <path class="st4" d="M22.5,44.71c-.12,0-.24-.06-.32-.16-.07-.1-.09-.23-.05-.35l8.96-26.97c.05-.16.2-.27.37-.27s.32.11.37.27l8.96,26.97c.04.12.02.25-.05.35-.07.1-.19.16-.32.16h-17.93Z"/>
          <path class="st4" d="M31.46,17.35l8.96,26.97h-17.93l8.96-26.97M31.46,16.57c-.34,0-.63.21-.74.53l-8.96,26.97c-.08.24-.04.5.11.7.15.2.38.32.63.32h17.93c.25,0,.48-.12.63-.32.15-.2.19-.46.11-.7l-8.96-26.97c-.11-.32-.4-.53-.74-.53h0Z"/>
        </g>
        <path class="st3" d="M16.49,44.66c-.11,0-.21-.05-.27-.14-.06-.09-.08-.2-.05-.3l6.93-20.86c.03-.08.09-.15.16-.19l6.66-3.55s.1-.04.16-.04c.08,0,.16.03.22.08.11.09.15.23.1.37l-8.11,24.41c-.05.14-.18.23-.32.23h-5.49Z"/>
        <path class="st4" d="M30.09,19.9l-8.11,24.41h-5.49l6.93-20.86,6.66-3.55M30.09,19.23c-.11,0-.22.03-.32.08l-6.66,3.55c-.15.08-.27.22-.32.38l-6.93,20.86c-.07.21-.03.43.09.61.13.18.33.28.55.28h5.49c.29,0,.55-.19.64-.46l8.11-24.41c.09-.26,0-.55-.21-.73-.12-.11-.28-.16-.44-.16h0Z"/>
        <path class="st3" d="M41.24,44.66c-.15,0-.28-.09-.32-.23l-8.11-24.41c-.04-.13,0-.28.1-.37.06-.05.14-.08.22-.08.05,0,.11.01.16.04l6.66,3.55c.08.04.13.11.16.19l6.93,20.86c.03.1.02.22-.05.3-.06.09-.17.14-.27.14h-5.48Z"/>
        <path class="st4" d="M33.13,19.9l6.67,3.55,6.93,20.86h-5.48l-8.11-24.41M33.13,19.23c-.16,0-.31.05-.44.16-.21.18-.29.47-.21.73l8.11,24.41c.09.28.35.46.64.46h5.48c.22,0,.42-.1.55-.28.13-.18.16-.4.09-.61l-6.93-20.86c-.06-.17-.17-.3-.32-.38l-6.67-3.55c-.1-.05-.21-.08-.32-.08h0Z"/>
        <rect class="st4" x="1.97" y="34.38" width=".83" height="8.11"/>
        <rect class="st4" x="59.49" y="34.38" width=".83" height="8.11"/>
      </g>
    </g>
  </g>
</svg>