<?xml version="1.0" encoding="UTF-8"?>
<svg xmlns="http://www.w3.org/2000/svg" version="1.1" viewBox="0 0 40.73 49.53">
  <!-- Generator: Adobe Illustrator 30.3.0, SVG Export Plug-In . SVG Version: 2.1.3 Build 182)  -->
  <defs>
    <style>
      .st0 {
        isolation: isolate;
      }

      .st1 {
        stroke-dasharray: .35 .09 .58;
        stroke-width: .21px;
      }

      .st1, .st2 {
        fill: none;
        stroke: #fff;
        stroke-linecap: round;
        stroke-miterlimit: 10;
      }

      .st3 {
        mix-blend-mode: multiply;
      }

      .st2 {
        stroke-dasharray: .46 .11 .76;
        stroke-width: .28px;
      }

      .st4 {
        fill: #4f9b8f;
      }

      .st5 {
        fill: #bb7c2b;
      }

      .st6 {
        fill: #68c6b6;
      }

      .st7 {
        fill: #4e2d17;
      }
    </style>
  </defs>
  <g class="st0">
    <g id="Layer_1">
      <g>
        <g>
          <path class="st5" d="M17.74,49.28c-.15,0-.33-.03-.52-.07l-.22-.04c-.1-.02-.22-.02-.33-.02h-.11c-.33,0-.82,0-1.01-.4-1.2-2.56.53-18.89.6-19.58l.02-.22h1.74l.02.22c.07.69,1.81,17.02.6,19.58-.17.35-.42.53-.79.53Z"/>
          <path class="st7" d="M17.68,29.2s1.81,16.92.62,19.45c-.14.3-.32.38-.56.38-.2,0-.43-.06-.71-.1-.11-.02-.24-.02-.37-.02h-.11c-.33,0-.67-.01-.78-.26-1.19-2.53.62-19.45.62-19.45h1.29M18.13,28.7h-2.19l-.05.45c-.19,1.75-1.79,17.13-.58,19.72.26.55.89.55,1.24.55h.13c.1,0,.19,0,.27.01l.22.04c.2.04.38.07.57.07.47,0,.81-.23,1.02-.67,1.21-2.58-.39-17.97-.58-19.72l-.05-.45h0Z"/>
        </g>
        <g>
          <path class="st5" d="M17.74,49.28c-.15,0-.33-.03-.52-.07l-.22-.04c-.1-.02-.22-.02-.33-.02h-.11c-.33,0-.82,0-1.01-.4-1.2-2.56.53-18.89.6-19.58l.02-.22h1.74l.02.22c.07.69,1.81,17.02.6,19.58-.17.35-.42.53-.79.53Z"/>
          <path class="st7" d="M17.68,29.2s1.81,16.92.62,19.45c-.14.3-.32.38-.56.38-.2,0-.43-.06-.71-.1-.11-.02-.24-.02-.37-.02h-.11c-.33,0-.67-.01-.78-.26-1.19-2.53.62-19.45.62-19.45h1.29M18.13,28.7h-2.19l-.05.45c-.19,1.75-1.79,17.13-.58,19.72.26.55.89.55,1.24.55h.13c.1,0,.19,0,.27.01l.22.04c.2.04.38.07.57.07.47,0,.81-.23,1.02-.67,1.21-2.58-.39-17.97-.58-19.72l-.05-.45h0Z"/>
        </g>
        <g class="st3">
          <path class="st5" d="M17.68,29.2h-.77s1.81,16.92.62,19.45c-.08.16-.17.26-.28.32.49.09.82.15,1.04-.32,1.19-2.53-.62-19.45-.62-19.45Z"/>
        </g>
        <g>
          <g>
            <path class="st4" d="M20.47,39.4c-.3,0-.56-.07-.79-.13-.19-.05-.37-.09-.54-.09-.05,0-.1,0-.15.01-.38.06-.87.08-1.21.08-.5,0-1.01-.03-1.3-.08l-.1-.02c-1.06-.16-2.36-.44-2.99-1.15-.12-.13-.26-.19-.45-.19-.38,0-.91.24-1.53.51-.39.18-.83.37-1.29.53-.62.22-1.16.32-1.65.32s-.91-.11-1.29-.21c-.12-.03-.25-.07-.37-.1-.22-.05-.57-.08-1.05-.08s-1,.03-1.48.05c-.42.02-.81.04-1.11.04-1.02,0-2.68-.96-2.75-1-.08-.05-.14-.14-.14-.23,0-.1.04-.19.12-.24l2.61-1.73s.69-.6,2.41-2.65c.35-.41.75-.49,1.14-.56.6-.11,1.27-.23,2.23-1.57.03-.04.08-.08.13-.1l3.53-1.36c.07-.09.19-.28.37-.52,0-.03-.02-.05-.03-.08-.07-.19-.14-.21-.24-.21-.17,0-.43.1-.67.19-.31.12-.62.24-.93.24-.1,0-.19-.01-.28-.04-.17-.05-.32-.06-.45-.06h-.31c-.35,0-.72-.07-1.03-.6-.11-.18-.19-.18-.24-.18h0c-.12,0-.27.07-.43.13-.2.08-.4.17-.62.17-.06,0-.11,0-.16-.02-.16-.04-.57-.12-1-.12-.34,0-.52.05-.62.1-.22.11-.77.35-1.19.35-.28,0-.43-.11-.51-.21-.11-.14-.15-.33-.1-.57l1.1-1.75c.14-.21.2-.46.27-.72.06-.23.12-.47.23-.69.18-.35.42-.49.66-.62.11-.06.24-.13.37-.24.16-.14.37-.21.6-.21.26,0,.49.09.6.15h1.08l1.16-.83s.11-.05.16-.05c.06,0,.12.02.18.06.06.05.27.18.47.18.12,0,.23-.05.32-.16.28-.31.47-.34.72-.35.2,0,.5-.02,1.25-.47.12-.09.29-.68.38-1.02-.03-.05-.07-.07-.16-.07-.15,0-.37.06-.57.12-.26.07-.52.15-.77.15-.08,0-.16,0-.23-.02-.15-.03-.28-.04-.39-.04h-.26c-.29,0-.6-.04-.89-.4-.06-.08-.12-.09-.19-.09-.1,0-.23.04-.37.08-.17.05-.34.11-.52.11-.02,0-.12,0-.13-.01-.13-.02-.48-.08-.85-.08-.29,0-.45.04-.53.06-.06.02-.13.03-.19.03-.4,0-.89-.36-1.14-.7-.21-.27-.28-.55-.21-.79.01-.04.03-.07.06-.1l.89-1.05c.1-.12.15-.26.2-.42.05-.15.11-.31.21-.46.17-.24.39-.34.58-.42.1-.04.2-.08.31-.15.14-.09.31-.14.5-.14.22,0,.41.06.5.09h.92l.98-.52s.09-.03.13-.03c.05,0,.1.01.14.04,0,0,.19.11.4.11.11,0,.2-.03.27-.09.24-.2.4-.22.61-.23.17,0,.43-.01,1.06-.3.08-.06.23-.45.3-.63.04-.11.08-.22.12-.31l-.46-.11-1.17-.43s-.38-.1-.81-.1c-.25,0-.48.03-.66.1,0,.02-.77.64-1.41.7,0,0-.02,0-.03,0-.11,0-.21-.06-.25-.16l-.36-.79c-.05-.11-.02-.25.07-.33l1.7-1.47h0s.53-.7,1.42-1.19c.02-.01,1.46-.65,1.75-.75.03-.01.17-.08.68-.38,0-.02-.02-.05-.03-.07,0,.02-.09.06-.16.09-.13.05-.28.11-.44.11-.03,0-.14-.01-.16-.02-.04-.01-.08-.02-.14-.02h-.12c-.17,0-.39-.03-.56-.32,0,.01-.05.03-.07.04-.09.04-.2.08-.32.08-.02,0-.09,0-.11-.01-.12-.03-.26-.04-.37-.04-.12,0-.17.02-.18.02-.04.02-.13.04-.17.04-.26,0-.49-.24-.57-.35-.09-.11-.3-.41-.23-.73l.47-.77c.04-.07.06-.15.09-.25.02-.1.05-.21.11-.32.1-.19.23-.27.33-.32.04-.02.08-.04.13-.08.1-.08.22-.13.35-.13.11,0,.22.03.28.06h.35l.43-.31s.11-.05.16-.05c.06,0,.12.02.18.06.02.01.07.04.09.04.17-.18.3-.2.42-.21.07,0,.16,0,.44-.17,0-.02.05-.2.09-.32-.02,0-.03,0-.05,0h-.39c-.06,0-.12-.02-.17-.06l-.45-.35c-.09-.07-.13-.19-.1-.3.09-.31.31-.82.68-.84l.39-1.11.47-.82.97-2.03s.05-.08.09-.11l.34-.25s.11-.05.16-.05c.04,0,.07,0,.11.02.09.04.15.12.17.22l.33,2.45c.1.16.25.39.33.47l.09.1c.13.15.33.35.59.57l.06.05s0,0,0,0c.13-.08.23-.14.35-.14.08,0,.2.05.25.11.13.14.16.35.12.9l-.21.65c-.1.22-.3.55-.59.55-.04,0-.11-.01-.14-.03l-.15-.06c-.07.12-.23.19-.4.19-.05,0-.11,0-.16-.02.02.04.04.06.06.06.11.03.22.06.32.06.06,0,.12-.01.17-.04.08-.04.16-.06.23-.06.28,0,.38.25.43.36,0,.01,0,.02,0,.02.07.05.13.13.22.25.08.11.21.27.29.32l.11.07c.08.06.21.15.26.15.07-.02.14-.04.21-.04.02,0,.1.01.15.02.2,0,.83.36.94,1,.04.24.09.62.09.62,0,.04,0,.08,0,.11-.2.69-.29.83-.52.84,0,0-.02.03-.05.04-.14.09-.28.19-.44.19-.03,0-.09,0-.12-.02,0,.02-.16.11-.23.14-.07.04-.13.07-.17.08-.06.03-.15.06-.25.09.11.06.23.12.38.18.38.16,1.82,1.12,1.98,1.23.03.02.49.4,1.29.63.1.03.18.11.2.22h0s.06.25.36.7c.18.26.09.79.04,1l-.44.72c-.05.08-.14.13-.24.13-.03,0-.07,0-.1-.02l-1.56-.6c-.38.08-1.7.37-2.47.48.23.4.34.49.53.53.26.05.5.1.75.1.19,0,.36-.03.51-.09.11-.04.21-.07.31-.07.36,0,.51.28.59.42.02.03.04.07.05.09.08.02.21.14.45.36.21.19.46.43.66.53l.22.11c.26.13.53.27.73.27.21-.04.32-.06.43-.06.13,0,.21.02.27.04h0c.28,0,1.46.47,1.68,1.4.09.36.18.96.18.96,0,.05,0,.1-.02.14-.45,1.15-.62,1.15-.77,1.15-.02,0-.04,0-.06,0-.04.02-.16.08-.24.12-.24.12-.49.25-.7.25-.02,0-.11-.01-.13-.02-.16,0-.53.15-.75.23-.13.05-.24.09-.31.11-.24.07-.56.17-.85.17-.21,0-.38-.05-.5-.16-.13.02-.33.07-.52.12-.23.06-.45.12-.63.12-.1,0-.19-.02-.26-.05-.09,0-.25.07-.38.12-.19.07-.36.14-.53.14-.08,0-.15-.02-.22-.05.09.28.22.61.31.66.29.08.57.16.87.16.23,0,.42-.05.6-.14.13-.07.26-.11.38-.11.41,0,.58.39.67.62.02.06.06.15.08.17.11.05.26.23.53.57.25.31.56.7.81.86.07.05.14.07.22.07.17,0,.38-.11.57-.21.14-.07.29-.15.42-.19.15-.05.28-.07.4-.07.15,0,.26.04.32.06h0c.36,0,1.7.77,1.94,2.1.1.57.21,1.5.21,1.5,0,.08-.02.16-.07.22-.05.06-.13.09-.21.09h0c-.31,0-.54-.04-.69-.1-.05.04-.17.12-.26.17-.29.19-.58.39-.84.39-.03,0-.13-.02-.16-.03-.18,0-.63.24-.88.37-.15.08-.28.15-.37.18-.29.12-.67.27-1.02.27-.32,0-.49-.13-.59-.24-.09,0-.22.04-.35.09.21.19.43.39.68.59.55.46,2.11,1.52,2.17,1.55h0s.49.21,1.2.21,1.41-.2,2.08-.6c1.09-.65,2.22-1.25,3.16-1.25.11,0,.21,0,.31.02.09.01.16.07.2.14.04.08.04.17.01.24l-1.19,2.72c-.08.18-.77,1.81-1.21,2.22-.43.4-1.46,1.04-2.38,1.04-.33,0-.64.28-.92.53-.26.24-.49.45-.77.45h0c-.08,0-.15-.02-.22-.05-.19,0-.6.2-.92.37-.43.22-.84.43-1.16.43-.28,0-.72.22-1.19.45-.32.16-.67.34-1.04.48-.26.1-.51.15-.77.15Z"/>
            <path class="st7" d="M17.08.56l.34,2.51s.25.42.39.56c.14.15.37.41.7.69.12.1.16.16.21.16.04,0,.08-.03.18-.09.08-.05.15-.1.21-.1.09,0,.14.15.1.71l-.2.58s-.17.36-.33.36c-.01,0-.03,0-.04,0-.1-.04-.17-.08-.24-.08-.05,0-.1.02-.16.08-.07.07-.16.1-.26.1s-.2-.03-.3-.1c-.03-.02-.06-.03-.08-.03-.07,0-.12.08-.19.17.01.03.03.06.04.08.13.3.21.44.37.48.1.03.24.07.39.07.1,0,.2-.02.3-.07.04-.02.07-.03.1-.03.15,0,.17.27.25.3.09.04.34.46.55.59.18.12.36.27.52.27.03,0,.05,0,.08-.01.05-.02.1-.02.13-.02.07,0,.1.03.13.03,0,0,0,0,.01,0,0,0,0,0,0,0,.06,0,.58.26.67.77.04.23.08.61.08.61,0,0-.19.63-.25.63,0,0,0,0,0,0,0,0,0,0-.02,0-.08,0-.34.24-.46.24,0,0-.02,0-.03,0-.01,0-.02,0-.04,0-.15,0-.45.19-.55.23-.08.03-.24.11-.38.11-.06,0-.12-.02-.15-.06-.02-.02-.05-.03-.09-.03-.08,0-.19.04-.29.08.16.18.43.44,1.04.7.37.16,1.93,1.21,1.93,1.21,0,0,.5.42,1.37.67,0,0,.05.28.4.8.13.19,0,.79,0,.79l-.4.63-1.63-.63s-2.37.53-2.92.53c-.01,0-.02,0-.04,0,.07.12.14.23.18.3.26.47.43.67.76.74.2.04.49.11.81.11.2,0,.41-.03.62-.11.08-.03.15-.05.21-.05.32,0,.34.41.5.46.19.07.71.7,1.13.91.37.18.74.41,1.07.41.05,0,.11,0,.16-.02.11-.03.2-.04.27-.04.14,0,.21.04.26.04,0,0,.02,0,.02,0,0,0,0,0,0,0,.13,0,1.2.4,1.38,1.18.08.35.17.94.17.94,0,0-.38.98-.51.98,0,0,0,0-.01,0,0,0-.02,0-.03,0-.16,0-.69.37-.95.37-.02,0-.04,0-.06,0-.02,0-.05,0-.08,0-.3,0-.92.3-1.14.36-.16.05-.5.16-.77.16-.13,0-.24-.02-.32-.09-.04-.04-.11-.05-.19-.05-.31,0-.84.22-1.14.22-.06,0-.1,0-.14-.03-.04-.02-.08-.03-.12-.03-.27,0-.67.26-.91.26-.04,0-.08,0-.11-.03-.03-.02-.08-.03-.13-.03-.09,0-.21.03-.34.07.17.56.34,1.07.59,1.14.24.07.58.17.95.17.24,0,.49-.04.73-.17.1-.05.18-.07.25-.07.38,0,.41.64.6.74.23.11.84,1.11,1.34,1.44.12.08.25.11.37.11.38,0,.74-.3,1.08-.41.13-.04.23-.06.31-.06.17,0,.25.06.31.06.01,0,.02,0,.03,0,0,0,0,0,.01,0,.15,0,1.42.63,1.64,1.87.1.56.21,1.48.21,1.48h-.01c-.08,0-.49,0-.61-.11,0,0-.02-.01-.04-.01-.19,0-.82.58-1.13.58-.02,0-.05,0-.06-.01-.03,0-.06-.01-.09-.01-.36,0-1.09.47-1.35.57-.19.08-.59.25-.92.25-.15,0-.28-.04-.37-.14-.05-.06-.13-.08-.23-.08-.23,0-.56.14-.87.24.3.29.64.6,1.02.92.58.49,2.19,1.57,2.19,1.57,0,0,.54.25,1.36.25.62,0,1.39-.14,2.22-.64.88-.53,2.08-1.21,3.01-1.21.09,0,.18,0,.27.02l-1.19,2.72s-.73,1.74-1.14,2.13c-.41.38-1.37.96-2.19.96-.76,0-1.29.98-1.69.98-.03,0-.07,0-.1-.02-.04-.02-.08-.03-.13-.03-.5,0-1.56.79-2.06.79-.55,0-1.37.58-2.33.96-.25.1-.47.13-.67.13-.51,0-.9-.22-1.33-.22-.06,0-.13,0-.19.02-.31.05-.74.07-1.16.07-.5,0-.99-.03-1.26-.07-.5-.08-2.24-.31-2.93-1.08-.18-.2-.4-.29-.66-.29-.71,0-1.7.63-2.91,1.06-.65.23-1.14.31-1.56.31-.64,0-1.09-.19-1.59-.31-.27-.06-.67-.08-1.11-.08-.88,0-1.95.08-2.59.08-.96,0-2.61-.96-2.61-.96l2.61-1.73s.69-.58,2.47-2.7c.74-.89,1.73.17,3.38-2.14l3.61-1.39s.19-.28.51-.71c-.03-.06-.06-.13-.08-.21-.1-.3-.28-.4-.5-.4-.46,0-1.1.42-1.6.42-.07,0-.14,0-.2-.03-.19-.06-.37-.07-.53-.07-.11,0-.21,0-.31,0-.29,0-.54-.05-.79-.47-.14-.24-.31-.32-.48-.32-.34,0-.72.3-1.05.3-.03,0-.07,0-.1-.01-.29-.07-.69-.13-1.06-.13-.28,0-.54.04-.74.13-.26.12-.74.32-1.07.32-.24,0-.41-.11-.33-.44,0,0,.28-.44,1.06-1.66.29-.45.29-.99.51-1.44.22-.44.56-.44.95-.77.13-.11.28-.15.42-.15.28,0,.53.15.53.15h1.24l1.23-.88s.3.25.65.25c.17,0,.36-.06.53-.25.5-.55.45.11,1.91-.77.22-.13.39-.77.54-1.29-.01-.02-.02-.04-.03-.07-.08-.19-.24-.25-.43-.25-.39,0-.93.27-1.35.27-.06,0-.12,0-.17-.02-.16-.04-.31-.04-.45-.04-.09,0-.18,0-.26,0-.25,0-.46-.03-.67-.29-.12-.15-.26-.2-.41-.2-.29,0-.61.19-.88.19-.03,0-.06,0-.09,0-.24-.04-.58-.08-.89-.08-.24,0-.46.02-.62.08-.03.01-.06.02-.1.02-.42,0-1.21-.68-1.08-1.13,0,0,.24-.28.89-1.05.24-.29.24-.63.43-.91.19-.28.47-.28.81-.49.11-.07.24-.09.36-.09.24,0,.45.09.45.09h1.04l1.04-.56s.25.15.55.15c.15,0,.31-.04.45-.15.43-.35.38.07,1.61-.49.32-.15.53-1.27.7-1.27,0,0,0,0,0,0,0,0,0,0,0,0,.03,0,.08-.03.14-.08l-.96-.22-1.14-.42s-.41-.12-.9-.12c-.25,0-.51.03-.75.12,0,0-.77.63-1.34.68l-.36-.79,1.7-1.47s.52-.68,1.37-1.15c0,0,1.43-.63,1.71-.73.13-.05.55-.3.96-.55-.06-.07-.1-.15-.14-.26-.04-.12-.12-.16-.21-.16-.19,0-.45.17-.66.17-.03,0-.06,0-.08-.01-.08-.02-.15-.03-.22-.03-.04,0-.08,0-.12,0-.12,0-.22-.02-.33-.19-.06-.1-.13-.13-.2-.13-.14,0-.3.12-.43.12-.01,0-.03,0-.04,0-.12-.03-.28-.05-.44-.05-.11,0-.22.01-.3.05-.01,0-.03.01-.05.01-.21,0-.59-.44-.53-.74,0,0,.12-.18.43-.68.12-.19.12-.41.21-.59.09-.18.23-.18.39-.32.05-.05.12-.06.17-.06.12,0,.22.06.22.06h.51l.51-.36s.12.1.27.1c.07,0,.15-.03.22-.1.21-.23.18.04.79-.32.16-.1.26-.83.34-.83,0,0,0,0,0,0,0,0,0,0,0,0,0,0,.01,0,.02,0h0c-.07-.05-.14-.06-.21-.06-.14,0-.27.06-.27.06h-.39l-.45-.35s.2-.65.45-.65c.05,0,.09.02.14.07l.48-1.37.45-.77.98-2.05.34-.25M17.08,0c-.12,0-.23.04-.33.1l-.34.25c-.08.06-.14.13-.18.21l-.98,2.05-.43.73s-.03.06-.04.1l-.34.96c-.41.15-.64.67-.74,1-.07.22,0,.46.19.61l.45.35s.07.05.1.06c-.09.02-.19.05-.29.12-.07-.04-.14-.06-.21-.06-.12,0-.24.05-.35.13l-.36.26h-.21c-.09-.03-.21-.06-.33-.06-.2,0-.38.07-.53.19-.03.03-.06.04-.08.05-.12.07-.31.17-.45.44-.07.13-.1.27-.13.37-.02.07-.04.14-.05.17l-.44.68c-.04.06-.06.12-.07.18-.07.3.04.66.29.96.14.17.42.45.79.45.1,0,.2-.02.28-.06,0,0,0,0,0,0,0,0,.03,0,.06,0,.11,0,.23.02.31.04.04,0,.12.02.17.02.12,0,.22-.03.31-.06.13.13.27.2.39.23-.49.21-1.11.48-1.21.53-.86.47-1.4,1.09-1.55,1.28l-1.66,1.44c-.19.16-.24.43-.14.65l.36.79c.09.2.29.33.51.33.02,0,.03,0,.05,0,.62-.06,1.29-.54,1.55-.74.14-.04.3-.06.49-.06.4,0,.75.1.75.1l1.1.41s.04.01.07.02l.15.04s0,0,0,0c-.05.14-.15.4-.22.51-.53.23-.74.24-.89.25-.24,0-.47.04-.78.29-.02.01-.04.03-.09.03-.11,0-.23-.06-.26-.08-.09-.05-.19-.08-.29-.08-.09,0-.18.02-.26.06l-.92.49h-.8c-.12-.04-.32-.09-.55-.09-.25,0-.47.06-.65.18-.09.06-.18.09-.27.13-.22.09-.49.21-.7.52-.13.19-.19.37-.24.53-.05.14-.09.25-.15.33l-.89,1.05c-.05.06-.09.13-.11.21-.07.23-.08.59.25,1.03.3.4.87.81,1.37.81.1,0,.2-.02.29-.05.04-.01.16-.05.44-.05.24,0,.54.03.8.07.06,0,.12.01.18.01.22,0,.42-.06.6-.12.1-.03.22-.07.28-.07.33.43.73.49,1.07.49h.13s.13,0,.13,0c.09,0,.2,0,.32.03.09.02.19.03.29.03.29,0,.59-.09.85-.16.1-.03.21-.06.3-.08-.07.24-.15.47-.21.57-.65.39-.91.4-1.07.41-.29.01-.56.05-.91.44-.06.06-.09.06-.12.06-.11,0-.26-.09-.29-.12-.1-.08-.23-.13-.35-.13-.11,0-.23.03-.33.1l-1.09.78h-.93c-.15-.07-.39-.15-.66-.15-.3,0-.57.1-.78.28-.1.09-.21.14-.32.21-.25.14-.55.31-.77.74-.13.25-.19.5-.25.75-.06.24-.12.46-.23.64-.78,1.21-1.06,1.66-1.06,1.66-.04.06-.06.12-.07.18-.09.4.03.66.15.8.11.14.33.31.73.31.46,0,1.02-.24,1.31-.38.04-.02.18-.07.5-.07.28,0,.63.04.93.11.07.02.15.02.23.02.27,0,.52-.1.73-.19.09-.04.22-.09.29-.11,0,0,.01.02.03.04.39.66.88.74,1.27.74h.16s.15,0,.15,0c.1,0,.23,0,.37.05.11.03.23.05.36.05.35,0,.71-.13,1.03-.25.17-.07.37-.14.5-.16-.09.12-.15.22-.21.29l-3.46,1.33c-.1.04-.19.11-.25.2-.89,1.25-1.48,1.35-2.05,1.46-.42.08-.89.16-1.3.65-1.55,1.85-2.26,2.51-2.38,2.62l-2.58,1.71c-.16.11-.25.29-.25.48,0,.19.11.37.28.46.18.11,1.81,1.04,2.89,1.04.3,0,.69-.02,1.12-.04.47-.02,1.01-.05,1.47-.05s.79.02.99.07c.12.03.24.06.36.09.38.11.81.23,1.36.23s1.1-.11,1.75-.34c.48-.17.92-.36,1.31-.54.56-.25,1.09-.49,1.41-.49.13,0,.19.04.24.1.69.77,2.05,1.07,3.16,1.24l.1.02c.31.05.83.08,1.35.08.35,0,.85-.01,1.25-.08.04,0,.07,0,.1,0,.14,0,.29.04.47.09.25.06.53.13.86.13.3,0,.58-.06.87-.17.39-.15.75-.33,1.07-.49.42-.21.85-.43,1.06-.43.38,0,.82-.22,1.29-.46.23-.11.59-.3.75-.33.08.03.17.04.26.04.38,0,.68-.27.96-.52.24-.22.51-.46.73-.46,1.02,0,2.1-.67,2.58-1.11.46-.43,1.09-1.88,1.28-2.32l1.19-2.71c.07-.16.06-.34-.02-.49-.08-.15-.23-.26-.4-.28-.12-.02-.24-.03-.36-.03-1,0-2.18.62-3.3,1.29-.62.37-1.27.56-1.93.56-.57,0-.98-.14-1.09-.19-.25-.17-1.5-1.02-2.04-1.45h.02c.4,0,.81-.17,1.06-.27l.06-.03c.09-.03.23-.11.39-.19.17-.09.56-.3.73-.33.06.01.12.02.18.02.34,0,.68-.22,1-.44.04-.03.1-.06.14-.1.15.04.35.07.63.07.16,0,.32-.07.42-.19.11-.12.16-.28.14-.44,0-.04-.11-.94-.21-1.51-.26-1.5-1.72-2.32-2.18-2.33-.09-.03-.2-.06-.36-.06s-.31.03-.49.09c-.17.06-.32.13-.46.21-.16.08-.34.18-.44.18-.02,0-.03,0-.06-.02-.21-.14-.52-.52-.74-.8-.24-.3-.39-.49-.54-.6-.01-.02-.02-.05-.03-.08-.1-.24-.33-.79-.93-.79h0c-.17,0-.34.05-.51.14-.14.07-.29.11-.47.11-.25,0-.51-.07-.71-.13-.02-.03-.04-.07-.06-.11.15-.03.3-.09.44-.14.07-.03.18-.07.24-.09.09.03.18.04.29.04.22,0,.46-.06.7-.13.12-.03.29-.07.39-.09.15.09.34.14.56.14.33,0,.67-.11.88-.17l.05-.02c.07-.02.19-.07.33-.12.15-.06.49-.19.63-.21.05,0,.1.01.15.01.28,0,.56-.14.83-.27.06-.03.11-.06.16-.08h0c.4,0,.62-.29,1.03-1.33.04-.09.05-.19.03-.29,0-.02-.09-.61-.18-.98-.26-1.11-1.6-1.61-1.92-1.61-.07-.02-.17-.04-.3-.04s-.26.02-.4.05h0c-.16,0-.41-.13-.62-.24-.08-.04-.15-.08-.23-.12-.17-.08-.41-.31-.6-.49-.18-.17-.31-.29-.45-.38h0c-.09-.16-.32-.57-.84-.57-.13,0-.28.03-.42.09-.12.05-.25.07-.41.07-.22,0-.45-.05-.63-.08h-.07s-.06-.03-.1-.06c.7-.12,1.56-.3,1.97-.39l1.48.57c.06.03.13.04.2.04.19,0,.37-.09.47-.26l.4-.63c.04-.06.06-.12.07-.18.08-.38.13-.89-.08-1.21-.27-.4-.32-.61-.32-.61-.05-.19-.2-.36-.39-.42-.73-.21-1.16-.55-1.17-.56-.01-.01-.03-.02-.04-.03-.24-.16-1.32-.89-1.85-1.17.02-.01.04-.02.06-.03.01,0,.02,0,.04,0,.24,0,.44-.13.59-.24,0,0,0,0,0,0,.39-.07.51-.5.67-1.03.02-.07.03-.15.02-.22,0,0-.05-.4-.09-.64-.12-.72-.78-1.17-1.15-1.22-.06-.02-.13-.03-.21-.03-.06,0-.12,0-.18.02-.04-.02-.09-.06-.12-.08l-.11-.08c-.05-.04-.17-.18-.23-.26-.08-.1-.14-.18-.21-.24-.04-.08-.08-.15-.12-.21.17-.15.29-.35.36-.5,0-.02.02-.04.02-.06l.2-.58s.03-.1.03-.14c.04-.56.01-.88-.2-1.1-.12-.13-.28-.2-.46-.2-.13,0-.24.04-.33.09-.2-.18-.36-.35-.48-.47l-.09-.1s-.16-.21-.26-.37l-.32-2.39c-.03-.19-.15-.36-.33-.44-.07-.03-.15-.05-.22-.05h0Z"/>
          </g>
          <g class="st3">
            <path class="st6" d="M20.66,8.82c-.05-.05-.37.28-.49.23-.12-.04-.46.18-.57.23-.11.05-.4.18-.52.05-.06-.07-.22-.02-.38.04.16.18.42.44,1.01.7.04.01.08.04.14.07.15-.08.35-.18.43-.15.12.04.45-.28.51-.23.06.05.26-.63.26-.63,0,0-.04-.38-.08-.61-.02-.09-.05-.18-.09-.25-.05.18-.18.59-.22.55Z"/>
            <path class="st6" d="M19.05,4.31l-.11.32s-.19.42-.35.35c-.16-.07-.25-.14-.38,0-.14.14-.35.14-.54,0-.12-.09-.17.01-.27.13.01.03.03.06.03.08.12.31.2.44.36.48.16.05.33.31.57.18.21-.12.34-.04.4.06.14-.07.26-.34.26-.34l.2-.58c.04-.69-.03-.76-.17-.69Z"/>
            <path class="st6" d="M15.09,5.93c.05-.03.35-.12.48,0,.13.12-.08-.96,0-.93,0,0,.01,0,.02,0,0,0,0,0,0,0-.19-.14-.46,0-.46,0h-.29s0,0-.01,0h-.08l-.07-.06c-.24.04-.43.65-.43.65l.45.35h.39Z"/>
            <path class="st6" d="M27.23,27.36s-.47,0-.6-.11c-.13-.12-.9.67-1.19.56-.29-.11-1.12.44-1.4.55-.27.11-.98.44-1.25.11-.17-.2-.89-.05-1.06.15-.15.19-.12.68.17.94.21-.05.92-.38,1.09-.15.26.35,1.01,0,1.29-.11.28-.11,1.14-.66,1.44-.55.3.11,1.09-.67,1.23-.56.14.12.62.11.62.11,0,0-.11-.92-.21-1.48-.05-.3-.17-.57-.32-.8.09.56.18,1.34.18,1.34Z"/>
            <path class="st6" d="M25.8,18.93s-.4,1.04-.51.97c-.11-.07-.76.42-1.01.35-.25-.07-.95.28-1.18.35-.23.07-.83.28-1.06.07-.23-.21-1.15.28-1.42.14-.28-.14-.87.35-1.1.21-.09-.06-.27-.02-.46.04.1.34.2.67.32.88.1-.02.18-.02.24.02.24.14.85-.35,1.14-.21.28.14,1.23-.35,1.47-.14.24.21.85,0,1.09-.07.24-.07.96-.42,1.22-.35.25.07.92-.43,1.04-.35.12.07.53-.97.53-.97,0,0-.09-.58-.17-.94-.04-.15-.1-.29-.19-.41.04.22.07.41.07.41Z"/>
            <path class="st6" d="M23.31,13.53l-.39.63-1.58-.63s-2.4.55-2.87.53c.07.12.13.22.17.3.15.29.27.47.42.59.88-.13,2.44-.48,2.44-.48l1.63.63.4-.63s.13-.59,0-.79c-.08-.12-.14-.22-.19-.32-.01.1-.03.16-.03.16Z"/>
            <path class="st6" d="M5.7,28.19c.45-.21,1.29-.12,1.8,0s1.18-.73,1.63.03c.45.75.9.31,1.63.53.65.2,1.68-.73,2.15-.26.08-.12.19-.28.33-.47-.03-.06-.05-.13-.08-.21-.33-.99-1.52.22-2.23,0-.71-.22-1.14.22-1.58-.53-.44-.75-1.09.09-1.58-.03-.49-.12-1.3-.21-1.74,0-.35.17-1.13.5-1.33.21-.28.44-.4.62-.4.62-.17.77.95.33,1.4.11Z"/>
            <path class="st6" d="M31.07,30.55l-.73,1.71s-.71,1.74-1.11,2.13c-.4.38-1.33.96-2.13.96s-1.33,1.15-1.73.96c-.4-.19-1.6.77-2.13.77s-1.33.58-2.26.96c-.93.38-1.46-.19-2.13-.07-.66.11-1.86.08-2.35,0-.49-.08-2.17-.31-2.84-1.08-.67-.77-1.86.19-3.46.77-1.6.58-2.26.19-3.06,0-.8-.19-2.66,0-3.59,0-.6,0-1.47-.4-2.02-.68l-.99.66s1.65.96,2.61.96,2.88-.19,3.7,0c.82.19,1.51.58,3.16,0,1.65-.58,2.88-1.54,3.57-.77.69.77,2.43,1,2.93,1.08.5.08,1.74.11,2.42,0,.69-.11,1.23.45,2.2.07.96-.38,1.78-.96,2.33-.96s1.78-.96,2.19-.77c.41.19.96-.96,1.78-.96s1.78-.58,2.19-.96c.41-.38,1.14-2.13,1.14-2.13l1.19-2.72c-.28-.04-.59-.01-.91.07Z"/>
            <path class="st6" d="M12.06,9.76c.18-.09.53-.05.74,0,.21.05.49-.3.67.01.17.28.33.16.58.2.12-.05.81-.12.87-.14.13-.05-.06-.27.34-.52-.05-.07-.1-.15-.14-.26-.13-.41-.63.09-.92,0s-.47.09-.65-.22c-.18-.31-.45.04-.65-.01-.2-.05-.54-.09-.72,0-.1.05-.28-.08-.41-.25-.22.34-.3.47-.3.47-.07.32.39.81.58.72Z"/>
            <path class="st6" d="M11.18,14.26c.73-.26,1.66,0,1.66,0l1.14.42.96.22c.14-.37-.89-1.16-.89-1.16l-1.11-.42s-.9-.26-1.61,0c0,0-.74.63-1.3.68l-.1-.24-.45.39.36.79c.57-.05,1.34-.68,1.34-.68Z"/>
            <path class="st6" d="M7.63,20.85c.38-.14,1.09-.07,1.52,0,.43.07,1-.46,1.37.02.38.47.76.2,1.38.34.55.12,1.46-.48,1.84-.15.08-.23.15-.49.21-.73-.01-.02-.02-.04-.03-.07-.28-.63-1.29.14-1.88,0-.6-.14-.96.14-1.33-.34-.37-.47-.92.06-1.33-.02-.41-.07-1.1-.14-1.47,0-.26.1-.8-.26-1.04-.65-.29.34-.41.48-.41.48-.14.49.81,1.25,1.18,1.11Z"/>
          </g>
        </g>
        <path class="st2" d="M15.95,40.54s-.28,4.46,0,6.8"/>
        <path class="st2" d="M12.47,30.55c-.71.91-2.27.29-2.88,1.16-.37.52-.71,1.05-1.2,1.49-.38.34-.85.57-1.26.88"/>
        <path class="st2" d="M13.08,23.54c-.67.11-1.29.59-1.92.84-.72.28-1.56.59-2.33.65-.39.03-.76-.04-1.14.07-.56.17-1.26.62-1.69,1.04"/>
        <path class="st2" d="M14.01,16.93c-.62.28-1.33.45-2.01.47-.51,0-1.63.25-1.71.88"/>
        <path class="st2" d="M15.07,10.85c-.67-.16-1.22,1.19-2.04,1.12"/>
        <path class="st2" d="M16.56,1.64c.02.5-.36,1.25-.6,1.67"/>
        <path class="st2" d="M12.94,8.1c.56-.21,1.44-.06,1.91-.37"/>
      </g>
      <g>
        <g>
          <path class="st5" d="M29.53,49.22c-.12,0-.25-.02-.39-.05l-.17-.03c-.08-.01-.16-.01-.25-.01h-.02c-.32,0-.69,0-.83-.31-.91-1.94.4-14.31.45-14.84l.02-.17h1.32l.02.17c.06.53,1.37,12.9.45,14.84-.12.27-.32.4-.6.4Z"/>
          <path class="st7" d="M29.48,34.01s1.37,12.82.47,14.74c-.1.22-.24.29-.43.29-.15,0-.33-.04-.54-.08-.08-.01-.18-.01-.28-.01h-.08c-.26,0-.51,0-.6-.2-.9-1.92.47-14.74.47-14.74h.98M29.82,33.63h-1.66l-.04.34c-.14,1.32-1.36,12.98-.44,14.94.19.41.68.41.94.41h.1c.07,0,.14,0,.21,0l.17.03c.15.03.29.05.43.05.35,0,.61-.17.77-.51.92-1.96-.3-13.62-.44-14.94l-.04-.34h0Z"/>
        </g>
        <g>
          <path class="st5" d="M29.53,49.22c-.12,0-.25-.02-.39-.05l-.17-.03c-.08-.01-.16-.01-.25-.01h-.02c-.32,0-.69,0-.83-.31-.91-1.94.4-14.31.45-14.84l.02-.17h1.32l.02.17c.06.53,1.37,12.9.45,14.84-.12.27-.32.4-.6.4Z"/>
          <path class="st7" d="M29.48,34.01s1.37,12.82.47,14.74c-.1.22-.24.29-.43.29-.15,0-.33-.04-.54-.08-.08-.01-.18-.01-.28-.01h-.08c-.26,0-.51,0-.6-.2-.9-1.92.47-14.74.47-14.74h.98M29.82,33.63h-1.66l-.04.34c-.14,1.32-1.36,12.98-.44,14.94.19.41.68.41.94.41h.1c.07,0,.14,0,.21,0l.17.03c.15.03.29.05.43.05.35,0,.61-.17.77-.51.92-1.96-.3-13.62-.44-14.94l-.04-.34h0Z"/>
        </g>
        <g class="st3">
          <path class="st5" d="M29.48,34.01h-.58s1.37,12.82.47,14.74c-.06.12-.13.2-.21.24.37.07.62.12.79-.24.9-1.92-.47-14.74-.47-14.74Z"/>
        </g>
        <g>
          <g>
            <path class="st4" d="M31.59,41.73c-.23,0-.42-.05-.6-.09-.14-.04-.28-.07-.41-.07-.04,0-.07,0-.11,0-.29.05-.66.06-.91.06-.38,0-.77-.02-.99-.06-.61-.1-1.81-.29-2.35-.88-.09-.1-.2-.15-.34-.15-.29,0-.69.18-1.16.39-.3.13-.63.28-.98.4-.47.16-.88.24-1.25.24s-.69-.08-.98-.16c-.09-.03-.19-.05-.28-.07-.17-.04-.43-.06-.79-.06s-.76.02-1.12.04c-.32.01-.61.03-.84.03-.78,0-2.03-.73-2.08-.76-.06-.04-.1-.1-.1-.18,0-.07.03-.14.09-.18l1.97-1.31s.53-.46,1.83-2.01c.26-.31.57-.37.86-.42.45-.08.96-.17,1.69-1.19.02-.03.06-.06.1-.07l2.68-1.03.28-.39s-.01-.04-.02-.06c-.05-.15-.11-.16-.18-.16-.13,0-.32.07-.51.14-.23.09-.47.18-.7.18-.08,0-.15,0-.21-.03-.13-.04-.25-.04-.34-.04h-.23c-.26,0-.54-.05-.78-.45-.08-.14-.15-.14-.18-.14-.09,0-.21.05-.32.1-.15.06-.3.13-.47.13-.02,0-.11,0-.12-.01-.12-.03-.43-.09-.75-.09-.26,0-.4.04-.47.08-.17.08-.59.27-.9.27-.21,0-.33-.09-.39-.16-.09-.11-.11-.25-.07-.43l.83-1.32c.1-.16.15-.35.2-.55.04-.17.09-.35.18-.52.14-.27.32-.37.49-.47.09-.05.18-.1.28-.18.13-.11.28-.16.46-.16.2,0,.37.07.46.11h.82l.88-.63s.08-.04.12-.04c.05,0,.09.02.13.05.05.04.21.14.36.14.09,0,.17-.04.25-.12.21-.23.35-.26.54-.27.15,0,.38-.02.95-.36.09-.07.22-.51.29-.77-.03-.04-.06-.05-.12-.05-.12,0-.28.05-.43.09-.19.06-.4.11-.59.11-.06,0-.12,0-.17-.02-.11-.03-.21-.03-.29-.03,0,0-.11,0-.12,0-.31,0-.54-.04-.75-.3-.05-.06-.09-.07-.14-.07-.08,0-.18.03-.28.06-.12.04-.25.08-.39.08-.01,0-.09,0-.1,0-.17-.03-.42-.06-.64-.06s-.34.03-.4.05c-.02,0-.12.02-.15.02-.3,0-.67-.27-.87-.53-.16-.21-.21-.41-.16-.59l.72-.87c.08-.09.11-.19.15-.31.04-.11.08-.24.16-.35.12-.19.29-.25.44-.32.07-.03.15-.06.23-.11.11-.07.24-.1.38-.1.22,0,.41.08.43.09l.65-.02.75-.4s.06-.02.1-.02c.04,0,.08,0,.11.03,0,0,.15.09.31.09.08,0,.15-.02.21-.07.19-.15.3-.17.46-.17.13,0,.33,0,.8-.23.06-.05.17-.34.23-.48.03-.09.06-.17.09-.23l-.35-.08-.89-.33s-.28-.08-.61-.08c-.19,0-.36.03-.5.08,0,.02-.58.48-1.06.53,0,0-.01,0-.02,0-.08,0-.16-.05-.19-.12l-.27-.6c-.04-.09-.02-.19.05-.25l1.28-1.11h0s.4-.53,1.08-.9c.02,0,1.11-.49,1.33-.57.01,0,.11-.05.51-.29,0-.02-.01-.03-.02-.05,0,.02-.07.05-.12.07-.1.04-.22.08-.33.08-.02,0-.1-.01-.13-.02-.03,0-.06-.01-.1-.01h-.1c-.13,0-.3-.03-.43-.25-.12.06-.2.1-.29.1-.17-.03-.28-.04-.36-.04-.09,0-.13.02-.14.02-.03.01-.1.03-.13.03-.2,0-.37-.18-.43-.26-.07-.09-.23-.31-.17-.55l.36-.59s.05-.11.07-.19c.02-.07.04-.16.08-.24.07-.14.18-.2.25-.25.03-.02.06-.03.1-.06.07-.06.17-.09.27-.09.09,0,.16.02.21.05h.27l.33-.24s.08-.04.12-.04c.05,0,.09.02.13.05.2-.11.29-.12.39-.13.05,0,.12,0,.33-.13,0-.02.04-.17.07-.26l-.34.02s-.09-.02-.13-.04l-.34-.27c-.07-.05-.1-.15-.07-.23.07-.23.23-.62.52-.64l.29-.84.36-.62.73-1.54s.04-.06.07-.08l.26-.19s.08-.04.12-.04c.03,0,.06,0,.08.02.07.03.12.09.13.17l.26,1.9s.18.24.24.31c0,0,.07.07.07.08.1.11.25.27.44.43,0,0,.08.07.08.07.07-.09.15-.14.24-.14.06,0,.15.04.19.08.1.1.12.27.09.68l-.16.49c-.08.17-.23.41-.45.41-.03,0-.09-.01-.11-.02l-.11-.05c-.05.09-.17.14-.31.14-.04,0-.08,0-.12-.01.02.04.04.05.05.05.09.02.17.05.24.05.05,0,.09,0,.13-.03.03-.02.14-.05.18-.05.21,0,.29.19.32.27.03.02.08.09.17.2.06.08.16.2.22.24,0,0,.08.06.09.06.06.04.16.11.2.11.05-.02.1-.03.16-.03.02,0,.12.02.14.02,0,0-.07,0-.1,0,0,0,0,0,0,0,.23,0,.7.27.78.74.03.18.07.47.07.47-.16.61-.23.72-.4.72,0,0-.01,0-.02,0-.12.11-.23.18-.35.18h0c-.09,0-.21.07-.26.09-.05.03-.09.05-.12.06-.05.02-.12.05-.19.07.08.05.18.09.29.14.29.12,1.38.85,1.5.93.02.02.38.31.98.48.08.02.14.09.15.16h0s.04.19.27.53c.13.2.07.6.03.76l-.33.55c-.04.06-.11.1-.18.1-.03,0-.05,0-.08-.01l-1.18-.45c-.29.06-1.29.28-1.87.36.17.3.26.37.4.4.19.04.38.08.57.08.15,0,.27-.02.39-.07.09-.04.16-.05.24-.05.27,0,.39.21.45.32.1.08.2.17.38.33.16.15.35.33.51.4l.17.09c.2.1.4.21.55.21.16-.03.24-.04.32-.04.1,0,.16.02.2.03h0c.21,0,1.11.35,1.27,1.06.06.28.13.73.13.73,0,.04,0,.07-.01.11-.34.87-.47.87-.59.87-.01,0-.02,0-.04,0-.04.02-.13.06-.18.09-.18.09-.37.19-.53.19h-.1c-.12-.01-.4.1-.57.16-.1.04-.18.07-.23.09-.19.06-.43.13-.65.13-.16,0-.29-.04-.38-.12-.1.01-.25.05-.39.09-.17.04-.34.09-.48.09-.08,0-.14-.01-.2-.04-.06,0-.18.05-.28.09-.14.06-.28.11-.41.11-.03,0-.12-.02-.16-.04.07.21.16.46.24.5.22.06.43.12.66.12.17,0,.32-.04.46-.11.1-.05.2-.08.29-.08.31,0,.44.29.51.47.02.04.05.11.06.13.08.03.2.17.4.43.19.23.42.53.61.65.05.04.11.05.17.05.13,0,.28-.08.43-.16.11-.06.22-.11.32-.15.11-.04.21-.05.31-.05.12,0,.2.03.25.04h0c.27,0,1.29.58,1.47,1.59.08.43.16,1.13.16,1.13,0,.06-.01.12-.05.16-.04.04-.1.07-.16.07h0c-.24,0-.41-.03-.52-.08-.04.03-.13.09-.2.13-.22.15-.44.3-.64.3-.02,0-.1-.01-.12-.02-.14,0-.48.18-.67.28-.11.06-.21.11-.27.13-.22.09-.51.21-.77.21-.24,0-.37-.1-.44-.18-.07,0-.17.03-.27.06.16.14.33.29.51.45.42.35,1.6,1.15,1.64,1.18h0s.37.16.91.16,1.07-.15,1.57-.45c.82-.49,1.68-.95,2.39-.95.08,0,.16,0,.24.02.06.01.12.05.15.11.03.06.03.12,0,.19l-.9,2.06c-.06.14-.58,1.37-.92,1.68-.33.3-1.1.79-1.81.79-.25,0-.49.22-.7.41-.2.18-.37.34-.58.34h0s-.14-.02-.16-.04c-.15,0-.45.16-.7.28-.33.17-.64.32-.88.32-.21,0-.54.17-.9.34-.24.12-.51.25-.79.37-.2.08-.39.11-.58.11Z"/>
            <path class="st7" d="M29.03,12.31l.26,1.9s.19.32.3.43c.11.11.28.31.53.52.09.08.12.12.16.12.03,0,.06-.02.14-.07.06-.04.12-.08.16-.08.07,0,.1.11.08.54l-.15.44s-.13.27-.25.27c0,0-.02,0-.03,0-.07-.03-.13-.06-.18-.06-.04,0-.08.02-.12.06-.05.05-.12.08-.2.08s-.15-.03-.23-.08c-.02-.02-.05-.03-.06-.03-.05,0-.09.06-.14.12,0,.02.02.05.03.06.1.23.16.33.28.37.07.02.18.05.3.05.07,0,.15-.01.23-.05.03-.02.06-.02.08-.02.12,0,.13.2.19.23.07.04.26.35.42.45.14.09.27.21.4.21.02,0,.04,0,.06,0,.04-.01.07-.02.1-.02.05,0,.08.02.1.02,0,0,0,0,0,0h0s.44.2.51.58c.03.17.06.46.06.46,0,0-.14.48-.19.48,0,0,0,0,0,0,0,0,0,0-.01,0-.06,0-.25.18-.35.18,0,0-.01,0-.02,0,0,0-.02,0-.03,0-.11,0-.34.14-.42.18-.06.02-.18.08-.29.08-.05,0-.09-.01-.12-.04-.02-.02-.04-.03-.07-.03-.06,0-.14.03-.22.06.12.14.33.34.79.53.28.12,1.47.92,1.47.92,0,0,.38.32,1.04.5,0,0,.04.21.31.61.1.15,0,.6,0,.6l-.31.48-1.24-.48s-1.8.4-2.21.4h-.02c.06.09.1.17.13.23.2.36.32.51.57.56.15.03.37.08.61.08.15,0,.31-.02.47-.08.06-.02.11-.04.16-.04.24,0,.26.31.38.35.15.05.54.53.86.69.28.14.56.31.82.31.04,0,.08,0,.12-.01.08-.02.15-.03.2-.03.11,0,.16.03.2.03,0,0,.01,0,.02,0,0,0,0,0,0,0,.1,0,.91.3,1.05.89.06.27.13.71.13.71,0,0-.29.74-.39.74,0,0,0,0,0,0,0,0-.01,0-.02,0-.12,0-.52.28-.72.28-.02,0-.03,0-.04,0-.02,0-.04,0-.06,0-.23,0-.7.22-.86.27-.12.04-.38.12-.59.12-.1,0-.18-.02-.24-.07-.03-.03-.08-.04-.14-.04-.24,0-.64.17-.86.17-.04,0-.08,0-.11-.02-.03-.01-.06-.02-.09-.02-.2,0-.5.2-.69.2-.03,0-.06,0-.08-.02-.02-.01-.06-.02-.1-.02-.07,0-.16.02-.26.05.13.42.26.81.45.87.18.05.44.13.72.13.18,0,.37-.03.55-.13.07-.04.13-.06.19-.06.28,0,.31.49.45.56.17.08.63.84,1.02,1.09.09.06.19.09.28.09.29,0,.56-.23.82-.31.1-.03.18-.04.24-.04.13,0,.19.05.24.05,0,0,.01,0,.02,0,0,0,0,0,0,0,.12,0,1.07.48,1.24,1.42.07.42.16,1.12.16,1.12h-.01c-.07,0-.37,0-.46-.08,0,0-.02,0-.03,0-.15,0-.62.44-.85.44-.02,0-.03,0-.05,0-.02,0-.05-.01-.07-.01-.27,0-.83.35-1.02.43-.15.06-.45.19-.69.19-.11,0-.22-.03-.28-.11-.04-.05-.1-.06-.17-.06-.17,0-.43.1-.66.18.23.22.48.45.78.7.44.37,1.66,1.19,1.66,1.19,0,0,.41.19,1.03.19.47,0,1.05-.11,1.68-.48.67-.4,1.58-.92,2.28-.92.07,0,.14,0,.2.02l-.9,2.06s-.55,1.32-.87,1.61c-.31.29-1.04.73-1.66.73-.58,0-.97.75-1.28.75-.03,0-.05,0-.07-.02-.03-.01-.06-.02-.1-.02-.38,0-1.19.6-1.57.6-.41,0-1.04.44-1.77.72-.19.07-.35.1-.51.1-.39,0-.68-.17-1.01-.17-.05,0-.1,0-.15.01-.24.04-.56.05-.88.05-.38,0-.75-.02-.95-.05-.38-.06-1.7-.23-2.22-.82-.14-.15-.3-.22-.5-.22-.54,0-1.29.48-2.2.8-.49.17-.87.23-1.18.23-.49,0-.83-.14-1.21-.23-.21-.05-.51-.07-.84-.07-.67,0-1.48.07-1.96.07-.73,0-1.97-.73-1.97-.73l1.97-1.31s.52-.44,1.87-2.05c.56-.67,1.31.12,2.56-1.62l2.74-1.06s.15-.21.39-.54c-.02-.05-.04-.1-.06-.16-.08-.23-.21-.3-.38-.3-.35,0-.84.32-1.21.32-.05,0-.1,0-.15-.02-.15-.04-.28-.05-.4-.05-.08,0-.16,0-.23,0-.22,0-.41-.04-.6-.35-.11-.18-.23-.24-.36-.24-.26,0-.55.23-.79.23-.03,0-.05,0-.08,0-.22-.05-.52-.1-.8-.1-.21,0-.41.03-.56.1-.2.09-.56.25-.81.25-.18,0-.31-.08-.25-.33,0,0,.21-.33.8-1.25.22-.34.22-.75.39-1.09.17-.34.43-.34.72-.59.1-.08.21-.11.32-.11.21,0,.4.11.4.11h.94l.93-.67s.23.19.49.19c.13,0,.27-.05.4-.19.38-.42.34.08,1.45-.59.17-.1.3-.58.41-.98,0-.02-.02-.03-.03-.05-.06-.14-.18-.19-.32-.19-.29,0-.7.2-1.02.2-.04,0-.09,0-.13-.01-.12-.03-.24-.03-.34-.03-.07,0-.14,0-.2,0-.19,0-.35-.03-.5-.22-.09-.11-.2-.15-.31-.15-.22,0-.46.14-.67.14-.02,0-.04,0-.07,0-.19-.03-.44-.06-.68-.06-.18,0-.35.02-.47.06-.02,0-.05.01-.08.01-.32,0-.92-.51-.82-.85,0,0,.18-.21.68-.79.18-.21.18-.47.33-.69.14-.21.36-.21.61-.37.08-.05.18-.07.27-.07.18,0,.34.07.34.07h.79l.79-.42s.19.12.42.12c.11,0,.23-.03.34-.12.32-.26.29.05,1.22-.37.25-.11.4-.96.53-.96,0,0,0,0,0,0,0,0,0,0,0,0,.02,0,.06-.02.11-.07l-.72-.17-.87-.32s-.31-.09-.68-.09c-.19,0-.39.02-.57.09,0,0-.58.48-1.01.52l-.27-.6,1.28-1.11s.39-.52,1.04-.88c0,0,1.08-.48,1.3-.56.1-.04.41-.22.72-.41-.04-.05-.08-.12-.11-.2-.03-.09-.09-.12-.16-.12-.14,0-.34.13-.5.13-.02,0-.04,0-.06,0-.06-.02-.11-.02-.16-.02-.04,0-.07,0-.1,0-.09,0-.17-.02-.25-.15-.04-.07-.1-.1-.15-.1-.11,0-.22.09-.33.09-.01,0-.02,0-.03,0-.09-.02-.21-.04-.33-.04-.09,0-.17.01-.23.04-.01,0-.02,0-.04,0-.16,0-.45-.34-.4-.56,0,0,.09-.14.33-.52.09-.14.09-.31.16-.45.07-.14.17-.14.3-.24.04-.03.09-.05.13-.05.09,0,.17.05.17.05h.38l.38-.28s.09.08.2.08c.05,0,.11-.02.16-.08.16-.17.14.04.59-.24.12-.07.2-.63.26-.63,0,0,0,0,0,0,0,0,0,0,0,0,0,0,0,0,.01,0h0s-.11-.05-.16-.05c-.11,0-.2.05-.2.05h-.3l-.34-.27s.15-.49.34-.49c.03,0,.07.02.11.05l.36-1.04.34-.59.74-1.55.26-.19M29.03,11.88c-.09,0-.17.03-.25.08l-.26.19c-.06.04-.1.1-.13.16l-.74,1.55-.32.56s-.02.05-.03.07l-.26.73c-.31.12-.48.51-.56.76-.05.17,0,.35.14.46l.34.27s.05.04.08.05c-.07.01-.14.04-.22.09-.05-.03-.1-.05-.16-.05-.09,0-.18.04-.27.1l-.27.2h-.16c-.07-.02-.16-.05-.25-.05-.15,0-.29.05-.4.15-.02.02-.04.03-.06.04-.09.05-.24.13-.34.34-.05.1-.08.2-.1.28-.01.05-.03.11-.04.12l-.33.52s-.05.09-.06.14c-.05.23.03.5.22.73.1.13.32.34.6.34.06,0,.16-.02.22-.05,0,0,0,0,0,0,0,0,.02,0,.05,0,.08,0,.18.01.24.03.03,0,.09.01.12.01.09,0,.17-.02.23-.04.08.09.18.14.3.17-.37.16-.84.37-.92.4-.65.36-1.06.83-1.18.97l-1.25,1.09c-.14.12-.19.32-.11.49l.27.6c.07.15.22.25.38.25.01,0,.03,0,.04,0,.47-.04.98-.41,1.18-.56.11-.03.23-.04.37-.04.3,0,.57.07.57.07l.83.31s.03.01.05.02l.11.03s0,0,0,0c-.04.11-.11.3-.17.38-.4.18-.56.18-.68.19-.18,0-.35.03-.59.22-.01.01-.03.02-.07.02-.08,0-.17-.04-.2-.06-.07-.04-.14-.06-.22-.06-.07,0-.14.02-.2.05l-.7.37h-.61c-.09-.03-.25-.07-.42-.07-.19,0-.35.05-.5.14-.07.04-.14.07-.2.1-.16.07-.37.16-.53.4-.09.14-.14.28-.19.4-.04.12-.07.19-.11.24l-.68.79s-.07.1-.08.16c-.05.17-.06.45.19.78.23.31.66.61,1.04.61.08,0,.15-.01.22-.04.03-.01.12-.04.33-.04.26,0,.51.04.61.05.04,0,.09.01.14.01.17,0,.32-.05.45-.09.08-.02.17-.05.21-.05.25.33.55.37.81.37h.1s.1,0,.1,0c.07,0,.15,0,.24.02.07.02.14.02.22.02.22,0,.45-.06.65-.12.07-.02.16-.04.23-.06-.05.18-.12.36-.16.43-.49.29-.69.3-.81.31-.22,0-.42.04-.69.33-.04.05-.07.05-.09.05-.08,0-.19-.06-.23-.09-.08-.06-.17-.09-.27-.09-.09,0-.17.03-.24.08l-.82.59h-.7c-.11-.05-.3-.11-.5-.11-.22,0-.43.07-.59.21-.08.07-.16.11-.25.16-.19.1-.42.23-.58.56-.1.19-.15.38-.19.56-.05.18-.09.35-.18.49l-.8,1.25s-.05.09-.06.14c-.07.3.03.5.11.61.09.11.25.24.55.24.35,0,.77-.18.99-.29.03-.02.14-.05.37-.05.21,0,.47.03.71.09.06.01.11.02.17.02.21,0,.39-.08.55-.15.07-.03.17-.07.22-.08,0,0,.01.02.02.03.29.49.65.56.96.56h.12s.11,0,.11,0c.08,0,.18,0,.28.04.09.03.18.04.27.04.27,0,.54-.1.78-.19.13-.05.28-.11.38-.12-.07.09-.12.17-.16.22l-2.62,1.01c-.08.03-.14.08-.19.15-.67.95-1.12,1.03-1.55,1.1-.32.06-.68.12-.99.49-1.29,1.54-1.82,1.99-1.82,2l-1.94,1.28c-.12.08-.19.22-.19.36,0,.15.08.28.21.35.14.08,1.37.79,2.19.79.23,0,.53-.01.85-.03.36-.02.76-.04,1.11-.04s.59.02.75.05c.09.02.18.05.27.07.29.08.61.17,1.03.17s.83-.08,1.32-.26c.36-.13.7-.28.99-.41.42-.19.82-.37,1.07-.37.1,0,.14.03.18.08.58.66,1.84.85,2.38.94h.09c.24.05.63.07,1.02.07.26,0,.64-.01.95-.06.03,0,.05,0,.08,0,.1,0,.22.03.36.06.19.05.4.1.65.1.22,0,.44-.04.66-.13.29-.12.57-.25.81-.37.3-.15.64-.32.8-.32.29,0,.62-.17.97-.35.17-.09.45-.23.57-.25.06.02.13.03.19.03.29,0,.51-.2.72-.4.18-.16.38-.35.55-.35.77,0,1.59-.5,1.95-.84.35-.33.83-1.43.97-1.76l.9-2.06c.05-.12.05-.26-.02-.37-.06-.11-.17-.19-.3-.21-.09-.01-.18-.02-.27-.02-.8,0-1.71.5-2.5.98-.47.28-.96.42-1.46.42-.43,0-.74-.11-.83-.14-.19-.13-1.14-.77-1.54-1.1h.01c.3,0,.61-.13.8-.2l.05-.02c.07-.03.17-.08.29-.14.13-.07.44-.23.56-.25.05,0,.1.02.13.02.26,0,.51-.17.75-.33.04-.03.07-.05.11-.07.11.03.26.05.48.05.12,0,.24-.05.32-.14.08-.09.12-.21.11-.33,0,0-.08-.71-.16-1.15-.2-1.13-1.3-1.76-1.65-1.77-.07-.02-.16-.04-.27-.04s-.24.02-.37.07c-.11.04-.23.09-.35.16-.12.06-.26.13-.34.13-.01,0-.03,0-.05-.02-.16-.11-.39-.39-.56-.61-.18-.23-.3-.37-.41-.45,0-.02-.02-.04-.02-.06-.08-.18-.25-.6-.71-.6-.13,0-.26.04-.39.11-.1.06-.22.08-.36.08-.19,0-.38-.05-.54-.1-.01-.02-.03-.05-.04-.08.12-.02.23-.07.34-.11.05-.02.13-.05.18-.07.07.02.14.03.22.03.17,0,.35-.05.53-.09.09-.02.22-.06.29-.07.12.07.26.11.42.11.25,0,.51-.08.66-.13.1-.03.19-.06.29-.1.12-.05.38-.15.48-.16.04,0,.08.01.11.01.21,0,.42-.11.63-.21.04-.02.09-.04.12-.06h0c.3,0,.47-.22.78-1.01.03-.07.04-.15.02-.22,0,0-.07-.46-.14-.74-.2-.84-1.21-1.22-1.45-1.22-.05-.01-.13-.03-.23-.03s-.2.01-.31.04h0c-.12,0-.3-.1-.47-.18l-.17-.09c-.13-.06-.32-.24-.45-.37-.13-.12-.23-.22-.34-.28-.1-.17-.27-.43-.64-.43-.1,0-.21.02-.32.07-.09.04-.19.05-.31.05-.17,0-.34-.04-.47-.07-.05,0-.08-.02-.12-.05.54-.09,1.18-.23,1.49-.3l1.12.43s.1.03.15.03c.14,0,.28-.07.36-.2l.31-.48s.05-.09.06-.14c.06-.28.1-.67-.06-.92-.2-.3-.25-.47-.25-.47-.04-.15-.15-.27-.3-.32-.56-.16-.88-.42-.88-.42-.21-.14-1.04-.7-1.44-.91.02,0,.03-.01.05-.02.01,0,.02,0,.03,0,.18,0,.33-.1.45-.18,0,0,0,0,0,0,.29-.05.39-.38.5-.78.02-.05.02-.11.01-.17,0,0-.04-.3-.07-.48-.1-.55-.6-.9-.88-.93-.04-.01-.09-.02-.15-.02-.04,0-.09,0-.14.01-.03-.02-.06-.04-.09-.06l-.09-.06s-.13-.14-.18-.2c-.06-.07-.11-.13-.16-.18-.03-.06-.06-.11-.09-.16.13-.11.22-.27.27-.38l.17-.48s.02-.07.02-.11c.03-.42.01-.67-.15-.84-.08-.08-.23-.15-.35-.15-.1,0-.18.03-.25.06-.15-.13-.27-.26-.36-.35l-.07-.08s-.12-.17-.2-.28l-.24-1.81c-.02-.15-.12-.27-.25-.33-.05-.02-.11-.03-.17-.03h0Z"/>
          </g>
          <g class="st3">
            <path class="st6" d="M31.74,18.56s-.28.21-.37.17c-.09-.04-.35.14-.43.17-.08.04-.31.14-.39.04-.05-.06-.17,0-.29.03.12.14.32.34.77.53.03.01.06.03.11.06.11-.06.26-.14.33-.11.09.04.34-.21.38-.17.04.04.19-.48.19-.48,0,0-.03-.29-.06-.46-.01-.07-.04-.13-.07-.19-.04.13-.14.45-.17.42Z"/>
            <path class="st6" d="M30.52,15.15l-.08.25s-.14.32-.27.26c-.12-.05-.19-.11-.29,0-.1.11-.27.11-.41,0-.09-.06-.13,0-.2.1,0,.02.02.04.03.06.09.23.15.33.27.37.12.04.25.24.43.13.16-.09.26-.04.3.04.1-.05.2-.26.2-.26l.15-.44c.03-.52-.02-.57-.13-.52Z"/>
            <path class="st6" d="M27.52,16.37s.27-.09.36,0c.1.09-.06-.73,0-.71,0,0,0,0,.02,0,0,0,0,0,0,0-.14-.11-.35,0-.35,0h-.22s0,0-.01,0h-.06l-.05-.04c-.18.03-.32.49-.32.49l.34.27h.3Z"/>
            <path class="st6" d="M36.71,32.61s-.36,0-.46-.08c-.1-.09-.68.51-.9.42-.22-.08-.85.34-1.06.42-.21.08-.74.33-.95.08-.13-.16-.67-.04-.8.12-.11.14-.09.52.13.71.16-.04.7-.29.83-.12.2.26.76,0,.98-.08s.86-.5,1.09-.42c.23.08.83-.51.93-.42.1.09.47.08.47.08,0,0-.08-.7-.16-1.12-.04-.23-.13-.43-.24-.61.07.43.13,1.02.13,1.02Z"/>
            <path class="st6" d="M35.63,26.23s-.3.79-.39.74c-.09-.05-.58.32-.76.27-.19-.05-.72.21-.89.26-.17.05-.63.21-.8.05-.17-.16-.87.21-1.08.11s-.66.26-.83.16c-.07-.04-.2-.02-.34.03.08.26.15.5.24.67.07-.01.14,0,.18.01.18.11.65-.26.86-.16.21.11.93-.26,1.11-.11s.65,0,.83-.05c.18-.05.73-.32.92-.26.19.05.7-.32.79-.27.09.06.4-.74.4-.74,0,0-.07-.44-.13-.71-.03-.12-.08-.22-.15-.31.03.17.05.31.05.31Z"/>
            <path class="st6" d="M33.75,22.13l-.3.48-1.2-.48s-1.82.42-2.17.4c.05.09.1.17.13.23.12.22.21.36.32.45.67-.1,1.85-.36,1.85-.36l1.24.48.31-.48s.1-.45,0-.6c-.06-.09-.11-.17-.15-.24-.01.07-.02.12-.02.12Z"/>
            <path class="st6" d="M20.41,33.24c.34-.16.98-.09,1.36,0,.38.09.89-.55,1.23.02.34.57.68.24,1.23.4.49.15,1.28-.55,1.63-.2.06-.09.15-.21.25-.36-.02-.05-.04-.1-.06-.16-.25-.75-1.15.17-1.69,0-.54-.17-.87.17-1.2-.4-.33-.57-.82.07-1.2-.02s-.99-.16-1.32,0c-.27.13-.86.38-1.01.16-.21.34-.3.47-.3.47-.13.59.72.25,1.06.09Z"/>
            <path class="st6" d="M39.62,35.03l-.55,1.3s-.54,1.32-.84,1.61c-.3.29-1.01.73-1.61.73s-1.01.88-1.31.73c-.3-.14-1.21.58-1.61.58s-1.01.44-1.71.72c-.71.29-1.11-.14-1.61-.05-.5.09-1.41.06-1.78,0-.37-.06-1.65-.23-2.15-.81-.5-.58-1.41.15-2.62.58s-1.71.15-2.32,0c-.6-.15-2.01,0-2.72,0-.45,0-1.11-.3-1.53-.52l-.75.5s1.25.73,1.97.73,2.18-.15,2.81,0c.62.15,1.14.44,2.39,0s2.18-1.17,2.7-.58c.52.58,1.84.75,2.22.82.38.06,1.31.08,1.83,0,.52-.09.94.34,1.66.05.73-.29,1.35-.72,1.77-.72s1.35-.73,1.66-.58c.31.15.73-.73,1.35-.73s1.35-.44,1.66-.73c.31-.29.87-1.61.87-1.61l.9-2.06c-.21-.03-.44,0-.69.05Z"/>
            <path class="st6" d="M25.22,19.28c.14-.07.4-.04.56,0,.16.04.37-.23.51,0,.13.21.25.12.44.15.09-.04.61-.09.66-.11.1-.04-.04-.21.26-.39-.04-.05-.08-.12-.1-.2-.1-.31-.47.07-.69,0-.22-.07-.36.07-.49-.17s-.34.03-.49,0c-.15-.04-.41-.07-.54,0-.07.04-.21-.06-.31-.19-.16.26-.23.36-.23.36-.05.24.3.62.44.55Z"/>
            <path class="st6" d="M24.56,22.69c.55-.2,1.26,0,1.26,0l.87.32.72.17c.11-.28-.67-.88-.67-.88l-.84-.32s-.68-.2-1.22,0c0,0-.56.48-.98.52l-.08-.18-.34.3.27.6c.43-.04,1.01-.52,1.01-.52Z"/>
            <path class="st6" d="M21.87,27.68c.29-.1.83-.05,1.15,0,.32.06.75-.35,1.04.01.29.36.57.15,1.04.25.42.09,1.1-.37,1.39-.11.06-.17.11-.37.16-.55,0-.02-.02-.03-.03-.05-.21-.48-.97.11-1.43,0-.45-.11-.73.11-1.01-.26-.28-.36-.7.04-1.01-.01-.31-.05-.84-.1-1.11,0-.2.07-.61-.2-.79-.49-.22.26-.31.36-.31.36-.11.37.61.95.9.84Z"/>
          </g>
        </g>
        <path class="st1" d="M28.17,42.59s-.21,3.38,0,5.15"/>
        <path class="st1" d="M25.54,35.03c-.54.69-1.72.22-2.18.88-.28.39-.54.8-.91,1.13-.29.26-.64.43-.96.67"/>
        <path class="st1" d="M25.99,29.71c-.5.09-.97.45-1.45.63-.54.21-1.18.45-1.76.5-.3.02-.57-.03-.86.06-.43.13-.96.47-1.28.79"/>
        <path class="st1" d="M26.7,24.72c-.47.21-1.01.34-1.52.35-.39,0-1.23.19-1.29.67"/>
        <path class="st1" d="M27.51,20.1c-.51-.12-.92.9-1.55.85"/>
        <path class="st1" d="M28.63,13.13c.01.38-.27.95-.46,1.27"/>
        <path class="st1" d="M25.89,18.02c.42-.16,1.09-.04,1.44-.28"/>
      </g>
    </g>
  </g>
</svg>