<?xml version="1.0" encoding="UTF-8"?>
<svg id="Layer_1" xmlns="http://www.w3.org/2000/svg" version="1.1" viewBox="0 0 3079.56 2236.19">
  <!-- Generator: Adobe Illustrator 29.8.5, SVG Export Plug-In . SVG Version: 2.1.1 Build 2)  -->
  <defs>
    <style>
      .st0 {
        fill: #fcce00;
      }

      .st1 {
        fill: #0082c4;
      }
    </style>
  </defs>
  <g>
    <path class="st1" d="M1825.19.29c6.42-.23,14.25-.52,20.53,0,1.75,3.32,6.98,1.93,10.26,2.05,7.8,1.45,19.24,3.9,26.69,6.15l8.21,2.05c15.98,5.37,35.89,18.27,49.27,28.72.89,2.94,3.16,4.07,6.16,4.1.72.63,1.33,1.41,2.05,2.05,3.92,3.5,13.06,12.55,16.42,16.41,16.73,19.16,25.01,36.35,34.9,59.49l4.11,8.21c.76,2.9,1.49,8.81,2.05,12.31l2.05,8.21c.19,2.02-.11,4.12,0,6.15.55,10.27.47,22.52,0,32.82-.06,1.36.08,2.74,0,4.1-3.33,1.75-1.93,6.97-2.05,10.26-.09.67.11,1.39,0,2.05l-2.05,8.21c-.19.62.2,1.44,0,2.05l-4.11,8.21c-5.15,12.06-10.39,25.34-16.42,36.92l-8.21,12.31c-.55.74-1.44,1.32-2.05,2.05-2.87,1.01-4.09,3.15-4.11,6.15-7.13,7.55-18.62,17.93-26.69,24.62-3,.03-5.27,1.16-6.16,4.1-1.96,1.48-6.84,5.3-8.21,6.15-3,.03-5.27,1.16-6.16,4.1-5.83,3.16-16.41,7.92-22.58,10.26l-51.32,10.26c-.68.03-1.37-.03-2.05,0-15.17.66-31.97.38-47.22,0-.68-.02-1.37.02-2.05,0-7.09-2.11-18.23-3.86-25.57-4.19-6.19-.27-8.1-.43-13.43,2.14-4.62,2.22-5.42,5.37-8.21,8.21s-8.35,4.41-8.21,10.26c-4.17,3.81-6.46,6.12-10.26,10.26-2.03,2.2-6.63,3-6.16,8.21-1.02,1.16-2.68,2.52-4.11,4.1l-4.11,6.15c-1.37,1.66-3.89,3.33-6.16,6.15l-4.11,6.15c-.58.74-1.47,1.3-2.05,2.05-2.87,1.01-4.09,3.15-4.11,6.15-2.14,2.75-4.08,5.52-6.16,8.21-2.94.89-4.08,3.16-4.11,6.15-.57.75-1.48,1.29-2.05,2.05-2.87,1.01-4.09,3.15-4.11,6.15-1.13,1.49-2.99,2.61-4.11,4.1-2.86,1.03-4.14,3.12-4.11,6.15-2.55,3.39-5.57,6.75-8.21,10.26-2.94.89-4.08,3.16-4.11,6.15-2.04,2.72-4.11,5.48-6.16,8.21-2.94.89-4.08,3.16-4.11,6.15-2.03,2.74-4.11,5.4-6.16,8.21-2.94.89-4.08,3.16-4.11,6.15-.55.74-1.49,1.29-2.05,2.05-2.87,1.01-4.09,3.15-4.11,6.15-.58.74-1.45,1.31-2.05,2.05-2.87,1.01-4.09,3.15-4.11,6.15-.24.3-2.81.48-4.11,2.05-2.9.95-4.06,3.17-4.11,6.15-2.33,2.75-4.11,5.83-6.16,8.21-2.94.89-4.08,3.16-4.11,6.15-.86,1-2.9,2.89-4.11,4.1-2.99,3-8.32,4.42-8.21,10.26-3.53,3.1-8.65,7.83-12.32,10.26-13.72,3.96-27.61,7.37-42,8.29-131.32,8.37-277.36-1.52-410.71-.12-3.47.04-9.13-1.31-11.26,2.09-182.85,2.52-335.57,37.35-460.92,178.43-245.59,276.41-175.48,698.53,150.88,872.89,128.04,68.41,218.35,63.82,359.32,64.57h342.85c4.79,0,9.59-.03,14.37,0,4.14,3.87,12.61,1.81,18.48,2.05,2.03.08,4.15-.2,6.16,0l8.21,2.05c21.07,4.95,32.99,10.68,47.22,26.67.02,3.01,1.24,5.15,4.11,6.15.6.75,1.6,1.35,2.05,2.05.03,2.99,1.16,5.26,4.11,6.15,9.05,13.18,19.05,24.33,28.74,36.92.02,3.01,1.24,5.15,4.11,6.15.6.74,1.53,1.32,2.05,2.05.03,2.99,1.16,5.26,4.11,6.15,10.74,13.78,22.35,27.46,32.85,41.03.03,2.99,1.16,5.26,4.11,6.15,20.08,26.01,38.72,53.43,59.45,79.01,11.69-2.73,23.03-5.45,34.98-7.22,3.29-.12,8.51,1.27,10.26-2.05,2.71-.2,5.49.12,8.21,0,11.02-.49,23.89-.52,34.9,0,2.71.13,5.52-.26,8.21,0l8.21,2.05c40.75,7.95,78.08,27.48,106.75,57.44.02,3.01,1.24,5.15,4.11,6.15.62.73,1.5,1.32,2.05,2.05l8.21,12.31c6.79,12.29,13.14,25.99,18.48,38.97-.08,3.87.58,8.03,4.11,10.26.47,1.49,1.66,7.98,2.05,10.26.12,3.29-1.27,8.5,2.05,10.26.11,1.35-.07,2.74,0,4.1.54,10.96.51,23.9,0,34.87-.06,1.36.08,2.74,0,4.1-3.33,1.75-1.93,6.97-2.05,10.26-.09.67.11,1.39,0,2.05l-2.05,8.21c-.18.64.2,1.44,0,2.05-3.52,2.22-4.19,6.39-4.11,10.26-3.54,8.77-8.23,20.41-12.32,28.72l-4.11,6.15c-.71,1.34-1.41,3.01-2.05,4.1l-8.21,12.31c-.62.72-1.37,1.39-2.05,2.05-2.4,2.34-6.49,3.05-6.16,8.21-6.1,5.46-12.45,10.87-18.48,16.41-5.16-.33-5.88,3.76-8.21,6.15-.66.68-1.33,1.46-2.05,2.05-3,.03-5.27,1.16-6.16,4.1-1.53,1.12-4.51,3.09-6.16,4.1-3,.03-5.27,1.16-6.16,4.1-4.98,2.81-11.2,5.92-16.42,8.21l-41.06,12.31c-.67.1-1.38-.09-2.05,0-6.07.8-7.52-.46-14.37,2.05-1.44.53-3.11.39-4.11,2.05h-4.11c-3.83-3.46-14.65-3.46-18.48,0h-2.05c-2.12-3.79-5.7-3.43-9.29-4.05-30.67-5.36-48.41-10.86-74.7-27.92-87.52-56.77-85.78-137.08-56.56-228.46,2.61-8.16,12.83-26.79,10.87-33.47-48.19-61.85-94.96-124.79-141.74-187.69l-501.61-.37c-242.65-18.92-462.4-162.87-557.66-388.44-180.31-426.96,123.83-864.17,572.03-889.68l487.65-.96,142.87-187.55c-40.32-68.32-50.71-157.9,3.91-221.69C1726.66,23.9,1769.68,2.32,1825.19.29ZM1828.9,80.88c-122.97,5.19-115.61,174.32-4.7,183.99,43.05,3.75,71.96-21.2,89.62-58.08,3.31-6.91,14.17-33.01,13.91-39.14-.37-8.72-15.28-36.76-20.81-44.92-18.99-27.99-43.3-43.31-78.02-41.85ZM1816.52,1968.04c-99.92,10.77-103.71,159.86-12.32,179.38,59.69,12.75,94.36-11.7,115.8-65.73,7.25-18.27,6.7-21.79.57-40.29-16.72-50.51-48.81-79.32-104.05-73.36Z"/>
    <path class="st1" d="M2915.32,420.8l8.21,2.05c30.34,5.11,60.17,17.99,84.17,36.92l6.16,4.1c1.16,1.01,2.5,2.67,4.11,4.1,3.14,2.81,9.36,9.11,12.32,12.31,2.66,2.88,6.27,5.96,8.21,8.21.03,2.99,1.16,5.26,4.11,6.15,9.95,13.26,17.53,28.15,24.64,43.08l4.11,8.21c3.27,10.83,5.41,21.57,6.16,32.82.23,3.38-.04,6.86,0,10.26.06,5.8-1.68,14.4,2.05,18.46v10.26c-4.86,8.2-5.12,20.08-8.21,28.72-3.77,1.07-4.46,4.63-4.11,8.21-3.07,5.62-7.12,13.19-10.26,18.46l-8.21,12.31c-.54.74-1.45,1.32-2.05,2.05-2.87,1.01-4.09,3.15-4.11,6.15-1.18,1.28-2.8,2.77-4.11,4.1-3.56,3.61-10.08,5.91-10.26,12.31-1.23,1.23-3.05,3.16-4.11,4.1-6.99.75-10.22,6.37-14.37,10.26-2.94,2.76-5.41,5.45-8.21,8.21-6.06.87-10.06,6.5-14.37,10.26-.72.63-1.32,1.45-2.05,2.05l-18.48,12.31c-2,1.22-5.4,2.47-8.21,4.1l-6.16,4.1c-1.77,1.2-4.86,1.06-6.3,3.42-2.21,3.62-1.28,7.43-1.91,10.94-3.33,1.75-1.93,6.97-2.05,10.26-.93,11.73.22,24.92,0,36.92-2.31,128.34.1,257.25,0,385.64-.06,85.44.15,170.97,0,256.41-.13,76.77,2.18,155.26,0,231.8-.12,4.07.33,8.27,0,12.31-3.33,1.75-1.93,6.97-2.05,10.26-1.24,4.3-4.26,12.41-6.16,16.41l-12.32,12.31c-1.3.72-2.73,1.48-4.11,2.05-21.99,6.17-37.25,4.69-53.38-12.31-7.57-11.12-11.45-20.26-10.26-34.87l.1-930.36c-1.29-9.56-18.47-17.18-26.79-21.44-.74-.61-1.33-1.42-2.05-2.05-3.72-3.24-6.35-7.71-12.32-8.21-1.6-1.46-2.85-2.95-4.11-4.1-3.79-3.47-6.48-7.67-12.32-8.21-2.51-2.32-3.85-3.7-6.16-6.15-2.99-3.18-4.48-8.22-10.26-8.21-.65-.71-1.38-1.37-2.05-2.05-2.75-2.79-5.45-5.45-8.21-8.21-3.62-3.61-6.58-6.26-10.26-10.26.27-5.13-3.65-5.85-6.16-8.21s-3.9-3.76-6.16-6.15c-.24-5.99-5.47-8.72-8.21-12.31-11.6-15.16-15.27-26.64-18.48-45.13l-2.05-8.21c-.11-1.35.08-2.74,0-4.1-.62-10.66-.62-24.21,0-34.87.08-1.36-.11-2.75,0-4.1l2.05-8.21c6.78-41.25,21.8-61.07,49.27-90.26l6.16-6.15c3.67-3.49,5.46-6.51,10.26-10.26,3.05.04,5.12-1.24,6.16-4.1,21.13-14.6,44.54-25.12,69.8-30.77l8.21-2.05c1.3-.21,2.79.17,4.11,0,3.46-.44,8.95-1.96,10.26-2.05,8.97-.61,21.91-.74,30.79,0ZM2886.04,501.3c-28.03,4.49-62.82,30.36-75.83,55.51s-4.88,75.52,13.73,97.87c15.42,18.53,29.7,25.01,53.42,26.62,84.95,5.76,119.2-26.35,111.94-111.85-3.37-39.68-66.56-74.03-103.26-68.15Z"/>
    <path class="st1" d="M2252.21,365.42c5.88-.35,12.56-.23,18.48,0,3.39.13,6.9-.3,10.26,0l8.21,2.05c43.61,7.56,70.3,22.2,102.65,51.28-.31,5.13,3.7,5.85,6.16,8.21,1,.96,3.52,3.37,4.11,4.1.03,2.99,1.16,5.26,4.11,6.15,11.79,16.44,25.68,44.14,30.79,63.59l2.05,8.21c.1.66-.05,1.38,0,2.05.31,3.87-1.59,10.01,2.05,12.31.05,2.73-.02,5.47,0,8.21.03,5.46.04,10.95,0,16.41-.01,2.05.03,4.1,0,6.15-3.58,2.29-1.82,8.42-2.05,12.31-.04.68.09,1.39,0,2.05l-2.05,8.21c-1.43,5.97-4.22,14.37-6.16,20.51l-4.11,8.21c-4.03,7.38-8.09,15.36-12.32,22.56l-8.21,12.31c-.55.74-1.44,1.32-2.05,2.05-2.87,1.01-4.09,3.15-4.11,6.15-5.74,6.43-14.08,14.67-20.53,20.51-5.97.38-8.64,5.19-12.32,8.21-.74.61-1.31,1.47-2.05,2.05-3,.03-5.27,1.16-6.16,4.1-.77.53-2.67,1.2-4.11,2.05l-6.16,4.1c-6.91,3.63-15.3,7.58-22.58,10.26l-8.21,2.05c-1.98.64-4.33,1.57-6.16,2.05l-18.48,4.1c-.68.06-1.37-.04-2.05,0-5.21.28-12.92-1.78-16.42,2.05-.68,0-1.37,0-2.05,0-8.17.05-16.48.27-24.64,0-.68-.02-1.37.03-2.05,0-6.52-3.64-17.03-2.81-24.64-4.1-6.26-1.06-8.96-2.4-14.37-4.1-2.54-4.37-7.02-3.08-10.26-4.1-7.67-2.41-10.21-4.93-16.42-8.21l-24.64-16.41c-8.03-6.27-13.53-10.91-20.53-18.46.25-5.12-3.6-5.84-6.16-8.21-1.48-1.36-2.72-2.8-4.11-4.1.44-5.2-4.06-5.97-6.16-8.21-3.26-3.46-4.01-5.6-6.16-8.21.03-3.04-1.2-5.17-4.11-6.15-9.06-11.98-11.75-14.43-18.48-28.72-1.88-3.99-2.97-9.1-5.97-13.03-52.21-2.8-106.13-1.01-158.89-.92l-5.54,7.8c-.63.72-1.44,1.31-2.05,2.05-2.87,1.01-4.09,3.15-4.11,6.15-.58.74-1.45,1.31-2.05,2.05-2.87,1.01-4.09,3.15-4.11,6.15-.6.74-1.45,1.3-2.05,2.05-2.87,1.01-4.09,3.15-4.11,6.15-1.77,2.22-5.34,4.54-8.21,8.21l-4.11,6.15c-.58.74-1.47,1.3-2.05,2.05-2.87,1.01-4.09,3.15-4.11,6.15-.58.74-1.46,1.3-2.05,2.05-2.87,1.01-4.09,3.15-4.11,6.15-.58.74-1.46,1.3-2.05,2.05-2.87,1.01-4.09,3.15-4.11,6.15-.58.74-1.46,1.3-2.05,2.05-2.87,1.01-4.09,3.15-4.11,6.15-.58.74-1.46,1.3-2.05,2.05-2.87,1.01-4.09,3.15-4.11,6.15-.74.95-2.65,2.33-4.11,4.1l-4.11,6.15c-.59.74-1.42,1.33-2.05,2.05-2.87,1.01-4.09,3.15-4.11,6.15-2.73,2.37-1.59-1.11-6.16,6.15l-4.11,6.15c-.52.74-1.49,1.29-2.05,2.05-2.87,1.01-4.09,3.15-4.11,6.15-.59.74-1.44,1.31-2.05,2.05-2.87,1.01-4.09,3.15-4.11,6.15-.65.71-1.38,1.36-2.05,2.05-2.27,2.3-6.54,3.03-6.16,8.21-.59.74-1.45,1.3-2.05,2.05-2.87,1.01-4.09,3.15-4.11,6.15-.57.75-1.46,1.3-2.05,2.05-2.87,1.01-4.09,3.15-4.11,6.15-.61.73-1.43,1.31-2.05,2.05-2.87,1.01-4.09,3.15-4.11,6.15-.65.71-1.38,1.36-2.05,2.05-2.86,2.97-8.37,4.39-8.21,10.26-.62.73-1.41,1.33-2.05,2.05-2.86,1.01-4.09,3.15-4.11,6.15-4.44,5.52-8.12,10.82-12.32,16.41-2.94.89-4.08,3.16-4.11,6.15-.54.74-1.51,1.29-2.05,2.05-2.87,1.01-4.09,3.15-4.11,6.15-.6.74-1.43,1.32-2.05,2.05-2.87,1.01-4.09,3.15-4.11,6.15-.69.63-1.43,1.7-2.05,2.05l-20.53,4.1c-.68.05-1.37-.03-2.05,0-5.87.26-14.33-1.82-18.48,2.05-.68,0-1.37,0-2.05,0-23.92.12-47.94,0-71.85,0-151.88.05-303.88-.03-455.76,0-30.42,0-60.94-.36-91.39-.04-3.47.04-9.13-1.31-11.26,2.09-.68.03-1.37-.03-2.05,0-29.46,1.44-59.04,7.56-86.23,18.46-6.32,2.53-12.3,5.44-18.48,8.21-8.34,1.12-19.23,5.98-24.64,12.31-1.34.68-2.76,1.39-4.11,2.05-12.24,6.07-15.73,8.36-26.69,16.41-.77.56-1.31,1.47-2.05,2.05-3,.03-5.27,1.16-6.16,4.1-4.03,2.74-4.04,2.31-8.21,6.15-5.14-.32-5.86,3.71-8.21,6.15-1.35,1.4-2.72,2.61-4.11,4.1-9.33,4.29-20.35,15.3-24.64,24.62-1.34,1.38-2.73,2.66-4.11,4.1-8.47,8.92-10.29,12.72-16.42,22.56-1.22,1.95-2.39,3.1-4.11,6.15-5.57,3.33-7.35,9.49-10.26,14.36-4.63,7.73-6.57,12.88-10.26,20.51-3.77,1.07-4.46,4.63-4.11,8.21-6.46,14.65-10.18,23.11-14.37,38.97l-2.05,8.21c-.63,2.69-1.37,4.7-2.05,8.21l-2.05,8.21c-.11.66.11,1.39,0,2.05-3.33,1.75-1.93,6.97-2.05,10.26-.17,1.33.14,2.76,0,4.1-3.58,2.8-2,9.86-2.05,14.36-.03,2.73.01,5.47,0,8.21-3.42,7.59-3.47,22.75,0,30.77.01,2.73-.03,5.47,0,8.21.05,4.5-1.52,11.56,2.05,14.36.08.67-.09,1.38,0,2.05.12,3.29-1.27,8.5,2.05,10.26.1.67-.1,1.38,0,2.05l2.05,8.21c6.64,35.15,16.8,58.23,34.9,88.21.03,2.99,1.16,5.26,4.11,6.15,16.32,26.05,26.44,40.55,49.27,61.54,2.21,2.03,3.01,6.62,8.21,6.15,31.5,35.15,91.8,62.13,137.55,71.79l8.21,2.05c.66.12,1.39-.11,2.05,0l8.21,2.05c1.31.19,2.79-.17,4.11,0,1.75,3.33,6.98,1.93,10.26,2.05,2.68.29,5.51-.23,8.21,0,2.8,3.57,9.87,2,14.37,2.05,34.85.37,69.84,0,104.7,0h303.84c83.1.11,166.27-.12,249.39.04,8.15,1.56,31.35,36.53,38.03,45.08.02,3.01,1.24,5.15,4.11,6.15.59.75,1.47,1.31,2.05,2.05l4.11,6.15c6.48,8.37,14.06,16.27,20.53,24.62.02,3.01,1.24,5.15,4.11,6.15.58.75,1.48,1.31,2.05,2.05.02,3.01,1.24,5.15,4.11,6.15.58.75,1.48,1.31,2.05,2.05.03,2.99,1.16,5.26,4.11,6.15,6.5,8.68,13.76,16.27,20.53,24.62.02,3.01,1.24,5.15,4.11,6.15.6.74,1.46,1.31,2.05,2.05.02,3.01,1.24,5.15,4.11,6.15.56.77,1.49,1.3,2.05,2.05.03,2.99,1.16,5.26,4.11,6.15,7.33,9.85,15.19,19.06,22.58,28.72.02,3.01,1.24,5.15,4.11,6.15.58.76,1.47,1.31,2.05,2.05l4.11,6.15c9.01,11.32,15.87,23.12,26.69,32.82l5.54,7.8,155.77.51c2.41-.3,3.71.72,4.98-2.15,2.01-4.56,3.2-12.09,5.8-17.79,9.68-21.21,16.91-30.5,31.15-47.85,2.91-.98,4.13-3.11,4.11-6.15,5.74-6.42,9.67-10.81,16.42-16.41,3.05.04,5.16-1.21,6.16-4.1,26.55-19.85,49.07-29.12,82.12-34.87l8.21-2.05c2.7-.24,5.5.13,8.21,0,9.7-.46,21.1-.47,30.79,0,2.71.13,5.52-.26,8.21,0l8.21,2.05c39.78,7.28,72.7,24.16,100.6,53.33l4.11,6.15c1.75,2.01,5.63,5.41,6.16,6.15.03,2.99,1.16,5.26,4.11,6.15,5.77,9.12,11.86,20.93,16.42,30.77l4.11,6.15c1.82,4.81,4.76,15.18,6.16,20.51l2.05,8.21c.1.66-.05,1.38,0,2.05.31,3.87-1.59,10.01,2.05,12.31.05,2.73-.02,5.47,0,8.21.03,4.78.03,9.58,0,14.36-.02,3.42.05,6.84,0,10.26-3.57,2.28-1.83,8.42-2.05,12.31-.04.68.07,1.38,0,2.05l-4.11,16.41c-.87,2.78-3.28,10.41-4.11,12.31l-4.11,6.15c-2.51,5.48-5.66,13.83-8.21,18.46-2.94.89-4.08,3.16-4.11,6.15-1.57,2.75-6.26,9.77-8.21,12.31-2.94.89-4.08,3.16-4.11,6.15-2.77,3.23-6.67,5.84-10.26,10.26l-10.26,10.26c-3.57,2.64-7.19,5.97-10.26,8.21-3,.03-5.27,1.16-6.16,4.1-2.03,1.33-4.16,2.86-6.16,4.1-3,.03-5.27,1.16-6.16,4.1-5.13,2.98-11.04,5.67-16.42,8.21-6.73.17-12.43,3.95-18.48,6.15-1.93.7-4.2,1.47-6.16,2.05-8.48,1.05-19.4.87-26.69,4.1-.68.03-1.37-.03-2.05,0-14.58.54-30.55.42-45.17,0-.68-.02-1.37.03-2.05,0l-1.39-1.63c-6.83-.81-14.52-1.08-21.19-2.47-14.56-3.04-20.48-7.4-32.85-14.36l-24.64-16.41c-2.5-2.25-4.14-4.25-6.16-6.15-6.73-6.35-16.39-15.86-22.58-22.56-1.17-1.27-2.66-2.53-4.11-4.1.03-3.03-1.22-5.15-4.11-6.15-.64-.72-1.43-1.32-2.05-2.05.03-3.03-1.22-5.15-4.11-6.15-.59-.74-1.48-1.29-2.05-2.05-.14-4.05-2.6-6.65-6.16-8.21-1.79-2.41-2.92-4.54-4.11-6.15.04-3.05-1.24-5.11-4.11-6.15-4.85-6.79-9.13-15.21-16.42-18.46-9.98-4.45-16.41-3.63-26.69-4.1-.68-.03-1.37.03-2.05,0-2.13-3.4-7.79-2.04-11.26-2.09-14.36-.18-28.81-.15-43.17,0-3.47.04-9.13-1.31-11.26,2.09-1.37-.02-2.74.02-4.11,0-25.57-.37-50.86,1.63-75.96-4.1-12.02-2.74-14.36-4.37-24.64-10.26l-12.32-8.21c-1.61-1.47-2.81-2.89-4.11-4.1-6.5-6.06-14.38-14.01-20.53-20.51-1.99-2.1-3.78-3.32-6.16-6.15.04-3.05-1.24-5.11-4.11-6.15-6.22-8.14-10.74-16.88-16.42-24.62.03-3.03-1.22-5.15-4.11-6.15-.55-.74-1.49-1.29-2.05-2.05.04-3.05-1.21-5.15-4.11-6.15-2.01-2.72-4.12-5.45-6.16-8.21.03-3.03-1.22-5.15-4.11-6.15-.55-.74-1.49-1.29-2.05-2.05.03-3.05-1.21-5.16-4.11-6.15-.68-.91-2.61-2.09-4.11-4.1.03-3.03-1.22-5.15-4.11-6.15-.55-.74-1.49-1.29-2.05-2.05.04-3.05-1.21-5.15-4.11-6.15-2.02-2.71-4.12-5.48-6.16-8.21.03-3.03-1.22-5.15-4.11-6.15-.56-.74-1.48-1.3-2.05-2.05.03-3.03-1.22-5.15-4.11-6.15-.57-.75-1.47-1.29-2.05-2.05.03-3.03-1.22-5.15-4.11-6.15-.57-.75-1.47-1.3-2.05-2.05.03-3.03-1.22-5.15-4.11-6.15-.58-.75-1.47-1.3-2.05-2.05.03-3.03-1.22-5.15-4.11-6.15-.58-.74-1.46-1.3-2.05-2.05.03-3.04-1.2-5.17-4.11-6.15-1.71-2.14-5.42-4.81-8.21-8.21.03-3.03-1.22-5.15-4.11-6.15-.61-.73-1.43-1.32-2.05-2.05.03-3.03-1.22-5.15-4.11-6.15-.61-.73-1.42-1.32-2.05-2.05.02-3.04-1.2-5.17-4.11-6.15-1.66-1.61-10.07-7.09-12.32-8.21-7.51-3.72-8.08-3.5-16.42-4.1-.68-.05-1.37.04-2.05,0l-560.46-2.05c-67.88-3.78-128.07-10.59-190.9-37.98-233.6-101.83-306.05-402.79-130.42-593.84,93.98-102.23,193.66-125.93,328.59-131.17,170.05-6.6,342.69-1.96,513.26-2.23,14.91-.02,28.52,2.71,44.58-.39,13.63-2.62,21.43-7.76,30.25-17.98,2.91-.98,4.13-3.11,4.11-6.15.6-.75,1.46-1.31,2.05-2.05,2.88-1,4.13-3.12,4.11-6.15,10.88-13.62,22.1-27.61,32.85-41.03,2.91-.98,4.13-3.11,4.11-6.15.61-.74,1.44-1.32,2.05-2.05,2.88-1,4.13-3.12,4.11-6.15.62-.73,1.44-1.32,2.05-2.05,2.52-2.98,6.42-4.44,6.16-10.26,10.15-14.53,22.05-27.13,32.85-41.03,2.9-1,4.14-3.1,4.11-6.15.59-.75,1.47-1.31,2.05-2.05,2.88-1,4.13-3.12,4.11-6.15.59-.75,1.47-1.31,2.05-2.05,2.88-1,4.13-3.12,4.11-6.15.59-.75,1.47-1.31,2.05-2.05,2.88-1,4.13-3.12,4.11-6.15,10.76-13.76,21.95-27.32,32.85-41.03,2.9-1,4.14-3.1,4.11-6.15.62-.74,1.43-1.32,2.05-2.05,2.88-1,4.13-3.12,4.11-6.15,4.08-2.81,7.79-2.97,12.32-4.1,3.87-.3,10.01,1.58,12.32-2.05,1.31-.19,2.78.15,4.11,0,3.29-.12,8.51,1.27,10.26-2.05,2.03-.13,4.11.04,6.16,0,4.51-.09,11.55,1.55,14.37-2.05,24.6-.26,49.3.23,73.91,0,8.32,3.42,24.1,3.46,32.85,0,6.12-.14,12.38.38,18.48,0s7.06-.82,12.32-2.05c3.01-.71,5.54.93,9.34-1.91,2.19-1.64,10.43-14.74,13.24-18.61,2.86-1.04,4.15-3.11,4.11-6.15,7.45-9.93,12.55-15.63,20.53-24.62,2.9-.98,4.13-3.11,4.11-6.15,4.08-4.5,8.16-8.09,12.32-12.31,2.55-2.58,5.64-5.79,8.21-8.21,4.29-4.03,7.08-7.97,12.32-12.31l6.16-4.1c22.83-15.77,44.11-26.31,71.85-30.77,3-.48,7.32-1.96,8.21-2.05,3.33-.34,6.89.2,10.26,0ZM2255.78,445.92c-32.08,4.9-79.63,37.63-87.21,70.79-19.11,83.61,69.58,133.38,141.87,98.67,45.86-22.02,62.05-88.1,30.91-128.76-14.31-18.68-62.21-44.27-85.56-40.7ZM2243.51,1606.98c-71.86,9.72-105.57,101.24-46.55,148.02,12.71,10.07,57.03,32.73,72.43,31.86,25.62-1.45,77.07-32.58,83-58.78,3.99-17.63-.81-62.04-8.34-79.01-17.18-38.68-61.93-47.3-100.53-42.08Z"/>
    <path class="st1" d="M2.15,970.55c1.12-42.21,2.92-79.69,41.19-105.51,28.66-19.34,63.97-13.87,96.37-22.68,66-17.96,99.88-71.76,111.89-136.41,3.16-16.98,4.43-21.29-3.47-37.6-22.6-46.65-84.28-98.12-68.49-155.33,11.43-41.4,133.83-147.31,170.54-182.42,33.3-31.85,112.39-119.52,151.29-131.91,45.35-14.44,81.63,9.28,119.28,31.71,11.39,6.79,44.24,32.64,53.83,34.42,46.23,8.55,108.57-30.58,150.21-47.7,30.87-57.56,10.53-138.12,74.43-174.85,14.95-8.59,35.3-14,52.45-15.29,61.91-4.65,126.97-.13,188.76.06,55.12.17,118.7-4.21,172.61-.16,35.95,2.7,70.67,21.83,86.92,54.69,9.09,18.4,11.69,27.18,1.05,45.67-9.87,17.17-22.28,23.7-42.39,20.25-19.95-3.42-27.98-28.78-45.7-36.38l-374.61-.02c-6.88,44.57-17.16,91.57-40.73,130.59-41.73,69.1-137.07,111.6-216.7,100.95-52.72-7.06-93.11-34.13-136.1-62.92-5.53-.97-40.9,24.48-47.67,29.53-70.06,52.26-149.91,128.89-208.38,193.84-9.61,10.67-18.07,22.7-27.41,33.62,37,54.92,76.1,112.7,71.31,182.56-3.26,47.57-30.91,101.6-62.56,136.47-46.43,51.15-117.43,68.27-183.48,76.16l-.27,370.97c60.95,9.48,121.59,20.42,170.41,60.5,59.67,48.99,89.06,142.19,69.19,216.88-11.3,42.45-36.36,73.85-60.79,109.01l269.62,266.09,4.19,1.93c68.83-45.1,135.81-81.66,221.18-58.94,57.95,15.42,114.99,53.43,143.61,106.76,19.01,35.41,27.89,76.79,34.66,116.13l378.78.22c13.48-1.78,19.61-25.9,35.8-31.91,21.39-7.94,53.12,7.76,55.42,30.96.75,7.56-10.61,36.74-14.6,44.69-14.42,28.8-35.4,36.96-66.39,40.33l-402.34-.21c-87.52-24.43-65.81-119.02-95.17-177.72-11.72-23.43-70.48-42.82-95.33-50.39-7.09-2.16-36.53-11.79-41.12-11.35-8.94.87-33,12.88-41.9,17.7-37.12,20.09-87.14,62.63-132.54,57.28-49.62-5.85-129.26-100.74-166.79-136.98-38.74-37.41-157.76-138.84-172.05-182.97-16.74-51.69,39.47-105.17,62.51-147.91,3.7-6.86,12.04-23.13,13.21-30.04,1.38-8.19-9.96-38.83-13.53-48.29-9.41-24.88-26.56-68.01-49.47-81.85-32.72-19.77-81.98-17.49-119.98-31.92-63.38-24.06-69.14-55.82-70.78-119.02-.71-27.32-1.62-54.79-2.05-82.05-.24-15.01.06-30.12,0-45.13-.04-11.6-.04-23.27,0-34.87.05-14.33-.22-28.75,0-43.08.45-28.61,1.29-57.49,2.05-86.15Z"/>
  </g>
  <g>
    <path class="st0" d="M515.68,448.39c71.77-2.71,109.06,80.97,59.93,131.86-64.53,66.85-178.46-25.84-122.03-99.37,13.96-18.2,39.08-31.63,62.1-32.49Z"/>
    <path class="st0" d="M1190.24,229.6c61.04,69.44-28.83,170.66-106.53,109.51-86.71-68.24,31.28-195.12,106.53-109.51Z"/>
    <path class="st0" d="M513.52,1636.06c29.12-3.22,66.4,21.65,77.39,48.79,22.15,54.72-6.13,82.52-54.4,101.46-20.38,8-25.04,8.95-45.67.57-62.7-25.47-71.83-106.84-10.5-138.75,6.68-3.48,26.19-11.31,33.17-12.08Z"/>
    <path class="st0" d="M1131.46,1884.34c99.49-1.78,105.46,145.91,5.67,151.3-107.18,5.79-111.49-149.41-5.67-151.3Z"/>
    <path class="st0" d="M252.78,1045.38c78.26-9.06,131.65,87.44,56.5,134.41-7.36,4.6-31,15.97-38.85,16.72-14.67,1.41-53.64-19.01-64.5-29.57-39.93-38.85-7.48-115.27,46.84-121.56Z"/>
    <path class="st0" d="M1817.14,1970.5c55.24-5.96,87.33,22.85,104.05,73.36,6.12,18.5,6.68,22.02-.57,40.29-21.44,54.03-56.11,78.48-115.8,65.73-91.39-19.52-87.6-168.61,12.32-179.38Z"/>
    <path class="st0" d="M1829.53,81.09c34.72-1.47,59.03,13.86,78.02,41.85,5.53,8.16,20.44,36.19,20.81,44.92.26,6.14-10.6,32.24-13.91,39.14-17.66,36.88-46.57,61.83-89.62,58.08-110.91-9.67-118.26-178.8,4.7-183.99Z"/>
    <path class="st0" d="M2886.67,501.5c36.7-5.88,99.88,28.47,103.26,68.15,7.27,85.49-26.99,117.61-111.94,111.85-23.72-1.61-38-8.09-53.42-26.62-18.61-22.35-26.93-72.37-13.73-97.87s47.8-51.01,75.83-55.51Z"/>
    <path class="st0" d="M2256.4,446.13c23.35-3.57,71.25,22.02,85.56,40.7,31.15,40.66,14.96,106.74-30.91,128.76-72.29,34.71-160.98-15.07-141.87-98.67,7.58-33.16,55.13-65.89,87.21-70.79Z"/>
    <path class="st0" d="M2244.13,1607.18c38.61-5.22,83.35,3.4,100.53,42.08,7.54,16.97,12.34,61.38,8.34,79.01-5.93,26.2-57.38,57.33-83,58.78-15.39.87-59.72-21.78-72.43-31.86-59.01-46.77-25.3-138.3,46.55-148.02Z"/>
  </g>
</svg>