<?xml version="1.0" encoding="UTF-8"?>
<svg id="Layer_1" xmlns="http://www.w3.org/2000/svg" version="1.1" xmlns:xlink="http://www.w3.org/1999/xlink" viewBox="0 0 43.05 52.96">
  <!-- Generator: Adobe Illustrator 29.8.5, SVG Export Plug-In . SVG Version: 2.1.1 Build 2)  -->
  <defs>
    <style>
      .st0 {
        fill: url(#linear-gradient);
      }
    </style>
    <linearGradient id="linear-gradient" x1="21.52" y1=".38" x2="21.52" y2="55.9" gradientUnits="userSpaceOnUse">
      <stop offset="0" stop-color="#6fcbd0"/>
      <stop offset="0" stop-color="#6fcacf"/>
      <stop offset="0" stop-color="#78c5c8"/>
      <stop offset="0" stop-color="#8bc3b2"/>
      <stop offset="0" stop-color="#9fc19d"/>
      <stop offset=".13" stop-color="#92bc9f"/>
      <stop offset=".36" stop-color="#72b0a5"/>
      <stop offset=".67" stop-color="#3e9caf"/>
      <stop offset="1" stop-color="#0084bb"/>
    </linearGradient>
  </defs>
  <path class="st0" d="M30.92,47.11s0,0,0,0c0-3.08,0-6.11,0-9.14,0-1.21-.16-2.39-.59-3.52-.32-.85-.77-1.6-1.5-2.28,1.05-.19,2.03-.34,3.01-.54,1.48-.3,2.9-.77,4.25-1.45,2.59-1.3,4.53-3.24,5.59-5.95,1.48-3.77,1.85-7.64.72-11.58-.42-1.48-1.18-2.81-2.18-3.98-.23-.26-.26-.47-.15-.81.84-2.56.47-5.05-.45-7.51-.11-.3-.32-.32-.57-.33-1.14-.02-2.21.28-3.26.67-1.55.57-3,1.35-4.39,2.23-.31.2-.57.26-.95.16-4.28-1.12-8.62-1.14-12.93-.29-1.52.3-2.75.23-4.08-.66C11.83,1.08,10.02.37,8.07.09c-.32-.05-.56-.08-.75-.09l-.59.21c-.15.18-.25.48-.41.97-.71,2.27-.75,4.56-.13,6.85.09.34.05.56-.18.82-1.89,2.23-2.77,4.83-2.81,7.73-.03,2.31.19,4.59.92,6.79,1.46,4.4,4.63,6.92,8.98,8.13,1.37.38,2.76.63,4.29.8-.42.46-.79.86-1.06,1.33-.42.73-.68,1.52-.78,2.35-.04.34-.18.49-.47.61-3.58,1.46-6.74.45-8.82-2.8-.98-1.54-2.32-2.59-4.14-2.96-.57-.11-1.13-.13-1.68.07-.48.18-.57.48-.26.89.22.3.5.54.82.73,1.8,1.1,2.93,2.74,3.72,4.62,1.22,2.89,3.46,4.24,6.47,4.48,1.36.11,2.72-.03,4.08-.34,0,1.88-.03,3.96-.03,5.81,0,0,.09,5.84,7.78,5.84s7.9-5.84,7.9-5.84Z"/>
</svg>