<?xml version="1.0" encoding="UTF-8"?>
<svg xmlns="http://www.w3.org/2000/svg" version="1.1" xmlns:xlink="http://www.w3.org/1999/xlink" viewBox="0 0 841.89 595.28">
  <!-- Generator: Adobe Illustrator 29.8.5, SVG Export Plug-In . SVG Version: 2.1.1 Build 2)  -->
  <defs>
    <style>
      .st0 {
        stroke: url(#linear-gradient39);
      }

      .st0, .st1, .st2, .st3, .st4, .st5, .st6, .st7, .st8, .st9, .st10, .st11, .st12, .st13, .st14, .st15, .st16, .st17, .st18, .st19, .st20, .st21, .st22, .st23, .st24, .st25, .st26, .st27, .st28, .st29, .st30, .st31, .st32, .st33, .st34, .st35, .st36, .st37, .st38, .st39, .st40, .st41, .st42, .st43, .st44, .st45, .st46, .st47, .st48, .st49, .st50, .st51, .st52, .st53, .st54, .st55, .st56, .st57, .st58, .st59, .st60, .st61, .st62, .st63, .st64, .st65, .st66, .st67, .st68, .st69, .st70, .st71, .st72, .st73, .st74, .st75, .st76, .st77, .st78, .st79, .st80, .st81, .st82, .st83, .st84, .st85, .st86, .st87, .st88, .st89, .st90, .st91, .st92, .st93, .st94, .st95, .st96, .st97, .st98, .st99, .st100, .st101, .st102 {
        fill: none;
        stroke-miterlimit: 10;
        stroke-width: .5px;
      }

      .st0, .st1, .st2, .st3, .st4, .st5, .st6, .st7, .st8, .st9, .st10, .st12, .st13, .st14, .st15, .st16, .st17, .st19, .st20, .st21, .st23, .st24, .st25, .st26, .st27, .st28, .st29, .st31, .st33, .st34, .st35, .st36, .st37, .st38, .st39, .st40, .st41, .st42, .st43, .st44, .st45, .st46, .st47, .st49, .st51, .st52, .st53, .st54, .st55, .st56, .st57, .st58, .st59, .st60, .st61, .st65, .st66, .st68, .st69, .st70, .st71, .st72, .st73, .st74, .st75, .st76, .st78, .st80, .st81, .st82, .st84, .st85, .st86, .st87, .st88, .st89, .st90, .st92, .st93, .st94, .st95, .st96, .st97, .st98, .st99, .st100, .st101, .st102 {
        mix-blend-mode: multiply;
      }

      .st1 {
        stroke: url(#linear-gradient32);
      }

      .st2 {
        stroke: url(#linear-gradient51);
      }

      .st3 {
        stroke: url(#linear-gradient10);
      }

      .st4 {
        stroke: url(#linear-gradient62);
      }

      .st5 {
        stroke: url(#linear-gradient84);
      }

      .st6 {
        stroke: url(#linear-gradient77);
      }

      .st7 {
        stroke: url(#linear-gradient57);
      }

      .st8 {
        stroke: url(#linear-gradient27);
      }

      .st9 {
        stroke: url(#linear-gradient22);
      }

      .st10 {
        stroke: url(#linear-gradient2);
      }

      .st11 {
        stroke: url(#linear-gradient93);
      }

      .st12 {
        stroke: url(#linear-gradient17);
      }

      .st13 {
        stroke: url(#linear-gradient71);
      }

      .st14 {
        stroke: url(#linear-gradient47);
      }

      .st15 {
        stroke: url(#linear-gradient33);
      }

      .st16 {
        stroke: url(#linear-gradient54);
      }

      .st17 {
        stroke: url(#linear-gradient21);
      }

      .st18 {
        stroke: url(#linear-gradient94);
      }

      .st19 {
        stroke: url(#linear-gradient28);
      }

      .st20 {
        stroke: url(#linear-gradient100);
      }

      .st21 {
        stroke: url(#linear-gradient37);
      }

      .st22 {
        stroke: url(#linear-gradient98);
      }

      .st23 {
        stroke: url(#linear-gradient15);
      }

      .st24 {
        stroke: url(#linear-gradient80);
      }

      .st25 {
        stroke: url(#linear-gradient43);
      }

      .st26 {
        stroke: url(#linear-gradient78);
      }

      .st27 {
        stroke: url(#linear-gradient44);
      }

      .st28 {
        stroke: url(#linear-gradient8);
      }

      .st29 {
        stroke: url(#linear-gradient14);
      }

      .st30 {
        stroke: url(#linear-gradient86);
      }

      .st31 {
        stroke: url(#linear-gradient30);
      }

      .st32 {
        stroke: url(#linear-gradient90);
      }

      .st103 {
        isolation: isolate;
      }

      .st33 {
        stroke: url(#linear-gradient64);
      }

      .st34 {
        stroke: url(#linear-gradient60);
      }

      .st35 {
        stroke: url(#linear-gradient75);
      }

      .st36 {
        stroke: url(#linear-gradient18);
      }

      .st37 {
        stroke: url(#linear-gradient73);
      }

      .st38 {
        stroke: url(#linear-gradient52);
      }

      .st39 {
        stroke: url(#linear-gradient40);
      }

      .st40 {
        stroke: url(#linear-gradient23);
      }

      .st41 {
        stroke: url(#linear-gradient65);
      }

      .st42 {
        stroke: url(#linear-gradient9);
      }

      .st43 {
        stroke: url(#linear-gradient53);
      }

      .st44 {
        stroke: url(#linear-gradient24);
      }

      .st45 {
        stroke: url(#linear-gradient99);
      }

      .st46 {
        stroke: url(#linear-gradient3);
      }

      .st47 {
        stroke: url(#linear-gradient82);
      }

      .st48 {
        stroke: url(#linear-gradient89);
      }

      .st49 {
        stroke: url(#linear-gradient83);
      }

      .st50 {
        stroke: url(#linear-gradient102);
      }

      .st51 {
        stroke: url(#linear-gradient72);
      }

      .st52 {
        stroke: url(#linear-gradient7);
      }

      .st53 {
        stroke: url(#linear-gradient49);
      }

      .st54 {
        stroke: url(#linear-gradient20);
      }

      .st55 {
        stroke: url(#linear-gradient59);
      }

      .st56 {
        stroke: url(#linear-gradient26);
      }

      .st57 {
        stroke: url(#linear-gradient12);
      }

      .st58 {
        stroke: url(#linear-gradient35);
      }

      .st59 {
        stroke: url(#linear-gradient87);
      }

      .st60 {
        stroke: url(#linear-gradient79);
      }

      .st61 {
        stroke: url(#linear-gradient19);
      }

      .st62 {
        stroke: url(#linear-gradient101);
      }

      .st63 {
        stroke: url(#linear-gradient85);
      }

      .st64 {
        stroke: url(#linear-gradient67);
      }

      .st65 {
        stroke: url(#linear-gradient91);
      }

      .st66 {
        stroke: url(#linear-gradient50);
      }

      .st67 {
        stroke: url(#linear-gradient);
      }

      .st68 {
        stroke: url(#linear-gradient96);
      }

      .st69 {
        stroke: url(#linear-gradient63);
      }

      .st70 {
        stroke: url(#linear-gradient11);
      }

      .st71 {
        stroke: url(#linear-gradient46);
      }

      .st72 {
        stroke: url(#linear-gradient29);
      }

      .st73 {
        stroke: url(#linear-gradient38);
      }

      .st74 {
        stroke: url(#linear-gradient95);
      }

      .st75 {
        stroke: url(#linear-gradient41);
      }

      .st76 {
        stroke: url(#linear-gradient81);
      }

      .st77 {
        stroke: url(#linear-gradient69);
      }

      .st78 {
        stroke: url(#linear-gradient16);
      }

      .st79 {
        stroke: url(#linear-gradient66);
      }

      .st80 {
        stroke: url(#linear-gradient4);
      }

      .st81 {
        stroke: url(#linear-gradient88);
      }

      .st82 {
        stroke: url(#linear-gradient76);
      }

      .st83 {
        stroke: url(#linear-gradient70);
      }

      .st84 {
        stroke: url(#linear-gradient5);
      }

      .st85 {
        stroke: url(#linear-gradient56);
      }

      .st86 {
        stroke: url(#linear-gradient13);
      }

      .st87 {
        stroke: url(#linear-gradient58);
      }

      .st88 {
        stroke: url(#linear-gradient25);
      }

      .st89 {
        stroke: url(#linear-gradient68);
      }

      .st90 {
        stroke: url(#linear-gradient42);
      }

      .st91 {
        stroke: url(#linear-gradient97);
      }

      .st92 {
        stroke: url(#linear-gradient55);
      }

      .st93 {
        stroke: url(#linear-gradient92);
      }

      .st94 {
        stroke: url(#linear-gradient34);
      }

      .st95 {
        stroke: url(#linear-gradient45);
      }

      .st96 {
        stroke: url(#linear-gradient74);
      }

      .st97 {
        stroke: url(#linear-gradient36);
      }

      .st98 {
        stroke: url(#linear-gradient31);
      }

      .st99 {
        stroke: url(#linear-gradient61);
      }

      .st100 {
        stroke: url(#linear-gradient6);
      }

      .st101 {
        stroke: url(#linear-gradient48);
      }

      .st102 {
        stroke: url(#linear-gradient1);
      }
    </style>
    <linearGradient id="linear-gradient" x1="607.41" y1="137.65" x2="944.05" y2="137.65" gradientTransform="translate(285.14 -478.82) rotate(41.42)" gradientUnits="userSpaceOnUse">
      <stop offset="0" stop-color="#5fc8da"/>
      <stop offset=".43" stop-color="#939598"/>
    </linearGradient>
    <linearGradient id="linear-gradient1" x1="614.9" y1="176.39" x2="868.18" y2="176.39" gradientTransform="translate(302.29 -446.55) rotate(41.43)" xlink:href="#linear-gradient"/>
    <linearGradient id="linear-gradient2" x1="576.67" y1="184.07" x2="911.69" y2="184.07" gradientTransform="translate(308.16 -446.46) rotate(41.44)" xlink:href="#linear-gradient"/>
    <linearGradient id="linear-gradient3" x1="464.47" y1="209.4" x2="977.83" y2="209.4" gradientTransform="translate(318.81 -424.66) rotate(41.41)" xlink:href="#linear-gradient"/>
    <linearGradient id="linear-gradient4" x1="593.53" y1="179.18" x2="928.56" y2="179.18" gradientTransform="translate(309.15 -458.85) rotate(41.44)" xlink:href="#linear-gradient"/>
    <linearGradient id="linear-gradient5" x1="543.73" y1="228.15" x2="878.75" y2="228.15" gradientTransform="translate(328.61 -413.34) rotate(41.4)" xlink:href="#linear-gradient"/>
    <linearGradient id="linear-gradient6" x1="626.55" y1="160.04" x2="961.58" y2="160.04" gradientTransform="translate(304.86 -485.58) rotate(41.45)" xlink:href="#linear-gradient"/>
    <linearGradient id="linear-gradient7" x1="634.05" y1="31.86" x2="1083.46" y2="31.86" gradientTransform="translate(235.87 -560.16) rotate(41.42)" xlink:href="#linear-gradient"/>
    <linearGradient id="linear-gradient8" x1="736.54" y1="18.64" x2="1022.25" y2="18.64" gradientTransform="translate(232.38 -577.23) rotate(41.43)" xlink:href="#linear-gradient"/>
    <linearGradient id="linear-gradient9" x1="660.86" y1="3.64" x2="1143.24" y2="3.64" gradientTransform="translate(228.03 -595.86) rotate(41.42)" xlink:href="#linear-gradient"/>
    <linearGradient id="linear-gradient10" x1="692.71" y1="26.58" x2="1070.77" y2="26.58" gradientTransform="translate(238.16 -576.73) rotate(41.42)" xlink:href="#linear-gradient"/>
    <linearGradient id="linear-gradient11" x1="565.63" y1="54.83" x2="1145.16" y2="54.83" gradientTransform="translate(250.32 -552.29) rotate(41.43)" xlink:href="#linear-gradient"/>
    <linearGradient id="linear-gradient12" x1="711.12" y1="20.33" x2="1089.17" y2="20.33" gradientTransform="translate(238.94 -590.81) rotate(41.45)" xlink:href="#linear-gradient"/>
    <linearGradient id="linear-gradient13" x1="654.53" y1="75.28" x2="1032.58" y2="75.28" gradientTransform="translate(260.5 -538.97) rotate(41.39)" xlink:href="#linear-gradient"/>
    <linearGradient id="linear-gradient14" x1="763.78" y1="-93.01" x2="1141.84" y2="-93.01" gradientTransform="translate(177.11 -654.06) rotate(41.45)" xlink:href="#linear-gradient"/>
    <linearGradient id="linear-gradient15" x1="697.59" y1="-64.85" x2="1179.97" y2="-64.85" gradientTransform="translate(191.8 -637.16) rotate(41.41)" xlink:href="#linear-gradient"/>
    <linearGradient id="linear-gradient16" x1="729.43" y1="-41.92" x2="1107.49" y2="-41.92" gradientTransform="translate(201.98 -618.1) rotate(41.42)" xlink:href="#linear-gradient"/>
    <linearGradient id="linear-gradient17" x1="602.36" y1="-13.67" x2="1181.89" y2="-13.67" gradientTransform="translate(214 -593.52) rotate(41.41)" xlink:href="#linear-gradient"/>
    <linearGradient id="linear-gradient18" x1="747.84" y1="-48.16" x2="1125.9" y2="-48.16" gradientTransform="translate(202.79 -632.26) rotate(41.45)" xlink:href="#linear-gradient"/>
    <linearGradient id="linear-gradient19" x1="691.26" y1="6.79" x2="1069.32" y2="6.79" gradientTransform="translate(224.89 -580.92) rotate(41.44)" xlink:href="#linear-gradient"/>
    <linearGradient id="linear-gradient20" x1="430.56" y1="139.33" x2="879.97" y2="139.33" gradientTransform="translate(256.07 -398.66) rotate(41.42)" xlink:href="#linear-gradient"/>
    <linearGradient id="linear-gradient21" x1="533.06" y1="126.1" x2="818.77" y2="126.1" gradientTransform="translate(252.48 -415.62) rotate(41.42)" xlink:href="#linear-gradient"/>
    <linearGradient id="linear-gradient22" x1="457.38" y1="111.11" x2="939.75" y2="111.11" gradientTransform="translate(247.93 -434.11) rotate(41.39)" xlink:href="#linear-gradient"/>
    <linearGradient id="linear-gradient23" x1="489.22" y1="134.04" x2="867.28" y2="134.04" gradientTransform="translate(258.41 -415.25) rotate(41.43)" xlink:href="#linear-gradient"/>
    <linearGradient id="linear-gradient24" x1="362.15" y1="162.29" x2="941.67" y2="162.29" gradientTransform="translate(270.42 -390.69) rotate(41.42)" xlink:href="#linear-gradient"/>
    <linearGradient id="linear-gradient25" x1="507.63" y1="127.79" x2="885.69" y2="127.79" gradientTransform="translate(258.9 -429.01) rotate(41.43)" xlink:href="#linear-gradient"/>
    <linearGradient id="linear-gradient26" x1="451.05" y1="182.74" x2="829.1" y2="182.74" gradientTransform="translate(280.68 -377.55) rotate(41.39)" xlink:href="#linear-gradient"/>
    <linearGradient id="linear-gradient27" x1="544.29" y1="105.44" x2="922.35" y2="105.44" gradientTransform="translate(253.49 -459.04) rotate(41.45)" xlink:href="#linear-gradient"/>
    <linearGradient id="linear-gradient28" x1="679.01" y1="-89.56" x2="1057.07" y2="-89.56" gradientTransform="translate(158.23 -597.19) rotate(41.46)" xlink:href="#linear-gradient"/>
    <linearGradient id="linear-gradient29" x1="585.13" y1="-33.18" x2="1034.54" y2="-33.18" gradientTransform="translate(180.52 -543.97) rotate(41.41)" xlink:href="#linear-gradient"/>
    <linearGradient id="linear-gradient30" x1="687.63" y1="-46.41" x2="973.34" y2="-46.41" gradientTransform="translate(177.21 -561.28) rotate(41.44)" xlink:href="#linear-gradient"/>
    <linearGradient id="linear-gradient31" x1="611.95" y1="-61.4" x2="1094.32" y2="-61.4" gradientTransform="translate(172.65 -579.62) rotate(41.41)" xlink:href="#linear-gradient"/>
    <linearGradient id="linear-gradient32" x1="643.79" y1="-38.47" x2="1021.85" y2="-38.47" gradientTransform="translate(183.11 -560.91) rotate(41.45)" xlink:href="#linear-gradient"/>
    <linearGradient id="linear-gradient33" x1="516.72" y1="-10.22" x2="1096.24" y2="-10.22" gradientTransform="translate(194.77 -535.88) rotate(41.4)" xlink:href="#linear-gradient"/>
    <linearGradient id="linear-gradient34" x1="662.2" y1="-44.71" x2="1040.26" y2="-44.71" gradientTransform="translate(183.34 -574.35) rotate(41.42)" xlink:href="#linear-gradient"/>
    <linearGradient id="linear-gradient35" x1="463.38" y1="21.26" x2="939.87" y2="21.26" gradientTransform="translate(189.9 -459.23) rotate(41.46)" xlink:href="#linear-gradient"/>
    <linearGradient id="linear-gradient36" x1="344.21" y1="91.69" x2="910.78" y2="91.69" gradientTransform="translate(217.72 -392.29) rotate(41.43)" xlink:href="#linear-gradient"/>
    <linearGradient id="linear-gradient37" x1="376.76" y1="54.59" x2="984.95" y2="54.59" gradientTransform="translate(206.32 -436.7) rotate(41.41)" xlink:href="#linear-gradient"/>
    <linearGradient id="linear-gradient38" x1="416.31" y1="82.81" x2="892.8" y2="82.81" gradientTransform="translate(218.73 -412.53) rotate(41.45)" xlink:href="#linear-gradient"/>
    <linearGradient id="linear-gradient39" x1="255.22" y1="117.74" x2="986.08" y2="117.74" gradientTransform="translate(233.14 -381.16) rotate(41.42)" xlink:href="#linear-gradient"/>
    <linearGradient id="linear-gradient40" x1="438.25" y1="73.44" x2="914.74" y2="73.44" gradientTransform="translate(217.99 -429.36) rotate(41.44)" xlink:href="#linear-gradient"/>
    <linearGradient id="linear-gradient41" x1="638.44" y1="-125.89" x2="1016.5" y2="-125.89" gradientTransform="translate(124.2 -579.73) rotate(41.49)" xlink:href="#linear-gradient"/>
    <linearGradient id="linear-gradient42" x1="647.05" y1="-82.74" x2="932.77" y2="-82.74" gradientTransform="translate(142.8 -543.23) rotate(41.42)" xlink:href="#linear-gradient"/>
    <linearGradient id="linear-gradient43" x1="571.38" y1="-97.74" x2="1053.75" y2="-97.74" gradientTransform="translate(138.67 -562.15) rotate(41.43)" xlink:href="#linear-gradient"/>
    <linearGradient id="linear-gradient44" x1="603.22" y1="-74.81" x2="981.28" y2="-74.81" gradientTransform="translate(148.59 -542.74) rotate(41.41)" xlink:href="#linear-gradient"/>
    <linearGradient id="linear-gradient45" x1="476.14" y1="-46.55" x2="1055.67" y2="-46.55" gradientTransform="translate(160.9 -518.52) rotate(41.44)" xlink:href="#linear-gradient"/>
    <linearGradient id="linear-gradient46" x1="621.63" y1="-81.05" x2="999.69" y2="-81.05" gradientTransform="translate(149.26 -556.75) rotate(41.43)" xlink:href="#linear-gradient"/>
    <linearGradient id="linear-gradient47" x1="565.04" y1="-26.1" x2="943.1" y2="-26.1" gradientTransform="translate(170.91 -504.88) rotate(41.37)" xlink:href="#linear-gradient"/>
    <linearGradient id="linear-gradient48" x1="658.28" y1="-103.41" x2="1036.34" y2="-103.41" gradientTransform="translate(143.51 -586.41) rotate(41.42)" xlink:href="#linear-gradient"/>
    <linearGradient id="linear-gradient49" x1="470.89" y1="54.84" x2="715.46" y2="54.84" gradientTransform="translate(184.55 -378.63) rotate(41.41)" xlink:href="#linear-gradient"/>
    <linearGradient id="linear-gradient50" x1="406.6" y1="42.43" x2="819.19" y2="42.43" gradientTransform="translate(181.29 -394.78) rotate(41.41)" xlink:href="#linear-gradient"/>
    <linearGradient id="linear-gradient51" x1="434.16" y1="62.44" x2="757.63" y2="62.44" gradientTransform="translate(190.28 -378.55) rotate(41.41)" xlink:href="#linear-gradient"/>
    <linearGradient id="linear-gradient52" x1="325.95" y1="86.99" x2="821.55" y2="86.99" gradientTransform="translate(200.74 -357.55) rotate(41.38)" xlink:href="#linear-gradient"/>
    <linearGradient id="linear-gradient53" x1="450.61" y1="57.92" x2="774.08" y2="57.92" gradientTransform="translate(191.48 -390.62) rotate(41.42)" xlink:href="#linear-gradient"/>
    <linearGradient id="linear-gradient54" x1="402.63" y1="105.28" x2="726.09" y2="105.28" gradientTransform="translate(210.55 -346.84) rotate(41.39)" xlink:href="#linear-gradient"/>
    <linearGradient id="linear-gradient55" x1="482.65" y1="39.64" x2="806.12" y2="39.64" gradientTransform="translate(187.48 -416.47) rotate(41.43)" xlink:href="#linear-gradient"/>
    <linearGradient id="linear-gradient56" x1="602.64" y1="-166.45" x2="980.7" y2="-166.45" gradientTransform="translate(88.13 -565.79) rotate(41.45)" xlink:href="#linear-gradient"/>
    <linearGradient id="linear-gradient57" x1="508.76" y1="-110.07" x2="958.17" y2="-110.07" gradientTransform="translate(110.8 -513.03) rotate(41.44)" xlink:href="#linear-gradient"/>
    <linearGradient id="linear-gradient58" x1="611.26" y1="-123.3" x2="896.97" y2="-123.3" gradientTransform="translate(107.2 -529.98) rotate(41.44)" xlink:href="#linear-gradient"/>
    <linearGradient id="linear-gradient59" x1="535.58" y1="-138.29" x2="1017.96" y2="-138.29" gradientTransform="translate(102.88 -548.61) rotate(41.43)" xlink:href="#linear-gradient"/>
    <linearGradient id="linear-gradient60" x1="567.42" y1="-115.36" x2="945.48" y2="-115.36" gradientTransform="translate(112.97 -529.43) rotate(41.43)" xlink:href="#linear-gradient"/>
    <linearGradient id="linear-gradient61" x1="440.35" y1="-87.11" x2="1019.88" y2="-87.11" gradientTransform="translate(124.99 -504.81) rotate(41.42)" xlink:href="#linear-gradient"/>
    <linearGradient id="linear-gradient62" x1="585.83" y1="-121.6" x2="963.89" y2="-121.6" gradientTransform="translate(113.37 -543.05) rotate(41.42)" xlink:href="#linear-gradient"/>
    <linearGradient id="linear-gradient63" x1="529.25" y1="-66.65" x2="907.3" y2="-66.65" gradientTransform="translate(135.4 -491.64) rotate(41.4)" xlink:href="#linear-gradient"/>
    <linearGradient id="linear-gradient64" x1="622.49" y1="-143.96" x2="1000.55" y2="-143.96" gradientTransform="translate(107.75 -572.9) rotate(41.42)" xlink:href="#linear-gradient"/>
    <linearGradient id="linear-gradient65" x1="584.74" y1="-186.72" x2="962.8" y2="-186.72" gradientTransform="matrix(1,0,0,1,0,0)" xlink:href="#linear-gradient"/>
    <linearGradient id="linear-gradient66" x1="585.45" y1="-186.72" x2="965.33" y2="-186.72" gradientTransform="translate(70.35 -559.56) rotate(41.41)" xlink:href="#linear-gradient"/>
    <linearGradient id="linear-gradient67" x1="585.1" y1="-186.72" x2="965.69" y2="-186.72" gradientTransform="matrix(1,0,0,1,0,0)" xlink:href="#linear-gradient"/>
    <linearGradient id="linear-gradient68" x1="593.36" y1="-143.57" x2="879.08" y2="-143.57" gradientTransform="translate(89.24 -523.12) rotate(41.43)" xlink:href="#linear-gradient"/>
    <linearGradient id="linear-gradient69" x1="594.07" y1="-143.37" x2="881.16" y2="-143.37" gradientTransform="translate(89.43 -523.49) rotate(41.39)" xlink:href="#linear-gradient"/>
    <linearGradient id="linear-gradient70" x1="593.72" y1="-143.37" x2="881.52" y2="-143.37" gradientTransform="matrix(1,0,0,1,0,0)" xlink:href="#linear-gradient"/>
    <linearGradient id="linear-gradient71" x1="517.69" y1="-158.57" x2="1000.06" y2="-158.57" gradientTransform="translate(84.98 -541.84) rotate(41.43)" xlink:href="#linear-gradient"/>
    <linearGradient id="linear-gradient72" x1="549.53" y1="-135.63" x2="927.59" y2="-135.63" gradientTransform="translate(95.25 -522.95) rotate(41.46)" xlink:href="#linear-gradient"/>
    <linearGradient id="linear-gradient73" x1="422.45" y1="-107.38" x2="1001.98" y2="-107.38" gradientTransform="translate(107.03 -497.94) rotate(41.41)" xlink:href="#linear-gradient"/>
    <linearGradient id="linear-gradient74" x1="567.94" y1="-141.88" x2="946" y2="-141.88" gradientTransform="translate(95.63 -536.54) rotate(41.44)" xlink:href="#linear-gradient"/>
    <linearGradient id="linear-gradient75" x1="511.35" y1="-86.93" x2="889.4" y2="-86.93" gradientTransform="translate(117.25 -484.48) rotate(41.36)" xlink:href="#linear-gradient"/>
    <linearGradient id="linear-gradient76" x1="604.59" y1="-164.23" x2="982.65" y2="-164.23" gradientTransform="translate(89.98 -566.35) rotate(41.44)" xlink:href="#linear-gradient"/>
    <linearGradient id="linear-gradient77" x1="456.45" y1="-58.79" x2="742.16" y2="-58.79" gradientTransform="translate(111.06 -411.28) rotate(41.43)" xlink:href="#linear-gradient"/>
    <linearGradient id="linear-gradient78" x1="380.77" y1="-73.79" x2="863.14" y2="-73.79" gradientTransform="translate(106.41 -429.43) rotate(41.36)" xlink:href="#linear-gradient"/>
    <linearGradient id="linear-gradient79" x1="412.61" y1="-50.85" x2="790.67" y2="-50.85" gradientTransform="translate(116.93 -410.87) rotate(41.43)" xlink:href="#linear-gradient"/>
    <linearGradient id="linear-gradient80" x1="285.54" y1="-22.6" x2="865.06" y2="-22.6" gradientTransform="translate(128.8 -386.09) rotate(41.4)" xlink:href="#linear-gradient"/>
    <linearGradient id="linear-gradient81" x1="431.02" y1="-57.1" x2="809.08" y2="-57.1" gradientTransform="translate(117.38 -424.59) rotate(41.43)" xlink:href="#linear-gradient"/>
    <linearGradient id="linear-gradient82" x1="374.43" y1="-2.15" x2="752.49" y2="-2.15" gradientTransform="translate(139.37 -373.15) rotate(41.4)" xlink:href="#linear-gradient"/>
    <linearGradient id="linear-gradient83" x1="467.68" y1="-79.45" x2="845.74" y2="-79.45" gradientTransform="translate(111.63 -454.25) rotate(41.41)" xlink:href="#linear-gradient"/>
    <linearGradient id="linear-gradient84" x1="548.95" y1="-227.27" x2="927.01" y2="-227.27" gradientTransform="translate(34.41 -545.48) rotate(41.45)" gradientUnits="userSpaceOnUse">
      <stop offset="0" stop-color="#5fc8da"/>
      <stop offset=".43" stop-color="#d1d3d4"/>
    </linearGradient>
    <linearGradient id="linear-gradient85" x1="549.66" y1="-227.27" x2="929.54" y2="-227.27" gradientTransform="translate(34.79 -546.49) rotate(41.45)" xlink:href="#linear-gradient84"/>
    <linearGradient id="linear-gradient86" x1="549.31" y1="-227.27" x2="929.89" y2="-227.27" gradientTransform="matrix(1,0,0,1,0,0)" xlink:href="#linear-gradient84"/>
    <linearGradient id="linear-gradient87" x1="455.07" y1="-170.9" x2="904.48" y2="-170.9" gradientTransform="translate(56.91 -492.37) rotate(41.41)" xlink:href="#linear-gradient"/>
    <linearGradient id="linear-gradient88" x1="557.57" y1="-184.12" x2="843.28" y2="-184.12" gradientTransform="translate(53.56 -509.81) rotate(41.45)" xlink:href="#linear-gradient84"/>
    <linearGradient id="linear-gradient89" x1="558.28" y1="-183.92" x2="845.37" y2="-183.92" gradientTransform="translate(53.87 -510.32) rotate(41.42)" xlink:href="#linear-gradient84"/>
    <linearGradient id="linear-gradient90" x1="557.92" y1="-183.92" x2="845.72" y2="-183.92" gradientTransform="matrix(1,0,0,1,0,0)" xlink:href="#linear-gradient84"/>
    <linearGradient id="linear-gradient91" x1="481.89" y1="-199.12" x2="964.27" y2="-199.12" gradientTransform="translate(49.09 -528.11) rotate(41.41)" xlink:href="#linear-gradient"/>
    <linearGradient id="linear-gradient92" x1="513.73" y1="-176.19" x2="891.79" y2="-176.19" gradientTransform="translate(59.22 -509.01) rotate(41.42)" xlink:href="#linear-gradient"/>
    <linearGradient id="linear-gradient93" x1="514.45" y1="-176.18" x2="894.33" y2="-176.18" gradientTransform="translate(59.63 -510.08) rotate(41.42)" xlink:href="#linear-gradient"/>
    <linearGradient id="linear-gradient94" x1="514.09" y1="-176.18" x2="894.68" y2="-176.18" gradientTransform="matrix(1,0,0,1,0,0)" xlink:href="#linear-gradient"/>
    <linearGradient id="linear-gradient95" x1="386.66" y1="-147.93" x2="966.18" y2="-147.93" gradientTransform="translate(71.37 -484.6) rotate(41.43)" xlink:href="#linear-gradient"/>
    <linearGradient id="linear-gradient96" x1="532.14" y1="-182.43" x2="910.2" y2="-182.43" gradientTransform="translate(59.82 -523) rotate(41.44)" xlink:href="#linear-gradient"/>
    <linearGradient id="linear-gradient97" x1="532.85" y1="-182.43" x2="912.74" y2="-182.43" gradientTransform="translate(60.29 -524.19) rotate(41.45)" xlink:href="#linear-gradient"/>
    <linearGradient id="linear-gradient98" x1="532.5" y1="-182.43" x2="913.09" y2="-182.43" gradientTransform="matrix(1,0,0,1,0,0)" xlink:href="#linear-gradient"/>
    <linearGradient id="linear-gradient99" x1="475.56" y1="-127.48" x2="853.61" y2="-127.48" gradientTransform="translate(81.63 -471.13) rotate(41.38)" xlink:href="#linear-gradient"/>
    <linearGradient id="linear-gradient100" x1="568.8" y1="-204.79" x2="946.86" y2="-204.79" gradientTransform="translate(54.13 -552.72) rotate(41.43)" xlink:href="#linear-gradient"/>
    <linearGradient id="linear-gradient101" x1="569.51" y1="-204.78" x2="949.39" y2="-204.78" gradientTransform="translate(54.54 -553.79) rotate(41.43)" xlink:href="#linear-gradient"/>
    <linearGradient id="linear-gradient102" x1="569.16" y1="-204.78" x2="949.74" y2="-204.78" gradientTransform="matrix(1,0,0,1,0,0)" xlink:href="#linear-gradient"/>
  </defs>
  <g class="st103">
    <g id="Layer_1">
      <rect class="st67" x="553.34" y="135.77" width="444.77" height="3.75" transform="translate(103 547.69) rotate(-41.42)"/>
      <rect class="st102" x="574.75" y="174.52" width="333.59" height="3.75" transform="translate(68.85 534.83) rotate(-41.43)"/>
      <rect class="st10" x="522.87" y="182.19" width="442.62" height="3.75" transform="translate(64.5 538.64) rotate(-41.44)"/>
      <rect class="st46" x="380.9" y="207.52" width="680.5" height="3.75" transform="translate(41.79 529.36) rotate(-41.41)"/>
      <rect class="st80" x="539.74" y="177.31" width="442.62" height="3.75" transform="translate(71.96 548.58) rotate(-41.44)"/>
      <rect class="st84" x="489.93" y="226.27" width="442.62" height="3.75" transform="translate(26.86 527.37) rotate(-41.4)"/>
      <rect class="st100" x="572.75" y="158.17" width="442.62" height="3.75" transform="translate(92.96 565.76) rotate(-41.45)"/>
      <rect class="st52" x="561.15" y="29.99" width="595.19" height="3.75" transform="translate(193.71 576.1) rotate(-41.42)"/>
      <rect class="st28" x="690.97" y="16.76" width="376.85" height="3.75" transform="translate(207.71 586.55) rotate(-41.43)"/>
      <rect class="st42" x="582.47" y="1.77" width="639.16" height="3.75" transform="translate(223.21 597.68) rotate(-41.42)"/>
      <rect class="st3" x="631.73" y="24.7" width="500.02" height="3.75" transform="translate(202.99 590.02) rotate(-41.42)"/>
      <rect class="st70" x="471.02" y="52.95" width="768.75" height="3.75" transform="translate(177.76 579.73) rotate(-41.43)"/>
      <rect class="st57" x="650.13" y="18.45" width="500.02" height="3.75" transform="translate(212.03 600.99) rotate(-41.45)"/>
      <rect class="st86" x="593.55" y="73.4" width="500.02" height="3.75" transform="translate(160.95 576.58) rotate(-41.39)"/>
      <rect class="st29" x="702.8" y="-94.88" width="500.02" height="3.75" transform="translate(300.25 607.46) rotate(-41.45)"/>
      <rect class="st23" x="619.2" y="-66.73" width="639.16" height="3.75" transform="translate(277.59 604.73) rotate(-41.41)"/>
      <rect class="st78" x="668.45" y="-43.79" width="500.02" height="3.75" transform="translate(257.44 597.13) rotate(-41.42)"/>
      <rect class="st12" x="507.75" y="-15.54" width="768.75" height="3.75" transform="translate(232.08 586.68) rotate(-41.41)"/>
      <rect class="st36" x="686.86" y="-50.04" width="500.02" height="3.75" transform="translate(266.56 608.14) rotate(-41.45)"/>
      <rect class="st61" x="630.28" y="4.91" width="500.02" height="3.75" transform="translate(215.9 584.32) rotate(-41.44)"/>
      <rect class="st54" x="357.67" y="137.45" width="595.19" height="3.75" transform="translate(71.72 468.35) rotate(-41.42)"/>
      <rect class="st17" x="487.49" y="124.23" width="376.85" height="3.75" transform="translate(85.63 478.7) rotate(-41.42)"/>
      <rect class="st9" x="378.99" y="109.23" width="639.16" height="3.75" transform="translate(101.01 489.61) rotate(-41.39)"/>
      <rect class="st40" x="428.24" y="132.17" width="500.02" height="3.75" transform="translate(81.02 482.33) rotate(-41.43)"/>
      <rect class="st44" x="267.54" y="160.42" width="768.75" height="3.75" transform="translate(55.69 471.88) rotate(-41.42)"/>
      <rect class="st88" x="446.65" y="125.92" width="500.02" height="3.75" transform="translate(89.77 492.97) rotate(-41.43)"/>
      <rect class="st56" x="390.06" y="180.87" width="500.02" height="3.75" transform="translate(39.04 468.83) rotate(-41.39)"/>
      <rect class="st8" x="483.31" y="103.57" width="500.02" height="3.75" transform="translate(113.89 511.86) rotate(-41.45)"/>
      <rect class="st19" x="618.03" y="-91.43" width="500.02" height="3.75" transform="translate(276.83 552.3) rotate(-41.46)"/>
      <rect class="st72" x="512.24" y="-35.06" width="595.19" height="3.75" transform="translate(224.42 527.38) rotate(-41.41)"/>
      <rect class="st31" x="642.06" y="-48.28" width="376.85" height="3.75" transform="translate(238.64 538.04) rotate(-41.44)"/>
      <rect class="st98" x="533.55" y="-63.28" width="639.16" height="3.75" transform="translate(253.87 548.92) rotate(-41.41)"/>
      <rect class="st1" x="582.81" y="-40.34" width="500.02" height="3.75" transform="translate(234.04 541.64) rotate(-41.45)"/>
      <rect class="st15" x="422.1" y="-12.09" width="768.75" height="3.75" transform="translate(208.28 530.78) rotate(-41.4)"/>
      <rect class="st94" x="601.22" y="-46.59" width="500.02" height="3.75" transform="translate(242.5 551.98) rotate(-41.42)"/>
      <rect class="st58" x="385.97" y="19.38" width="631.31" height="3.75" transform="translate(161.76 469.89) rotate(-41.46)"/>
      <rect class="st97" x="251.76" y="89.82" width="751.47" height="3.75" transform="translate(96.36 438.18) rotate(-41.43)"/>
      <rect class="st21" x="277.37" y="52.72" width="806.98" height="3.75" transform="translate(134.1 463.99) rotate(-41.41)"/>
      <rect class="st73" x="338.9" y="80.93" width="631.31" height="3.75" transform="translate(109.11 454.01) rotate(-41.45)"/>
      <rect class="st0" x="135.35" y="115.86" width="970.59" height="3.75" transform="translate(77.35 440.06) rotate(-41.42)"/>
      <rect class="st39" x="360.84" y="71.57" width="631.31" height="3.75" transform="translate(120.77 466.14) rotate(-41.44)"/>
      <rect class="st75" x="577.45" y="-127.77" width="500.02" height="3.75" transform="translate(290.99 516.56) rotate(-41.49)"/>
      <rect class="st90" x="601.49" y="-84.62" width="376.85" height="3.75" transform="translate(252.27 501.85) rotate(-41.42)"/>
      <rect class="st25" x="492.98" y="-99.61" width="639.16" height="3.75" transform="translate(268.02 513.23) rotate(-41.43)"/>
      <rect class="st27" x="542.24" y="-76.68" width="500.02" height="3.75" transform="translate(247.55 505.33) rotate(-41.41)"/>
      <rect class="st95" x="381.53" y="-48.43" width="768.75" height="3.75" transform="translate(222.52 495.21) rotate(-41.44)"/>
      <rect class="st71" x="560.65" y="-82.93" width="500.02" height="3.75" transform="translate(256.54 516.18) rotate(-41.43)"/>
      <rect class="st14" x="504.06" y="-27.98" width="500.02" height="3.75" transform="translate(205.41 491.85) rotate(-41.37)"/>
      <rect class="st101" x="597.3" y="-105.28" width="500.02" height="3.75" transform="translate(280.33 534.69) rotate(-41.42)"/>
      <rect class="st53" x="432.19" y="52.96" width="321.97" height="3.75" transform="translate(112.01 406.05) rotate(-41.41)"/>
      <rect class="st66" x="339.85" y="40.56" width="546.08" height="3.75" transform="translate(125.15 416) rotate(-41.41)"/>
      <rect class="st2" x="382.29" y="60.56" width="427.2" height="3.75" transform="translate(107.68 409.77) rotate(-41.41)"/>
      <rect class="st38" x="245.35" y="85.11" width="656.8" height="3.75" transform="translate(85.73 400.99) rotate(-41.38)"/>
      <rect class="st43" x="398.74" y="56.05" width="427.2" height="3.75" transform="translate(114.84 419.6) rotate(-41.42)"/>
      <rect class="st16" x="350.76" y="103.4" width="427.2" height="3.75" transform="translate(71.34 399.42) rotate(-41.39)"/>
      <rect class="st92" x="430.79" y="37.77" width="427.2" height="3.75" transform="translate(135.02 436.31) rotate(-41.43)"/>
      <rect class="st85" x="541.66" y="-168.32" width="500.02" height="3.75" transform="translate(308.5 482.39) rotate(-41.45)"/>
      <rect class="st7" x="435.87" y="-111.95" width="595.19" height="3.75" transform="translate(256.51 457.91) rotate(-41.44)"/>
      <rect class="st87" x="565.69" y="-125.17" width="376.85" height="3.75" transform="translate(270.41 468.24) rotate(-41.44)"/>
      <rect class="st55" x="457.19" y="-140.17" width="639.16" height="3.75" transform="translate(285.9 479.4) rotate(-41.43)"/>
      <rect class="st34" x="506.44" y="-117.23" width="500.02" height="3.75" transform="translate(265.63 471.69) rotate(-41.43)"/>
      <rect class="st99" x="345.74" y="-88.98" width="768.75" height="3.75" transform="translate(240.24 461.24) rotate(-41.42)"/>
      <rect class="st4" x="524.85" y="-123.48" width="500.02" height="3.75" transform="translate(274.27 482.22) rotate(-41.42)"/>
      <rect class="st69" x="468.27" y="-68.53" width="500.02" height="3.75" transform="translate(223.55 458.33) rotate(-41.4)"/>
      <rect class="st33" x="561.51" y="-145.83" width="500.02" height="3.75" transform="translate(298.23 500.88) rotate(-41.42)"/>
      <polygon class="st41" points="959.97 -353.57 962.45 -350.77 587.57 -19.87 585.1 -22.68 959.97 -353.57"/>
      <rect class="st79" x="524.17" y="-188.59" width="502.45" height="3.75" transform="translate(317.35 466.2) rotate(-41.41)"/>
      <path class="st64" d="M588.26-18.71l-2.81-3.19.19-.17,376.88-332.67,2.81,3.19-.19.17L588.26-18.71ZM586.16-21.85l2.15,2.44,376.32-332.17-2.15-2.44L586.16-21.85Z"/>
      <rect class="st89" x="547.8" y="-145.45" width="376.85" height="3.75" transform="translate(279.26 451.25) rotate(-41.43)"/>
      <rect class="st77" x="548.28" y="-145.25" width="378.68" height="3.75" transform="translate(279.01 451.87) rotate(-41.39)"/>
      <path class="st83" d="M596.89-16.31l-2.81-3.19,284.28-250.93,2.81,3.19L596.89-16.31ZM594.78-19.46l2.15,2.44,283.53-250.27-2.15-2.44L594.78-19.46Z"/>
      <rect class="st13" x="439.29" y="-160.44" width="639.16" height="3.75" transform="translate(294.83 462.48) rotate(-41.43)"/>
      <rect class="st51" x="488.55" y="-137.51" width="500.02" height="3.75" transform="translate(274.84 454.98) rotate(-41.46)"/>
      <rect class="st37" x="327.84" y="-109.26" width="768.75" height="3.75" transform="translate(249.09 444.25) rotate(-41.41)"/>
      <rect class="st96" x="506.96" y="-143.75" width="500.02" height="3.75" transform="translate(283.44 465.49) rotate(-41.44)"/>
      <rect class="st35" x="450.37" y="-88.8" width="500.02" height="3.75" transform="translate(232.14 441.12) rotate(-41.36)"/>
      <rect class="st82" x="543.61" y="-166.11" width="500.02" height="3.75" transform="translate(307.37 484.12) rotate(-41.44)"/>
      <rect class="st6" x="410.88" y="-60.67" width="376.85" height="3.75" transform="translate(188.87 381.85) rotate(-41.43)"/>
      <rect class="st26" x="302.38" y="-75.66" width="639.16" height="3.75" transform="translate(203.93 392.61) rotate(-41.36)"/>
      <rect class="st60" x="351.63" y="-52.73" width="500.02" height="3.75" transform="translate(184.23 385.41) rotate(-41.43)"/>
      <rect class="st24" x="190.93" y="-24.48" width="768.75" height="3.75" transform="translate(158.69 374.79) rotate(-41.4)"/>
      <rect class="st76" x="370.04" y="-58.97" width="500.02" height="3.75" transform="translate(192.95 396.01) rotate(-41.43)"/>
      <rect class="st47" x="313.45" y="-4.02" width="500.02" height="3.75" transform="translate(142.21 372.07) rotate(-41.4)"/>
      <rect class="st49" x="406.7" y="-81.33" width="500.02" height="3.75" transform="translate(216.74 414.52) rotate(-41.41)"/>
      <rect class="st5" x="487.97" y="-229.15" width="500.02" height="3.75" transform="translate(335.32 431.61) rotate(-41.45)"/>
      <rect class="st63" x="488.37" y="-229.15" width="502.45" height="3.75" transform="translate(335.67 432.65) rotate(-41.45)"/>
      <path class="st30" d="M552.47-59.26l-2.81-3.19.19-.17,376.88-332.67,2.81,3.19-.19.17L552.47-59.26ZM550.36-62.4l2.15,2.44,376.32-332.17-2.15-2.44L550.36-62.4Z"/>
      <rect class="st59" x="382.18" y="-172.78" width="595.19" height="3.75" transform="translate(283 406.91) rotate(-41.41)"/>
      <rect class="st81" x="512" y="-186" width="376.85" height="3.75" transform="translate(297.35 417.56) rotate(-41.45)"/>
      <rect class="st48" x="512.48" y="-185.8" width="378.68" height="3.75" transform="translate(297.23 418.31) rotate(-41.42)"/>
      <path class="st32" d="M561.09-56.87l-2.82-3.19,284.28-250.93,2.81,3.19L561.09-56.87ZM558.98-60.01l2.15,2.44,283.53-250.27-2.15-2.44L558.98-60.01Z"/>
      <rect class="st65" x="403.5" y="-200.99" width="639.16" height="3.75" transform="translate(312.53 428.53) rotate(-41.41)"/>
      <rect class="st93" x="452.75" y="-178.06" width="500.02" height="3.75" transform="translate(292.35 420.87) rotate(-41.42)"/>
      <rect class="st11" x="453.16" y="-178.06" width="502.45" height="3.75" transform="translate(292.75 421.94) rotate(-41.42)"/>
      <path class="st18" d="M517.26-8.17l-2.81-3.19.19-.17,376.88-332.67,2.81,3.19-.19.17L517.26-8.17ZM515.15-11.32l2.15,2.44,376.32-332.17-2.15-2.44L515.15-11.32Z"/>
      <rect class="st74" x="292.05" y="-149.81" width="768.75" height="3.75" transform="translate(267.14 410.56) rotate(-41.43)"/>
      <rect class="st68" x="471.16" y="-184.31" width="500.02" height="3.75" transform="translate(301.31 431.64) rotate(-41.44)"/>
      <rect class="st91" x="471.57" y="-184.3" width="502.45" height="3.75" transform="translate(301.83 432.79) rotate(-41.45)"/>
      <path class="st22" d="M535.67-14.42l-2.81-3.19.19-.17,376.88-332.67,2.81,3.19-.19.17L535.67-14.42ZM533.56-17.56l2.15,2.44,376.32-332.17-2.15-2.44L533.56-17.56Z"/>
      <rect class="st45" x="414.57" y="-129.36" width="500.02" height="3.75" transform="translate(250.17 407.48) rotate(-41.38)"/>
      <rect class="st20" x="507.82" y="-206.66" width="500.02" height="3.75" transform="translate(325.16 450.22) rotate(-41.43)"/>
      <rect class="st62" x="508.22" y="-206.66" width="502.45" height="3.75" transform="translate(325.56 451.3) rotate(-41.43)"/>
      <path class="st50" d="M572.32-36.77l-2.81-3.19.19-.17,376.88-332.67,2.81,3.19-.19.17L572.32-36.77ZM570.21-39.91l2.15,2.44,376.32-332.17-2.15-2.44L570.21-39.91Z"/>
    </g>
  </g>
</svg>