<?xml version="1.0" encoding="UTF-8"?>
<svg xmlns="http://www.w3.org/2000/svg" version="1.1" xmlns:xlink="http://www.w3.org/1999/xlink" viewBox="0 0 841.89 595.28">
  <!-- Generator: Adobe Illustrator 29.8.5, SVG Export Plug-In . SVG Version: 2.1.1 Build 2)  -->
  <defs>
    <style>
      .st0 {
        stroke: url(#linear-gradient39);
      }

      .st0, .st1, .st2, .st3, .st4, .st5, .st6, .st7, .st8, .st9, .st10, .st11, .st12, .st13, .st14, .st15, .st16, .st17, .st18, .st19, .st20, .st21, .st22, .st23, .st24, .st25, .st26, .st27, .st28, .st29, .st30, .st31, .st32, .st33, .st34, .st35, .st36, .st37, .st38, .st39, .st40, .st41, .st42, .st43, .st44, .st45, .st46, .st47, .st48, .st49, .st50, .st51, .st52, .st53, .st54, .st55, .st56, .st57, .st58, .st59, .st60, .st61, .st62, .st63, .st64, .st65, .st66, .st67, .st68, .st69, .st70, .st71, .st72, .st73, .st74, .st75, .st76, .st77, .st78, .st79, .st80, .st81, .st82, .st83, .st84, .st85, .st86 {
        fill: none;
        stroke-miterlimit: 10;
        stroke-width: .5px;
      }

      .st0, .st1, .st2, .st3, .st4, .st5, .st6, .st7, .st8, .st9, .st10, .st11, .st12, .st13, .st14, .st15, .st16, .st17, .st18, .st19, .st20, .st21, .st22, .st23, .st24, .st25, .st26, .st27, .st28, .st29, .st30, .st31, .st32, .st33, .st34, .st35, .st36, .st37, .st38, .st39, .st40, .st41, .st42, .st43, .st44, .st45, .st46, .st47, .st48, .st49, .st50, .st51, .st52, .st53, .st54, .st55, .st56, .st57, .st59, .st60, .st61, .st62, .st63, .st64, .st65, .st66, .st67, .st68, .st69, .st70, .st71, .st72, .st73, .st74, .st75, .st76, .st77, .st78, .st79, .st80, .st81, .st82, .st83, .st84, .st85, .st86 {
        mix-blend-mode: multiply;
      }

      .st1 {
        stroke: url(#linear-gradient32);
      }

      .st2 {
        stroke: url(#linear-gradient51);
      }

      .st3 {
        stroke: url(#linear-gradient10);
      }

      .st4 {
        stroke: url(#linear-gradient62);
      }

      .st5 {
        stroke: url(#linear-gradient84);
      }

      .st6 {
        stroke: url(#linear-gradient77);
      }

      .st7 {
        stroke: url(#linear-gradient57);
      }

      .st8 {
        stroke: url(#linear-gradient70);
      }

      .st9 {
        stroke: url(#linear-gradient27);
      }

      .st10 {
        stroke: url(#linear-gradient22);
      }

      .st11 {
        stroke: url(#linear-gradient2);
      }

      .st12 {
        stroke: url(#linear-gradient17);
      }

      .st13 {
        stroke: url(#linear-gradient71);
      }

      .st14 {
        stroke: url(#linear-gradient47);
      }

      .st15 {
        stroke: url(#linear-gradient33);
      }

      .st16 {
        stroke: url(#linear-gradient54);
      }

      .st17 {
        stroke: url(#linear-gradient21);
      }

      .st18 {
        stroke: url(#linear-gradient28);
      }

      .st19 {
        stroke: url(#linear-gradient37);
      }

      .st20 {
        stroke: url(#linear-gradient15);
      }

      .st21 {
        stroke: url(#linear-gradient80);
      }

      .st22 {
        stroke: url(#linear-gradient43);
      }

      .st23 {
        stroke: url(#linear-gradient78);
      }

      .st24 {
        stroke: url(#linear-gradient44);
      }

      .st25 {
        stroke: url(#linear-gradient8);
      }

      .st26 {
        stroke: url(#linear-gradient14);
      }

      .st27 {
        stroke: url(#linear-gradient30);
      }

      .st28 {
        stroke: url(#linear-gradient86);
      }

      .st87 {
        isolation: isolate;
      }

      .st29 {
        stroke: url(#linear-gradient64);
      }

      .st30 {
        stroke: url(#linear-gradient60);
      }

      .st31 {
        stroke: url(#linear-gradient75);
      }

      .st32 {
        stroke: url(#linear-gradient18);
      }

      .st33 {
        stroke: url(#linear-gradient73);
      }

      .st34 {
        stroke: url(#linear-gradient52);
      }

      .st35 {
        stroke: url(#linear-gradient40);
      }

      .st36 {
        stroke: url(#linear-gradient23);
      }

      .st37 {
        stroke: url(#linear-gradient65);
      }

      .st38 {
        stroke: url(#linear-gradient9);
      }

      .st39 {
        stroke: url(#linear-gradient53);
      }

      .st40 {
        stroke: url(#linear-gradient24);
      }

      .st41 {
        stroke: url(#linear-gradient3);
      }

      .st42 {
        stroke: url(#linear-gradient82);
      }

      .st43 {
        stroke: url(#linear-gradient83);
      }

      .st44 {
        stroke: url(#linear-gradient72);
      }

      .st45 {
        stroke: url(#linear-gradient7);
      }

      .st46 {
        stroke: url(#linear-gradient49);
      }

      .st47 {
        stroke: url(#linear-gradient20);
      }

      .st48 {
        stroke: url(#linear-gradient59);
      }

      .st49 {
        stroke: url(#linear-gradient26);
      }

      .st50 {
        stroke: url(#linear-gradient12);
      }

      .st51 {
        stroke: url(#linear-gradient35);
      }

      .st52 {
        stroke: url(#linear-gradient66);
      }

      .st53 {
        stroke: url(#linear-gradient79);
      }

      .st54 {
        stroke: url(#linear-gradient85);
      }

      .st55 {
        stroke: url(#linear-gradient19);
      }

      .st56 {
        stroke: url(#linear-gradient50);
      }

      .st57 {
        stroke: url(#linear-gradient67);
      }

      .st58 {
        stroke: url(#linear-gradient);
      }

      .st59 {
        stroke: url(#linear-gradient63);
      }

      .st60 {
        stroke: url(#linear-gradient11);
      }

      .st61 {
        stroke: url(#linear-gradient46);
      }

      .st62 {
        stroke: url(#linear-gradient29);
      }

      .st63 {
        stroke: url(#linear-gradient38);
      }

      .st64 {
        stroke: url(#linear-gradient41);
      }

      .st65 {
        stroke: url(#linear-gradient81);
      }

      .st66 {
        stroke: url(#linear-gradient16);
      }

      .st67 {
        stroke: url(#linear-gradient4);
      }

      .st68 {
        stroke: url(#linear-gradient69);
      }

      .st69 {
        stroke: url(#linear-gradient76);
      }

      .st70 {
        stroke: url(#linear-gradient5);
      }

      .st71 {
        stroke: url(#linear-gradient56);
      }

      .st72 {
        stroke: url(#linear-gradient13);
      }

      .st73 {
        stroke: url(#linear-gradient58);
      }

      .st74 {
        stroke: url(#linear-gradient25);
      }

      .st75 {
        stroke: url(#linear-gradient68);
      }

      .st76 {
        stroke: url(#linear-gradient42);
      }

      .st77 {
        stroke: url(#linear-gradient55);
      }

      .st78 {
        stroke: url(#linear-gradient34);
      }

      .st79 {
        stroke: url(#linear-gradient45);
      }

      .st80 {
        stroke: url(#linear-gradient74);
      }

      .st81 {
        stroke: url(#linear-gradient36);
      }

      .st82 {
        stroke: url(#linear-gradient31);
      }

      .st83 {
        stroke: url(#linear-gradient61);
      }

      .st84 {
        stroke: url(#linear-gradient6);
      }

      .st85 {
        stroke: url(#linear-gradient48);
      }

      .st86 {
        stroke: url(#linear-gradient1);
      }
    </style>
    <linearGradient id="linear-gradient" x1="637.05" y1="231.34" x2="973.69" y2="231.34" gradientTransform="translate(354.55 -474.99) rotate(41.42)" gradientUnits="userSpaceOnUse">
      <stop offset=".12" stop-color="#5fc8da"/>
      <stop offset=".43" stop-color="#939598"/>
      <stop offset=".61" stop-color="#71c2d0"/>
      <stop offset="1" stop-color="#939598"/>
    </linearGradient>
    <linearGradient id="linear-gradient1" x1="644.54" y1="270.09" x2="897.82" y2="270.09" gradientTransform="translate(371.71 -442.72) rotate(41.43)" xlink:href="#linear-gradient"/>
    <linearGradient id="linear-gradient2" x1="606.31" y1="277.76" x2="941.33" y2="277.76" gradientTransform="translate(377.59 -442.62) rotate(41.44)" xlink:href="#linear-gradient"/>
    <linearGradient id="linear-gradient3" x1="494.11" y1="303.09" x2="1007.47" y2="303.09" gradientTransform="translate(388.19 -420.84) rotate(41.41)" xlink:href="#linear-gradient"/>
    <linearGradient id="linear-gradient4" x1="623.17" y1="272.88" x2="958.2" y2="272.88" gradientTransform="translate(378.59 -455.01) rotate(41.44)" xlink:href="#linear-gradient"/>
    <linearGradient id="linear-gradient5" x1="573.37" y1="321.84" x2="908.39" y2="321.84" gradientTransform="translate(397.98 -409.53) rotate(41.4)" xlink:href="#linear-gradient"/>
    <linearGradient id="linear-gradient6" x1="656.19" y1="253.74" x2="991.22" y2="253.74" gradientTransform="translate(374.31 -481.73) rotate(41.45)" xlink:href="#linear-gradient"/>
    <linearGradient id="linear-gradient7" x1="663.69" y1="125.56" x2="1113.1" y2="125.56" gradientTransform="translate(305.27 -556.33) rotate(41.42)" xlink:href="#linear-gradient"/>
    <linearGradient id="linear-gradient8" x1="766.18" y1="112.33" x2="1051.9" y2="112.33" gradientTransform="translate(301.79 -573.39) rotate(41.43)" xlink:href="#linear-gradient"/>
    <linearGradient id="linear-gradient9" x1="690.5" y1="97.34" x2="1172.88" y2="97.34" gradientTransform="translate(297.43 -592.04) rotate(41.42)" xlink:href="#linear-gradient"/>
    <linearGradient id="linear-gradient10" x1="722.35" y1="121.27" x2="1100.41" y2="121.27" gradientTransform="translate(308.23 -572.65) rotate(41.42)" xlink:href="#linear-gradient"/>
    <linearGradient id="linear-gradient11" x1="597.27" y1="148.52" x2="1176.8" y2="148.52" gradientTransform="translate(320.23 -549.78) rotate(41.43)" xlink:href="#linear-gradient"/>
    <linearGradient id="linear-gradient12" x1="761.1" y1="147.02" x2="1139.16" y2="147.02" gradientTransform="translate(335.33 -592.16) rotate(41.45)" xlink:href="#linear-gradient"/>
    <linearGradient id="linear-gradient13" x1="678.88" y1="170.7" x2="1056.93" y2="170.7" gradientTransform="translate(329.68 -531.23) rotate(41.39)" xlink:href="#linear-gradient"/>
    <linearGradient id="linear-gradient14" x1="793.42" y1=".69" x2="1171.48" y2=".69" gradientTransform="translate(246.56 -650.21) rotate(41.45)" xlink:href="#linear-gradient"/>
    <linearGradient id="linear-gradient15" x1="727.23" y1="28.84" x2="1209.61" y2="28.84" gradientTransform="translate(261.18 -633.34) rotate(41.41)" xlink:href="#linear-gradient"/>
    <linearGradient id="linear-gradient16" x1="759.07" y1="51.78" x2="1137.13" y2="51.78" gradientTransform="translate(271.38 -614.28) rotate(41.42)" xlink:href="#linear-gradient"/>
    <linearGradient id="linear-gradient17" x1="632" y1="80.03" x2="1211.53" y2="80.03" gradientTransform="translate(283.39 -589.7) rotate(41.41)" xlink:href="#linear-gradient"/>
    <linearGradient id="linear-gradient18" x1="777.48" y1="45.53" x2="1155.54" y2="45.53" gradientTransform="translate(272.24 -628.42) rotate(41.45)" xlink:href="#linear-gradient"/>
    <linearGradient id="linear-gradient19" x1="720.9" y1="100.48" x2="1098.96" y2="100.48" gradientTransform="translate(294.32 -577.08) rotate(41.44)" xlink:href="#linear-gradient"/>
    <linearGradient id="linear-gradient20" x1="460.2" y1="233.02" x2="909.61" y2="233.02" gradientTransform="translate(325.47 -394.83) rotate(41.42)" xlink:href="#linear-gradient"/>
    <linearGradient id="linear-gradient21" x1="562.7" y1="219.8" x2="848.41" y2="219.8" gradientTransform="translate(321.88 -411.8) rotate(41.42)" xlink:href="#linear-gradient"/>
    <linearGradient id="linear-gradient22" x1="487.02" y1="204.8" x2="969.4" y2="204.8" gradientTransform="translate(317.28 -430.31) rotate(41.39)" xlink:href="#linear-gradient"/>
    <linearGradient id="linear-gradient23" x1="518.86" y1="227.74" x2="896.92" y2="227.74" gradientTransform="translate(327.82 -411.42) rotate(41.43)" xlink:href="#linear-gradient"/>
    <linearGradient id="linear-gradient24" x1="391.79" y1="255.99" x2="971.32" y2="255.99" gradientTransform="translate(339.82 -386.87) rotate(41.42)" xlink:href="#linear-gradient"/>
    <linearGradient id="linear-gradient25" x1="537.27" y1="221.49" x2="915.33" y2="221.49" gradientTransform="translate(328.32 -425.18) rotate(41.43)" xlink:href="#linear-gradient"/>
    <linearGradient id="linear-gradient26" x1="480.69" y1="276.44" x2="858.74" y2="276.44" gradientTransform="translate(350.03 -373.74) rotate(41.39)" xlink:href="#linear-gradient"/>
    <linearGradient id="linear-gradient27" x1="573.93" y1="199.13" x2="951.99" y2="199.13" gradientTransform="translate(322.94 -455.19) rotate(41.45)" xlink:href="#linear-gradient"/>
    <linearGradient id="linear-gradient28" x1="708.65" y1="4.14" x2="1086.71" y2="4.14" gradientTransform="translate(227.7 -593.33) rotate(41.46)" xlink:href="#linear-gradient"/>
    <linearGradient id="linear-gradient29" x1="614.77" y1="60.51" x2="1064.18" y2="60.51" gradientTransform="translate(249.91 -540.15) rotate(41.41)" xlink:href="#linear-gradient"/>
    <linearGradient id="linear-gradient30" x1="717.27" y1="47.29" x2="1002.98" y2="47.29" gradientTransform="translate(246.64 -557.43) rotate(41.44)" xlink:href="#linear-gradient"/>
    <linearGradient id="linear-gradient31" x1="641.59" y1="32.29" x2="1123.96" y2="32.29" gradientTransform="translate(242.03 -575.8) rotate(41.41)" xlink:href="#linear-gradient"/>
    <linearGradient id="linear-gradient32" x1="673.43" y1="55.23" x2="1051.49" y2="55.23" gradientTransform="translate(252.55 -557.06) rotate(41.45)" xlink:href="#linear-gradient"/>
    <linearGradient id="linear-gradient33" x1="546.36" y1="83.48" x2="1125.88" y2="83.48" gradientTransform="translate(264.14 -532.07) rotate(41.4)" xlink:href="#linear-gradient"/>
    <linearGradient id="linear-gradient34" x1="691.84" y1="48.98" x2="1069.9" y2="48.98" gradientTransform="translate(252.74 -570.52) rotate(41.42)" xlink:href="#linear-gradient"/>
    <linearGradient id="linear-gradient35" x1="493.02" y1="114.95" x2="969.51" y2="114.95" gradientTransform="translate(259.37 -455.38) rotate(41.46)" xlink:href="#linear-gradient"/>
    <linearGradient id="linear-gradient36" x1="373.85" y1="185.39" x2="940.42" y2="185.39" gradientTransform="translate(287.14 -388.45) rotate(41.43)" xlink:href="#linear-gradient"/>
    <linearGradient id="linear-gradient37" x1="406.4" y1="148.29" x2="1014.59" y2="148.29" gradientTransform="translate(275.7 -432.88) rotate(41.41)" xlink:href="#linear-gradient"/>
    <linearGradient id="linear-gradient38" x1="445.96" y1="176.5" x2="922.44" y2="176.5" gradientTransform="translate(288.17 -408.69) rotate(41.45)" xlink:href="#linear-gradient"/>
    <linearGradient id="linear-gradient39" x1="284.86" y1="211.43" x2="1015.72" y2="211.43" gradientTransform="translate(302.54 -377.34) rotate(41.42)" xlink:href="#linear-gradient"/>
    <linearGradient id="linear-gradient40" x1="467.89" y1="167.14" x2="944.38" y2="167.14" gradientTransform="translate(287.43 -425.52) rotate(41.44)" xlink:href="#linear-gradient"/>
    <linearGradient id="linear-gradient41" x1="668.08" y1="-32.2" x2="1046.14" y2="-32.2" gradientTransform="translate(193.7 -575.85) rotate(41.49)" xlink:href="#linear-gradient"/>
    <linearGradient id="linear-gradient42" x1="676.69" y1="10.95" x2="962.41" y2="10.95" gradientTransform="translate(212.19 -539.41) rotate(41.42)" xlink:href="#linear-gradient"/>
    <linearGradient id="linear-gradient43" x1="601.02" y1="-4.04" x2="1083.39" y2="-4.04" gradientTransform="translate(208.08 -558.32) rotate(41.43)" xlink:href="#linear-gradient"/>
    <linearGradient id="linear-gradient44" x1="632.86" y1="18.89" x2="1010.92" y2="18.89" gradientTransform="translate(217.98 -538.92) rotate(41.41)" xlink:href="#linear-gradient"/>
    <linearGradient id="linear-gradient45" x1="505.78" y1="47.14" x2="1085.31" y2="47.14" gradientTransform="translate(230.33 -514.68) rotate(41.44)" xlink:href="#linear-gradient"/>
    <linearGradient id="linear-gradient46" x1="651.27" y1="12.65" x2="1029.33" y2="12.65" gradientTransform="translate(218.69 -552.92) rotate(41.43)" xlink:href="#linear-gradient"/>
    <linearGradient id="linear-gradient47" x1="594.68" y1="67.59" x2="972.74" y2="67.59" gradientTransform="translate(240.23 -501.09) rotate(41.37)" xlink:href="#linear-gradient"/>
    <linearGradient id="linear-gradient48" x1="687.92" y1="-9.71" x2="1065.98" y2="-9.71" gradientTransform="translate(212.91 -582.59) rotate(41.42)" xlink:href="#linear-gradient"/>
    <linearGradient id="linear-gradient49" x1="500.53" y1="148.53" x2="745.1" y2="148.53" gradientTransform="translate(253.94 -374.81) rotate(41.41)" xlink:href="#linear-gradient"/>
    <linearGradient id="linear-gradient50" x1="436.24" y1="136.13" x2="848.83" y2="136.13" gradientTransform="translate(250.67 -390.96) rotate(41.41)" xlink:href="#linear-gradient"/>
    <linearGradient id="linear-gradient51" x1="463.8" y1="156.13" x2="787.27" y2="156.13" gradientTransform="translate(259.67 -374.73) rotate(41.41)" xlink:href="#linear-gradient"/>
    <linearGradient id="linear-gradient52" x1="355.59" y1="180.68" x2="851.19" y2="180.68" gradientTransform="translate(270.07 -353.76) rotate(41.38)" xlink:href="#linear-gradient"/>
    <linearGradient id="linear-gradient53" x1="480.25" y1="151.62" x2="803.72" y2="151.62" gradientTransform="translate(260.88 -386.8) rotate(41.42)" xlink:href="#linear-gradient"/>
    <linearGradient id="linear-gradient54" x1="432.27" y1="198.97" x2="755.73" y2="198.97" gradientTransform="translate(279.9 -343.03) rotate(41.39)" xlink:href="#linear-gradient"/>
    <linearGradient id="linear-gradient55" x1="512.29" y1="133.34" x2="835.76" y2="133.34" gradientTransform="translate(256.9 -412.64) rotate(41.43)" xlink:href="#linear-gradient"/>
    <linearGradient id="linear-gradient56" x1="538.4" y1="-16.38" x2="987.82" y2="-16.38" gradientTransform="translate(180.24 -509.19) rotate(41.44)" xlink:href="#linear-gradient"/>
    <linearGradient id="linear-gradient57" x1="640.9" y1="-29.6" x2="926.61" y2="-29.6" gradientTransform="translate(176.63 -526.14) rotate(41.44)" xlink:href="#linear-gradient"/>
    <linearGradient id="linear-gradient58" x1="565.22" y1="-44.6" x2="1047.6" y2="-44.6" gradientTransform="translate(172.29 -544.78) rotate(41.43)" xlink:href="#linear-gradient"/>
    <linearGradient id="linear-gradient59" x1="597.06" y1="-21.66" x2="975.12" y2="-21.66" gradientTransform="translate(182.38 -525.59) rotate(41.43)" xlink:href="#linear-gradient"/>
    <linearGradient id="linear-gradient60" x1="469.99" y1="6.59" x2="1049.52" y2="6.59" gradientTransform="translate(194.39 -500.98) rotate(41.42)" xlink:href="#linear-gradient"/>
    <linearGradient id="linear-gradient61" x1="615.47" y1="-27.91" x2="993.53" y2="-27.91" gradientTransform="translate(182.77 -539.23) rotate(41.42)" xlink:href="#linear-gradient"/>
    <linearGradient id="linear-gradient62" x1="558.89" y1="27.04" x2="936.94" y2="27.04" gradientTransform="translate(204.76 -487.83) rotate(41.4)" xlink:href="#linear-gradient"/>
    <linearGradient id="linear-gradient63" x1="652.13" y1="-50.26" x2="1030.19" y2="-50.26" gradientTransform="translate(177.15 -569.07) rotate(41.42)" xlink:href="#linear-gradient"/>
    <linearGradient id="linear-gradient64" x1="614.38" y1="-93.03" x2="992.44" y2="-93.03" gradientUnits="userSpaceOnUse">
      <stop offset="0" stop-color="#5fc8da"/>
      <stop offset=".43" stop-color="#939598"/>
    </linearGradient>
    <linearGradient id="linear-gradient65" x1="623" y1="-49.88" x2="908.72" y2="-49.88" gradientTransform="translate(158.66 -519.28) rotate(41.43)" xlink:href="#linear-gradient"/>
    <linearGradient id="linear-gradient66" x1="547.33" y1="-64.87" x2="1029.7" y2="-64.87" gradientTransform="translate(154.4 -538.01) rotate(41.43)" xlink:href="#linear-gradient"/>
    <linearGradient id="linear-gradient67" x1="579.17" y1="-41.94" x2="957.23" y2="-41.94" gradientTransform="translate(164.7 -519.1) rotate(41.46)" xlink:href="#linear-gradient"/>
    <linearGradient id="linear-gradient68" x1="452.09" y1="-13.69" x2="1031.62" y2="-13.69" gradientTransform="translate(176.42 -494.12) rotate(41.41)" xlink:href="#linear-gradient"/>
    <linearGradient id="linear-gradient69" x1="597.58" y1="-48.18" x2="975.64" y2="-48.18" gradientTransform="translate(165.06 -532.7) rotate(41.44)" xlink:href="#linear-gradient"/>
    <linearGradient id="linear-gradient70" x1="540.99" y1="6.77" x2="919.05" y2="6.77" gradientTransform="translate(186.56 -480.7) rotate(41.36)" xlink:href="#linear-gradient"/>
    <linearGradient id="linear-gradient71" x1="486.09" y1="34.9" x2="771.8" y2="34.9" gradientTransform="translate(180.48 -407.44) rotate(41.43)" xlink:href="#linear-gradient"/>
    <linearGradient id="linear-gradient72" x1="410.41" y1="19.91" x2="892.78" y2="19.91" gradientTransform="translate(175.72 -425.64) rotate(41.36)" xlink:href="#linear-gradient"/>
    <linearGradient id="linear-gradient73" x1="442.25" y1="42.84" x2="820.31" y2="42.84" gradientTransform="translate(186.35 -407.03) rotate(41.43)" xlink:href="#linear-gradient"/>
    <linearGradient id="linear-gradient74" x1="315.18" y1="71.09" x2="894.7" y2="71.09" gradientTransform="translate(198.17 -382.28) rotate(41.4)" xlink:href="#linear-gradient"/>
    <linearGradient id="linear-gradient75" x1="460.66" y1="36.6" x2="838.72" y2="36.6" gradientTransform="translate(186.8 -420.75) rotate(41.43)" xlink:href="#linear-gradient"/>
    <linearGradient id="linear-gradient76" x1="404.07" y1="91.54" x2="782.13" y2="91.54" gradientTransform="translate(208.73 -369.34) rotate(41.4)" xlink:href="#linear-gradient"/>
    <linearGradient id="linear-gradient77" x1="497.32" y1="14.24" x2="875.38" y2="14.24" gradientTransform="translate(181.02 -450.43) rotate(41.41)" xlink:href="#linear-gradient"/>
    <linearGradient id="linear-gradient78" x1="578.59" y1="-133.58" x2="956.65" y2="-133.58" gradientTransform="translate(103.86 -541.63) rotate(41.45)" gradientUnits="userSpaceOnUse">
      <stop offset="0" stop-color="#5fc8da"/>
      <stop offset=".43" stop-color="#d1d3d4"/>
    </linearGradient>
    <linearGradient id="linear-gradient79" x1="484.71" y1="-77.2" x2="934.12" y2="-77.2" gradientTransform="translate(126.3 -488.55) rotate(41.41)" xlink:href="#linear-gradient"/>
    <linearGradient id="linear-gradient80" x1="587.21" y1="-90.43" x2="872.92" y2="-90.43" gradientTransform="translate(123.02 -505.96) rotate(41.45)" xlink:href="#linear-gradient78"/>
    <linearGradient id="linear-gradient81" x1="511.53" y1="-105.42" x2="993.91" y2="-105.42" gradientTransform="translate(118.49 -524.29) rotate(41.41)" xlink:href="#linear-gradient"/>
    <linearGradient id="linear-gradient82" x1="543.37" y1="-82.49" x2="921.43" y2="-82.49" gradientTransform="translate(128.62 -505.18) rotate(41.42)" xlink:href="#linear-gradient"/>
    <linearGradient id="linear-gradient83" x1="416.3" y1="-54.24" x2="995.83" y2="-54.24" gradientTransform="translate(140.78 -480.77) rotate(41.43)" xlink:href="#linear-gradient"/>
    <linearGradient id="linear-gradient84" x1="561.78" y1="-88.74" x2="939.84" y2="-88.74" gradientTransform="translate(129.26 -519.16) rotate(41.44)" xlink:href="#linear-gradient"/>
    <linearGradient id="linear-gradient85" x1="505.2" y1="-33.79" x2="883.25" y2="-33.79" gradientTransform="translate(150.97 -467.33) rotate(41.38)" xlink:href="#linear-gradient"/>
    <linearGradient id="linear-gradient86" x1="598.44" y1="-111.09" x2="976.5" y2="-111.09" gradientTransform="translate(123.55 -548.88) rotate(41.43)" xlink:href="#linear-gradient64"/>
  </defs>
  <g class="st87">
    <g id="Layer_1">
      <rect class="st58" x="582.98" y="229.47" width="444.77" height="3.75" transform="translate(48.42 590.74) rotate(-41.42)"/>
      <rect class="st86" x="604.39" y="268.21" width="333.59" height="3.75" transform="translate(14.26 577.89) rotate(-41.43)"/>
      <rect class="st11" x="552.51" y="275.89" width="442.62" height="3.75" transform="translate(9.91 581.72) rotate(-41.44)"/>
      <rect class="st41" x="410.54" y="301.22" width="680.5" height="3.75" transform="translate(-12.77 572.39) rotate(-41.41)"/>
      <rect class="st67" x="569.38" y="271" width="442.62" height="3.75" transform="translate(17.36 591.66) rotate(-41.44)"/>
      <rect class="st70" x="519.57" y="319.97" width="442.62" height="3.75" transform="translate(-27.7 570.39) rotate(-41.4)"/>
      <rect class="st84" x="602.39" y="251.86" width="442.62" height="3.75" transform="translate(38.36 608.86) rotate(-41.45)"/>
      <rect class="st45" x="590.8" y="123.68" width="595.19" height="3.75" transform="translate(139.14 619.14) rotate(-41.42)"/>
      <rect class="st25" x="720.61" y="110.46" width="376.85" height="3.75" transform="translate(153.13 629.61) rotate(-41.43)"/>
      <rect class="st38" x="612.11" y="95.46" width="639.16" height="3.75" transform="translate(168.64 640.73) rotate(-41.42)"/>
      <rect class="st3" x="661.37" y="119.4" width="500.02" height="3.75" transform="translate(147.76 633.32) rotate(-41.42)"/>
      <rect class="st60" x="502.66" y="146.65" width="768.75" height="3.75" transform="translate(123.68 624.11) rotate(-41.43)"/>
      <rect class="st50" x="700.12" y="145.14" width="500.02" height="3.75" transform="translate(140.68 665.82) rotate(-41.45)"/>
      <rect class="st72" x="617.9" y="168.83" width="500.02" height="3.75" transform="translate(103.94 616.52) rotate(-41.39)"/>
      <rect class="st26" x="732.44" y="-1.19" width="500.02" height="3.75" transform="translate(245.65 650.56) rotate(-41.45)"/>
      <rect class="st20" x="648.84" y="26.97" width="639.16" height="3.75" transform="translate(223.03 647.76) rotate(-41.41)"/>
      <rect class="st66" x="698.09" y="49.9" width="500.02" height="3.75" transform="translate(202.87 640.18) rotate(-41.42)"/>
      <rect class="st12" x="537.39" y="78.15" width="768.75" height="3.75" transform="translate(177.52 629.71) rotate(-41.41)"/>
      <rect class="st32" x="716.5" y="43.66" width="500.02" height="3.75" transform="translate(211.96 651.23) rotate(-41.45)"/>
      <rect class="st55" x="659.92" y="98.61" width="500.02" height="3.75" transform="translate(161.31 627.4) rotate(-41.44)"/>
      <rect class="st47" x="387.31" y="231.15" width="595.19" height="3.75" transform="translate(17.15 511.4) rotate(-41.42)"/>
      <rect class="st17" x="517.13" y="217.92" width="376.85" height="3.75" transform="translate(31.06 521.75) rotate(-41.42)"/>
      <rect class="st10" x="408.63" y="202.93" width="639.16" height="3.75" transform="translate(46.46 532.61) rotate(-41.39)"/>
      <rect class="st36" x="457.88" y="225.86" width="500.02" height="3.75" transform="translate(26.44 525.39) rotate(-41.43)"/>
      <rect class="st40" x="297.18" y="254.11" width="768.75" height="3.75" transform="translate(1.12 514.92) rotate(-41.42)"/>
      <rect class="st74" x="476.29" y="219.62" width="500.02" height="3.75" transform="translate(35.19 536.03) rotate(-41.43)"/>
      <rect class="st49" x="419.71" y="274.56" width="500.02" height="3.75" transform="translate(-15.51 511.82) rotate(-41.39)"/>
      <rect class="st9" x="512.95" y="197.26" width="500.02" height="3.75" transform="translate(59.29 554.95) rotate(-41.45)"/>
      <rect class="st18" x="647.67" y="2.26" width="500.02" height="3.75" transform="translate(222.22 595.41) rotate(-41.46)"/>
      <rect class="st62" x="541.88" y="58.64" width="595.19" height="3.75" transform="translate(169.86 570.41) rotate(-41.41)"/>
      <rect class="st27" x="671.7" y="45.41" width="376.85" height="3.75" transform="translate(184.05 581.11) rotate(-41.44)"/>
      <rect class="st82" x="563.19" y="30.42" width="639.16" height="3.75" transform="translate(199.31 591.95) rotate(-41.41)"/>
      <rect class="st1" x="612.45" y="53.35" width="500.02" height="3.75" transform="translate(179.44 584.73) rotate(-41.45)"/>
      <rect class="st15" x="451.75" y="81.6" width="768.75" height="3.75" transform="translate(153.73 573.79) rotate(-41.4)"/>
      <rect class="st78" x="630.86" y="47.11" width="500.02" height="3.75" transform="translate(187.93 595.02) rotate(-41.42)"/>
      <rect class="st51" x="415.61" y="113.08" width="631.31" height="3.75" transform="translate(107.15 512.99) rotate(-41.46)"/>
      <rect class="st81" x="281.4" y="183.51" width="751.47" height="3.75" transform="translate(41.78 481.25) rotate(-41.43)"/>
      <rect class="st19" x="307.01" y="146.41" width="806.98" height="3.75" transform="translate(79.54 507.02) rotate(-41.41)"/>
      <rect class="st63" x="368.54" y="174.63" width="631.31" height="3.75" transform="translate(54.51 497.09) rotate(-41.45)"/>
      <rect class="st0" x="164.99" y="209.56" width="970.59" height="3.75" transform="translate(22.78 483.11) rotate(-41.42)"/>
      <rect class="st35" x="390.48" y="165.26" width="631.31" height="3.75" transform="translate(66.18 509.22) rotate(-41.44)"/>
      <rect class="st64" x="607.09" y="-34.07" width="500.02" height="3.75" transform="translate(236.36 559.7) rotate(-41.49)"/>
      <rect class="st76" x="631.13" y="9.08" width="376.85" height="3.75" transform="translate(197.7 544.89) rotate(-41.42)"/>
      <rect class="st22" x="522.62" y="-5.92" width="639.16" height="3.75" transform="translate(213.44 556.29) rotate(-41.43)"/>
      <rect class="st24" x="571.88" y="17.02" width="500.02" height="3.75" transform="translate(192.99 548.36) rotate(-41.41)"/>
      <rect class="st79" x="411.17" y="45.27" width="768.75" height="3.75" transform="translate(167.93 538.28) rotate(-41.44)"/>
      <rect class="st61" x="590.29" y="10.77" width="500.02" height="3.75" transform="translate(201.95 559.25) rotate(-41.43)"/>
      <rect class="st14" x="533.7" y="65.72" width="500.02" height="3.75" transform="translate(150.89 534.82) rotate(-41.37)"/>
      <rect class="st85" x="626.95" y="-11.58" width="500.02" height="3.75" transform="translate(225.76 577.73) rotate(-41.42)"/>
      <rect class="st46" x="461.83" y="146.66" width="321.97" height="3.75" transform="translate(57.45 449.07) rotate(-41.41)"/>
      <rect class="st56" x="369.49" y="134.26" width="546.08" height="3.75" transform="translate(70.59 459.03) rotate(-41.41)"/>
      <rect class="st2" x="411.93" y="154.26" width="427.2" height="3.75" transform="translate(53.12 452.8) rotate(-41.41)"/>
      <rect class="st34" x="274.99" y="178.81" width="656.8" height="3.75" transform="translate(31.2 443.97) rotate(-41.38)"/>
      <rect class="st39" x="428.38" y="149.74" width="427.2" height="3.75" transform="translate(60.27 462.64) rotate(-41.42)"/>
      <rect class="st16" x="380.4" y="197.1" width="427.2" height="3.75" transform="translate(16.8 442.42) rotate(-41.39)"/>
      <rect class="st77" x="460.43" y="131.46" width="427.2" height="3.75" transform="translate(80.44 479.37) rotate(-41.43)"/>
      <rect class="st71" x="465.51" y="-18.25" width="595.19" height="3.75" transform="translate(201.92 500.99) rotate(-41.44)"/>
      <rect class="st7" x="595.33" y="-31.48" width="376.85" height="3.75" transform="translate(215.82 511.32) rotate(-41.44)"/>
      <rect class="st73" x="486.83" y="-46.47" width="639.16" height="3.75" transform="translate(231.31 522.46) rotate(-41.43)"/>
      <rect class="st48" x="536.08" y="-23.54" width="500.02" height="3.75" transform="translate(211.05 514.75) rotate(-41.43)"/>
      <rect class="st30" x="375.38" y="4.72" width="768.75" height="3.75" transform="translate(185.67 504.28) rotate(-41.42)"/>
      <rect class="st83" x="554.49" y="-29.78" width="500.02" height="3.75" transform="translate(219.69 525.27) rotate(-41.42)"/>
      <rect class="st4" x="497.91" y="25.17" width="500.02" height="3.75" transform="translate(169 501.34) rotate(-41.4)"/>
      <rect class="st59" x="591.15" y="-52.14" width="500.02" height="3.75" transform="translate(243.65 543.93) rotate(-41.42)"/>
      <polygon class="st29" points="989.61 -259.88 992.09 -257.07 617.21 73.83 614.74 71.01 989.61 -259.88"/>
      <rect class="st37" x="577.44" y="-51.75" width="376.85" height="3.75" transform="translate(224.67 494.32) rotate(-41.43)"/>
      <rect class="st52" x="468.93" y="-66.75" width="639.16" height="3.75" transform="translate(240.25 505.54) rotate(-41.43)"/>
      <rect class="st57" x="518.19" y="-43.81" width="500.02" height="3.75" transform="translate(220.23 498.08) rotate(-41.46)"/>
      <rect class="st75" x="357.48" y="-15.56" width="768.75" height="3.75" transform="translate(194.52 487.28) rotate(-41.41)"/>
      <rect class="st68" x="536.6" y="-50.06" width="500.02" height="3.75" transform="translate(228.84 508.57) rotate(-41.44)"/>
      <rect class="st8" x="480.01" y="4.89" width="500.02" height="3.75" transform="translate(177.62 484.07) rotate(-41.36)"/>
      <rect class="st13" x="440.52" y="33.03" width="376.85" height="3.75" transform="translate(134.29 424.91) rotate(-41.43)"/>
      <rect class="st44" x="332.02" y="18.03" width="639.16" height="3.75" transform="translate(149.41 435.58) rotate(-41.36)"/>
      <rect class="st33" x="381.27" y="40.97" width="500.02" height="3.75" transform="translate(129.65 428.48) rotate(-41.43)"/>
      <rect class="st80" x="220.57" y="69.22" width="768.75" height="3.75" transform="translate(104.14 417.8) rotate(-41.4)"/>
      <rect class="st31" x="399.68" y="34.72" width="500.02" height="3.75" transform="translate(138.37 439.07) rotate(-41.43)"/>
      <rect class="st69" x="343.1" y="89.67" width="500.02" height="3.75" transform="translate(87.66 415.09) rotate(-41.4)"/>
      <rect class="st6" x="436.34" y="12.37" width="500.02" height="3.75" transform="translate(162.18 457.55) rotate(-41.41)"/>
      <rect class="st23" x="517.61" y="-135.45" width="500.02" height="3.75" transform="translate(280.72 474.7) rotate(-41.45)"/>
      <rect class="st53" x="411.82" y="-79.08" width="595.19" height="3.75" transform="translate(228.43 449.94) rotate(-41.41)"/>
      <rect class="st21" x="541.64" y="-92.3" width="376.85" height="3.75" transform="translate(242.74 460.65) rotate(-41.45)"/>
      <rect class="st65" x="433.14" y="-107.3" width="639.16" height="3.75" transform="translate(257.96 471.57) rotate(-41.41)"/>
      <rect class="st42" x="482.39" y="-84.36" width="500.02" height="3.75" transform="translate(237.77 463.92) rotate(-41.42)"/>
      <rect class="st43" x="321.69" y="-56.11" width="768.75" height="3.75" transform="translate(212.56 453.62) rotate(-41.43)"/>
      <rect class="st5" x="500.8" y="-90.61" width="500.02" height="3.75" transform="translate(246.72 474.72) rotate(-41.44)"/>
      <rect class="st54" x="444.22" y="-35.66" width="500.02" height="3.75" transform="translate(195.64 450.46) rotate(-41.38)"/>
      <rect class="st28" x="537.46" y="-112.96" width="500.02" height="3.75" transform="translate(270.57 493.28) rotate(-41.43)"/>
    </g>
  </g>
</svg>