<?xml version="1.0" encoding="UTF-8"?>
<svg id="Layer_1" xmlns="http://www.w3.org/2000/svg" version="1.1" viewBox="0 0 47.43 47.43">
  <!-- Generator: Adobe Illustrator 29.8.5, SVG Export Plug-In . SVG Version: 2.1.1 Build 2)  -->
  <defs>
    <style>
      .st0 {
        fill: #fff;
      }

      .st1 {
        fill: #157bb9;
      }
    </style>
  </defs>
  <rect class="st1" width="47.43" height="47.43" rx="8.47" ry="8.47"/>
  <g>
    <g>
      <rect class="st0" x="12.96" y="18.43" width="4.91" height="15.85"/>
      <path class="st0" d="M15.39,16.35c1.6,0,2.9-1.31,2.9-2.93s-1.3-2.93-2.9-2.93-2.9,1.31-2.9,2.93,1.3,2.93,2.9,2.93Z"/>
    </g>
    <path class="st0" d="M25.71,25.96c0-2.23,1.03-3.56,2.99-3.56,1.8,0,2.67,1.27,2.67,3.56v8.32h4.88v-10.04c0-4.25-2.41-6.3-5.77-6.3s-4.78,2.62-4.78,2.62v-2.14h-4.71v15.85h4.71v-8.32Z"/>
  </g>
</svg>