<?xml version="1.0" encoding="UTF-8"?>
<svg xmlns="http://www.w3.org/2000/svg" version="1.1" xmlns:xlink="http://www.w3.org/1999/xlink" viewBox="0 0 64.72 64.72">
  <!-- Generator: Adobe Illustrator 29.8.5, SVG Export Plug-In . SVG Version: 2.1.1 Build 2)  -->
  <defs>
    <style>
      .st0, .st1 {
        fill: #2baae2;
      }

      .st2 {
        isolation: isolate;
      }

      .st3 {
        filter: url(#drop-shadow-1);
      }

      .st3, .st4 {
        fill: #fff;
      }

      .st1 {
        mix-blend-mode: multiply;
      }

      .st1, .st4 {
        opacity: .3;
      }

      .st4 {
        mix-blend-mode: overlay;
      }
    </style>
    <filter id="drop-shadow-1" x="8.89" y="16.4" width="44.4" height="38.4" filterUnits="userSpaceOnUse">
      <feOffset dx="2.28" dy="2.28"/>
      <feGaussianBlur result="blur" stdDeviation="1.14"/>
      <feFlood flood-color="#010101" flood-opacity=".3"/>
      <feComposite in2="blur" operator="in"/>
      <feComposite in="SourceGraphic"/>
    </filter>
  </defs>
  <g class="st2">
    <g id="Layer_1">
      <g>
        <rect class="st0" x="6.34" y="6.34" width="52.03" height="52.03" rx="10.7" ry="10.7" transform="translate(32.36 -13.4) rotate(45)"/>
        <path class="st4" d="M30.64,4.19c1.23,1.23.13,4.34-2.47,6.94s-5.71,3.71-6.94,2.47c-1.23-1.23-.13-4.34,2.47-6.94s5.71-3.71,6.94-2.47Z"/>
        <path class="st1" d="M61.4,25.46c.52,3.05-.39,6.3-2.74,8.65l-19.99,19.99c-3.86,3.86-10.11,3.86-13.97,0L4.71,34.11c-1.72-1.72-2.67-3.93-2.85-6.18-1.57,3.76-.83,8.25,2.23,11.31l20.95,20.95c4.04,4.04,10.6,4.04,14.64,0l20.95-20.95c3.77-3.77,4.02-9.72.76-13.79Z"/>
        <path class="st3" d="M47.39,20.03c-.19.93-.46,2.2-.73,3.47-1.64,7.72-3.28,15.44-4.92,23.15-.09.44-.21.88-.4,1.29-.41.87-1.14,1.19-2.05.89-.45-.15-.9-.39-1.29-.67-2.47-1.81-4.93-3.64-7.39-5.46-.62-.46-.67-.46-1.23.08-1.2,1.17-2.38,2.35-3.6,3.49-.33.31-.75.57-1.18.72-.84.28-1.37-.03-1.64-.87-1.01-3.11-2.04-6.21-3.02-9.33-.2-.63-.54-.95-1.17-1.14-2.39-.71-4.78-1.47-7.16-2.22-.35-.11-.71-.27-1.02-.47-.56-.36-.68-1-.17-1.43.53-.45,1.16-.84,1.81-1.09,2.97-1.18,5.96-2.31,8.94-3.46,7.78-3,15.57-6,23.35-9,.11-.04.21-.08.32-.12,1.53-.54,2.58.21,2.56,2.19ZM24,44.37s.08,0,.11-.01c.15-1.7.31-3.4.45-5.1.05-.61.23-1.12.7-1.54,1.63-1.45,3.24-2.91,4.86-4.37,2.9-2.62,5.8-5.23,8.7-7.85.59-.53,1.17-1.06,1.74-1.6.09-.08.13-.26.12-.38,0-.06-.24-.14-.33-.11-.39.13-.79.25-1.13.46-4.06,2.54-8.11,5.1-12.16,7.66-1.81,1.14-3.62,2.29-5.44,3.42-.38.24-.58.5-.39.97.18.45.31.92.46,1.39.77,2.35,1.54,4.71,2.31,7.06Z"/>
      </g>
    </g>
  </g>
</svg>